<?xml version="1.0"?>
<svg xmlns="http://www.w3.org/2000/svg" style="fill:#3c8dbc" viewBox="0 0 512 512" width="512" height="512"><g id="_30-appointment" data-name="30-appointment"><path d="M393.265,129.522a12,12,0,1,0,0-24,28,28,0,1,1,14.405-52h31.7a51.991,51.991,0,1,0-46.107,76Z"/><path d="M272.211,129.522a12,12,0,1,0,0-24,28,28,0,1,1,14.4-52h31.7a51.991,51.991,0,1,0-46.107,76Z"/><path d="M468.927,80.349a12,12,0,0,0-11.662-14.827H382.717a15.979,15.979,0,0,0,10.548,28,24,24,0,1,1,0,48,63.957,63.957,0,0,1-62.856-76H261.664a15.978,15.978,0,0,0,10.547,28,24,24,0,1,1,0,48,63.953,63.953,0,0,1-62.855-76H140.61a15.978,15.978,0,0,0,10.547,28,24,24,0,1,1,0,48,63.953,63.953,0,0,1-62.855-76H81.265A12,12,0,0,0,69.6,74.695L50.978,151.522h400.7Z"/><path d="M151.157,129.522a12,12,0,1,0,0-24,28,28,0,1,1,14.405-52h31.7a51.992,51.992,0,1,0-46.108,76Z"/><path d="M469.265,298.541V129.889l-36.727,151.5A119.558,119.558,0,0,1,469.265,298.541Z"/><path d="M401,277.174a120.287,120.287,0,0,1,19.813,1.645l27.951-115.3H48.069L5.6,338.694a12,12,0,0,0,11.662,14.827H289.221A120.2,120.2,0,0,1,401,277.174Zm-59.735-79.652h32a12,12,0,0,1,0,24h-32a12,12,0,0,1,0-24Zm-232,120h-32a12,12,0,1,1,0-24h32a12,12,0,0,1,0,24Zm8-48h-32a12,12,0,1,1,0-24h32a12,12,0,1,1,0,24Zm16-48h-32a12,12,0,1,1,0-24h32a12,12,0,0,1,0,24Zm56,96h-32a12,12,0,0,1,0-24h32a12,12,0,0,1,0,24Zm8-48h-32a12,12,0,1,1,0-24h32a12,12,0,1,1,0,24Zm16-48h-32a12,12,0,0,1,0-24h32a12,12,0,0,1,0,24Zm56,96h-32a12,12,0,0,1,0-24h32a12,12,0,0,1,0,24Zm8-48h-32a12,12,0,1,1,0-24h32a12,12,0,1,1,0,24Zm16-48h-32a12,12,0,0,1,0-24h32a12,12,0,0,1,0,24Zm32,24h32a12,12,0,1,1,0,24h-32a12,12,0,1,1,0-24Z"/><path d="M69.265,365.521v32a12,12,0,0,0,12,12H281.632a120.352,120.352,0,0,1,3.613-44Z"/><path d="M497.265,65.522H478.036a23.845,23.845,0,0,1,3.229,12V308.049a120.677,120.677,0,0,1,28,37.394V77.522A12,12,0,0,0,497.265,65.522Z"/><path d="M401,289.174a108,108,0,1,0,108,108A108.122,108.122,0,0,0,401,289.174ZM413,480.3V469.174a12,12,0,0,0-24,0V480.3a84.171,84.171,0,0,1-71.129-71.129H329a12,12,0,0,0,0-24H317.871A84.17,84.17,0,0,1,389,314.045v11.129a12,12,0,0,0,24,0V314.045a84.17,84.17,0,0,1,71.129,71.129H473a12,12,0,0,0,0,24h11.129A84.171,84.171,0,0,1,413,480.3Z"/><path d="M424.515,356.688l-25.884,25.884L374.366,370.44a12,12,0,0,0-10.732,21.467l32,16a12,12,0,0,0,13.851-2.248l32-32a12,12,0,0,0-16.97-16.971Z"/></g></svg>
