<svg height="512" viewBox="0 0 512 512" width="512" xmlns="http://www.w3.org/2000/svg"><g id="Flat"><rect fill="#c7c7c5" height="328" rx="24" width="368" x="120" y="120"/><rect fill="#cfcfcd" height="328" rx="24" width="368" x="120" y="88"/><rect fill="#d6d6d4" height="328" rx="24" width="368" x="120" y="56"/><path d="m408 384h-264a24 24 0 0 1 -24-24v-280a24 24 0 0 1 24-24h320a24 24 0 0 1 24 24v224z" fill="#e0e0de"/><path d="m144 56h320a24 24 0 0 1 24 24v64a0 0 0 0 1 0 0h-368a0 0 0 0 1 0 0v-64a24 24 0 0 1 24-24z" fill="#348fd9"/><path d="m408 384v-56a24 24 0 0 1 24-24h56z" fill="#ebebe9"/><rect fill="#d6d6d4" height="64" rx="16" width="32" x="168" y="24"/><rect fill="#d6d6d4" height="64" rx="16" width="32" x="248" y="24"/><rect fill="#d6d6d4" height="64" rx="16" width="32" x="328" y="24"/><rect fill="#d6d6d4" height="64" rx="16" width="32" x="408" y="24"/><path d="m280 280-45.592 9.1a119.619 119.619 0 1 0 20.515 33.057z" fill="#348fd9"/><path d="m216 344h-48v-48h-48v48h-48v48h48v48h48v-48h48z" fill="#ebebe9"/><g fill="#17588f"><path d="m232 184h16v16h-16z"/><path d="m168 184h16v16h-16z"/><path d="m360 184h16v16h-16z"/><path d="m424 184h16v16h-16z"/><path d="m296 184h16v16h-16z"/><path d="m232 248h16v16h-16z"/><path d="m360 248h16v16h-16z"/><path d="m424 248h16v16h-16z"/><path d="m296 248h16v16h-16z"/><path d="m360 312h16v16h-16z"/><path d="m296 312h16v16h-16z"/></g></g></svg>