<?xml version="1.0"?>
 <svg xmlns="http://www.w3.org/2000/svg" width="512" height="512" viewBox="0 0 512 512"><g>
 <path d="M496,240h-8V152a72.083,72.083,0,0,0-72-72H96a72.083,72.083,0,0,0-72,72v88H16a8,8,0,0,0-8,8V392a8,8,0,0,0,8,8h8v32a8,8,0,0,0,8,8H63a7.994,7.994,0,0,0,7.36-4.87L85.29,400H426.71l14.93,35.13A7.994,7.994,0,0,0,449,440h31a8,8,0,0,0,8-8V400h8a8,8,0,0,0,8-8V248A8,8,0,0,0,496,240ZM40,152A56.062,56.062,0,0,1,96,96H416a56.062,56.062,0,0,1,56,56v88h-9V216a40.04,40.04,0,0,0-40-40H295a40.065,40.065,0,0,0-39.5,33.7A40.065,40.065,0,0,0,216,176H88a40.04,40.04,0,0,0-40,40v24H40Zm407,64v24H271V216a24.032,24.032,0,0,1,24-24H423A24.032,24.032,0,0,1,447,216Zm-207,0v24H64V216a24.032,24.032,0,0,1,24-24H216A24.032,24.032,0,0,1,240,216ZM57.71,424H40V400H67.91ZM472,424H454.29l-10.2-24H472Zm16-40H24V360H488Zm0-40H24V256H488Z"/><path d="M80,320H40a8,8,0,0,0,0,16H80a8,8,0,0,0,0-16Z"/><path d="M112,320h-8a8,8,0,0,0,0,16h8a8,8,0,0,0,0-16Z"/></g></svg>
