<svg height="512" viewBox="0 0 64 64" width="512" xmlns="http://www.w3.org/2000/svg" xmlns:xlink="http://www.w3.org/1999/xlink"><linearGradient id="New_Gradient_Swatch" gradientUnits="userSpaceOnUse" x1="32" x2="32" y1="62.807" y2="-1.538"><stop offset="0" stop-color="#e93e3a"/><stop offset=".35" stop-color="#ed683c"/><stop offset=".7" stop-color="#f3903f"/><stop offset="1" stop-color="#fdc70c"/></linearGradient><linearGradient id="New_Gradient_Swatch-2" x1="19" x2="19" xlink:href="#New_Gradient_Swatch" y1="62.807" y2="-1.538"/><linearGradient id="New_Gradient_Swatch-4" x1="47" x2="47" xlink:href="#New_Gradient_Swatch" y1="62.807" y2="-1.538"/><linearGradient id="New_Gradient_Swatch-5" x1="39" x2="39" xlink:href="#New_Gradient_Swatch" y1="62.807" y2="-1.538"/><linearGradient id="New_Gradient_Swatch-8" x1="27" x2="27" xlink:href="#New_Gradient_Swatch" y1="62.807" y2="-1.538"/><linearGradient id="New_Gradient_Swatch-9" x1="23" x2="23" xlink:href="#New_Gradient_Swatch" y1="62.807" y2="-1.538"/><linearGradient id="New_Gradient_Swatch-11" x1="15" x2="15" xlink:href="#New_Gradient_Swatch" y1="62.807" y2="-1.538"/><g id="Payment-Credit_Card" data-name="Payment-Credit Card"><path d="m61 52v-22.33a11 11 0 0 0 -1.474-5.5l-5.011-8.67a5.114 5.114 0 0 0 -.515-.722v-6.778a2 2 0 0 0 -2-2h-16v-2a2 2 0 0 0 -2-2h-30a2 2 0 0 0 -2 2v19a1 1 0 0 0 .1.447l1.9 3.789v20.764a2 2 0 0 0 2 2h26a2 2 0 0 0 2-2v-10h10.331a31.51 31.51 0 0 0 -.331 3.27v.85a15 15 0 0 0 2.13 7.7l.87 1.456v.724a1 1 0 0 0 -1 1v8a1 1 0 0 0 1 1h14a1 1 0 0 0 1-1v-8a1 1 0 0 0 -1-1zm-9-44v23.294l-6.8-11.784a4 4 0 0 0 -7.466 2 4.015 4.015 0 0 0 .534 2l6.683 11.566-.185.924h-10.766v-8.764l1.9-3.789a1 1 0 0 0 .1-.447v-15zm-18-4v4h-30v-4zm-2 44h-26v-21a1 1 0 0 0 -.105-.447l-1.895-3.789v-12.764h30v12.764l-1.9 3.789a1 1 0 0 0 -.1.447zm16.858 2.486-1.012-1.686a12.992 12.992 0 0 1 -1.846-6.68v-.8a20.923 20.923 0 0 1 .569-4.159 1.062 1.062 0 0 0 .034-.126l.375-1.917a1.019 1.019 0 0 0 .022-.218v-.01a.992.992 0 0 0 -.141-.5l-6.859-11.879a2.006 2.006 0 0 1 -.267-1 2 2 0 0 1 3.734-1l7.5 12.99a1 1 0 0 0 .866.5h1.167a1 1 0 0 0 1-1v-14.401l3.8 6.567a9 9 0 0 1 1.2 4.5v22.333h-10v-1a1 1 0 0 0 -.142-.514zm11.142 9.514h-12v-6h12z" fill="url(#New_Gradient_Swatch)"/><path d="m28 26h-18a1 1 0 0 0 -1 1v18a1 1 0 0 0 1 1h18a1 1 0 0 0 1-1v-18a1 1 0 0 0 -1-1zm-1 6h-4v-4h4zm-10 6v-4h4v4zm4 2v4h-4v-4zm-6-2h-4v-4h4zm2-6v-4h4v4zm6 2h4v4h-4zm-8-6v4h-4v-4zm-4 12h4v4h-4zm12 4v-4h4v4z" fill="url(#New_Gradient_Swatch-2)"/><path d="m32 13a1 1 0 0 0 -1-1h-24a1 1 0 0 0 -1 1v10a1 1 0 0 0 1 1h24a1 1 0 0 0 1-1zm-2 9h-22v-8h22z" fill="url(#New_Gradient_Swatch-2)"/><path d="m45 18h4a1 1 0 0 0 1-1v-6a1 1 0 0 0 -1-1h-4a1 1 0 0 0 -1 1v6a1 1 0 0 0 1 1zm1-6h2v4h-2z" fill="url(#New_Gradient_Swatch-4)"/><g fill="url(#New_Gradient_Swatch-5)"><path d="m38 10h2v2h-2z"/><path d="m38 14h2v2h-2z"/><path d="m38 30h2v4h-2z"/></g><path d="m26 17h2v2h-2z" fill="url(#New_Gradient_Swatch-8)"/><path d="m22 17h2v2h-2z" fill="url(#New_Gradient_Swatch-9)"/><path d="m18 17h2v2h-2z" fill="url(#New_Gradient_Swatch-2)"/><path d="m14 17h2v2h-2z" fill="url(#New_Gradient_Swatch-11)"/></g></svg>