<svg height="512" viewBox="0 0 64 64" width="512" xmlns="http://www.w3.org/2000/svg"><g id="glass_&#xB7;_shipping_&#xB7;_box_&#xB7;_package_&#xB7;_delivery" data-name="glass  &#xB7; shipping &#xB7;  box &#xB7; package &#xB7; delivery"><path d="m61 15h-58l6-12h46z" fill="#8b5e3c"/><path d="m3 15h58v46h-58z" fill="#c49a6c"/><path d="m57 15v26a18 18 0 0 1 -18 18h-36v2h58v-46z" fill="#a97c50"/><path d="m38 15-2-12h-8l-2 12z" fill="#ee8700"/><path d="m26 15h12v14h-12z" fill="#ff9811"/><path d="m9 39h20v16h-20z" fill="#5eac24"/><g fill="#f1f2f2"><path d="m18 48h7a1 1 0 0 0 0-2h-7a1 1 0 0 0 0 2z"/><path d="m18 44h7a1 1 0 0 0 0-2h-7a1 1 0 0 0 0 2z"/><path d="m18 52h7a1 1 0 0 0 0-2h-7a1 1 0 0 0 0 2z"/><path d="m13 48h1a1 1 0 0 0 0-2h-1a1 1 0 0 0 0 2z"/><path d="m13 44h1a1 1 0 0 0 0-2h-1a1 1 0 0 0 0 2z"/><path d="m13 52h1a1 1 0 0 0 0-2h-1a1 1 0 0 0 0 2z"/></g><path d="m55 44v-5h-10v5a5 5 0 0 0 4 4.9v5.1h-2a1 1 0 0 0 0 2h6a1 1 0 0 0 0-2h-2v-5.1a5 5 0 0 0 4-4.9z" fill="#ed1c24"/></g></svg>