<svg height="482pt" viewBox="-81 0 482 482.39003" width="482pt" xmlns="http://www.w3.org/2000/svg"><path d="m217.195312 8c18.628907 0 34.789063 12.855469 38.976563 31.007812 4.1875 18.152344-4.707031 36.789063-21.453125 44.949219-16.746094 8.160157-36.90625 3.683594-48.621094-10.800781s-11.882812-35.136719-.402344-49.804688c7.582032-9.691406 19.199219-15.351562 31.5-15.351562zm0 0" fill="#f8ec7d"/><path d="m224.195312 293.390625c0 8.285156-6.714843 15-15 15-8.285156 0-15-6.714844-15-15s6.714844-15 15-15c8.285157 0 15 6.714844 15 15zm0 0" fill="#f8ec7d"/><path d="m311.546875 123.390625v306.519531l-145.222656 43.480469v-306.519531zm-87.351563 170c0-8.285156-6.714843-15-15-15-8.285156 0-15 6.714844-15 15s6.714844 15 15 15c8.28125-.003906 14.996094-6.71875 15-15zm0 0" fill="#e48e66"/><g fill="#63316d"><path d="m320.445312 122.128906c-.035156-.246094-.074218-.488281-.128906-.726562-.019531-.097656-.046875-.1875-.070312-.285156-.0625-.226563-.128906-.453126-.199219-.675782-.035156-.09375-.066406-.183594-.101563-.273437-.085937-.222657-.179687-.4375-.28125-.652344-.039062-.082031-.078124-.167969-.121093-.25-.117188-.230469-.246094-.453125-.386719-.667969-.035156-.0625-.066406-.121094-.105469-.179687-.179687-.269531-.375-.53125-.578125-.78125-.042968-.046875-.089844-.09375-.132812-.140625-.167969-.195313-.34375-.382813-.53125-.5625-.078125-.078125-.160156-.148438-.242188-.222656-.164062-.148438-.332031-.292969-.507812-.429688-.046875-.035156-.085938-.074219-.132813-.109375s-.089843-.058594-.136719-.089844c-.191406-.136719-.386718-.265625-.589843-.386719-.078125-.046874-.152344-.101562-.234375-.140624-.277344-.160157-.5625-.304688-.855469-.429688h-.007813c-.3125-.132812-.632812-.25-.957031-.347656-.042969-.011719-.085937-.019532-.125-.03125-.269531-.078125-.542969-.140625-.820312-.195313-.097657-.015625-.199219-.027343-.296875-.042969-.21875-.035156-.4375-.0625-.664063-.078124-.125-.011719-.25-.015626-.375-.019532-.105469 0-.207031-.015625-.316406-.015625h-198.703125c-4.96875 0-9 4.027344-9 9v81.828125c0 4.972656 4.03125 9 9 9 4.972656 0 9-4.027344 9-9v-72.832031h128.261719l-86.363281 25.855469c-3.808594 1.144531-6.417969 4.648437-6.417969 8.625v254.039062h-35.480469v-69.640625c0-4.96875-4.027344-9-9-9-4.96875 0-9 4.03125-9 9v78.640625c0 4.96875 4.03125 9 9 9h44.480469v34.480469c0 2.84375 1.34375 5.519531 3.625 7.21875s5.230469 2.21875 7.957031 1.402344l145.222656-43.480469c3.808594-1.140625 6.417969-4.644531 6.417969-8.621094v-306.519531c-.003906-.335937-.023437-.667969-.0625-1-.007813-.089844-.023437-.175781-.039063-.261719zm-17.898437 301.082032-127.222656 38.089843v-287.730469l127.222656-38.089843zm0 0"/><path d="m209.195312 317.390625c13.253907 0 24-10.746094 24-24s-10.746093-24-24-24c-13.253906 0-24 10.746094-24 24 .015626 13.246094 10.75 23.984375 24 24zm0-30c3.3125 0 6 2.6875 6 6s-2.6875 6-6 6-6-2.6875-6-6c.003907-3.3125 2.6875-5.996094 6-6zm0 0"/><path d="m217.195312 96c22.449219 0 41.898438-15.558594 46.828126-37.457031 4.929687-21.902344-5.976563-44.292969-26.257813-53.914063-20.285156-9.617187-44.523437-3.894531-58.363281 13.78125-14.640625 18.699219-13.40625 45.289063 2.898437 62.554688 9.082031 9.578125 21.695313 15.011718 34.894531 15.035156zm-25.199218-67.710938c9.632812-12.308593 26.753906-15.859374 40.488281-8.386718 13.734375 7.46875 20.058594 23.765625 14.960937 38.546875-5.097656 14.777343-20.128906 23.710937-35.546874 21.121093-15.417969-2.585937-26.710938-15.9375-26.703126-31.570312-.011718-7.148438 2.386719-14.089844 6.800782-19.710938zm0 0"/><path d="m209.308594 58.253906 11.140625 7.140625c3.714843 2.347657 8.628906 1.253907 11.003906-2.449219 2.371094-3.699218 1.3125-8.621093-2.371094-11.019531l-7.457031-4.78125v-17.792969c0-4.417968-3.582031-8-8-8s-8 3.582032-8 8v22.167969c0 2.726563 1.386719 5.265625 3.683594 6.734375zm0 0"/><path d="m144.742188 282.550781c.191406-.199219.367187-.40625.539062-.621093.097656-.128907.195312-.253907.285156-.382813.183594-.265625.355469-.535156.511719-.816406.070313-.128907.132813-.261719.199219-.398438.109375-.226562.210937-.457031.300781-.691406.054687-.140625.105469-.28125.152344-.421875.101562-.308594.1875-.617188.257812-.933594.03125-.144531.050781-.289062.074219-.4375.042969-.246094.074219-.5.09375-.75.011719-.167968.023438-.332031.027344-.5 0-.070312.007812-.140625.007812-.210937 0-.183594-.015625-.363281-.027344-.546875-.007812-.136719-.011718-.273438-.023437-.414063-.039063-.347656-.097656-.695312-.175781-1.035156-.027344-.125-.0625-.246094-.09375-.367187-.085938-.316407-.1875-.625-.308594-.929688-.015625-.050781-.027344-.101562-.046875-.152344-.007813-.015625-.019531-.03125-.023437-.050781-.042969-.09375-.089844-.179687-.132813-.273437-.175781-.382813-.378906-.753907-.609375-1.109376-.03125-.054687-.0625-.109374-.097656-.160156-.117188-.167968-.242188-.328125-.363282-.488281-.058593-.074219-.117187-.15625-.179687-.226563-.117187-.144531-.246094-.277343-.371094-.414062-.078125-.082031-.15625-.167969-.238281-.25-.03125-.03125-.0625-.070312-.097656-.097656l-40.84375-40.855469c-3.515625-3.515625-9.214844-3.515625-12.730469 0-3.515625 3.511719-3.515625 9.210937 0 12.726563l25.644531 25.648437h-107.277344c-4.972656 0-9 4.027344-9 9 0 4.96875 4.027344 9 9 9h107.28125l-25.644531 25.644531c-3.515625 3.515625-3.515625 9.214844 0 12.730469 3.515625 3.511719 9.210938 3.511719 12.726563 0l41.011718-41.011719c.0625-.0625.113282-.136718.171876-.203125zm0 0"/></g></svg>