<svg height="511pt" viewBox="0 -46 511.99976 511" width="511pt" xmlns="http://www.w3.org/2000/svg" xmlns:xlink="http://www.w3.org/1999/xlink"><linearGradient id="a"><stop offset="0" stop-color="#e93e3a"/><stop offset=".357" stop-color="#ed683c"/><stop offset=".708" stop-color="#f3903f"/><stop offset="1" stop-color="#fdc70c"/></linearGradient><linearGradient id="b" gradientTransform="matrix(.667804 0 0 -.667804 -.000246 468.072851)" gradientUnits="userSpaceOnUse" x1="383.346" x2="383.346" xlink:href="#a" y1="63.2461" y2="788.0503"/><linearGradient id="c" gradientTransform="matrix(.667804 0 0 -.667804 -.000246 468.072851)" gradientUnits="userSpaceOnUse" x1="268.3705" x2="268.3705" xlink:href="#a" y1="63.2461" y2="788.0503"/><linearGradient id="d" gradientTransform="matrix(.667804 0 0 -.667804 -.000246 468.072851)" gradientUnits="userSpaceOnUse" x1="498.4143" x2="498.4143" xlink:href="#a" y1="63.2461" y2="788.0503"/><linearGradient id="e" gradientTransform="matrix(.667804 0 0 -.667804 -.000246 468.072851)" gradientUnits="userSpaceOnUse" x1="472.8539" x2="472.8539" xlink:href="#a" y1="63.2461" y2="788.0503"/><linearGradient id="f" gradientTransform="matrix(.667804 0 0 -.667804 -.000246 468.072851)" gradientUnits="userSpaceOnUse" x1="293.9309" x2="293.9309" xlink:href="#a" y1="63.2461" y2="788.0503"/><linearGradient id="g" gradientTransform="matrix(.667804 0 0 -.667804 -.000246 468.072851)" gradientUnits="userSpaceOnUse" x1="332.2715" x2="332.2715" xlink:href="#a" y1="63.2461" y2="788.0503"/><linearGradient id="h" gradientTransform="matrix(.667804 0 0 -.667804 -.000246 468.072851)" gradientUnits="userSpaceOnUse" x1="370.6122" x2="370.6122" xlink:href="#a" y1="63.2461" y2="788.0503"/><linearGradient id="i" gradientTransform="matrix(.667804 0 0 -.667804 -.000246 468.072851)" gradientUnits="userSpaceOnUse" x1="383.3924" x2="383.3924" xlink:href="#a" y1="63.2461" y2="788.0503"/><linearGradient id="j" gradientTransform="matrix(.667804 0 0 -.667804 -.000246 468.072851)" gradientUnits="userSpaceOnUse" x1="421.733" x2="421.733" xlink:href="#a" y1="63.2461" y2="788.0503"/><path d="m423.3125 107.03125c-16.542969-73.523438-89.554688-119.714844-163.078125-103.175781-37.21875 8.375-69.230469 31.945312-88.277344 65h-1.273437c-53.542969.132812-99.382813 38.414062-109.0625 91.074219-48.6875 17.832031-73.699219 71.757812-55.867188 120.441406 13.542969 36.984375 48.734375 61.582031 88.117188 61.59375h25.605468v25.605468c.019532 6.070313 3.269532 11.671876 8.535157 14.699219v19.441407c0 9.425781 7.640625 17.066406 17.070312 17.066406h221.898438c9.429687 0 17.070312-7.640625 17.070312-17.066406v-19.441407c5.265625-3.027343 8.515625-8.628906 8.535157-14.699219v-25.605468c65.988281-.039063 119.453124-53.566406 119.414062-119.554688-.03125-54.101562-36.414062-101.433594-88.6875-115.378906zm-278.230469 294.679688v-17.070313h221.898438v17.070313zm230.433594-34.140626h-238.96875v-68.277343h238.96875zm-230.433594-85.347656v-17.066406h221.898438v17.066406zm230.433594-34.136718h-238.96875v-68.277344h238.96875zm17.070313 76.8125v-25.605469c-.019532-6.070313-3.269532-11.671875-8.535157-14.699219v-21.8125c5.265625-3.023438 8.515625-8.625 8.535157-14.695312v-68.277344c0-9.429688-7.640626-17.070313-17.070313-17.070313h-238.96875c-9.429687 0-17.070313 7.644531-17.070313 17.070313v68.277344c.015626 6.070312 3.269532 11.671874 8.535157 14.695312v21.816406c-5.265625 3.023438-8.519531 8.625-8.535157 14.695313v25.605469h-25.605468c-42.421875-.003907-76.808594-34.398438-76.804688-76.820313.003906-33.871094 22.191406-63.738281 54.617188-73.527344 3.203125-.976562 5.539062-3.738281 5.972656-7.058593 6.230469-46.636719 45.976562-81.484376 93.027344-81.566407 1.339844 0 2.65625.09375 3.96875.179688l1.707031.109375c3.355469.234375 6.523437-1.554688 8.058594-4.546875 30.605469-58.40625 102.761719-80.941407 161.167969-50.332031 32.53125 17.046874 55.40625 48.121093 62.019531 84.246093.617187 3.40625 3.226562 6.101563 6.605469 6.828125 55.269531 12.039063 90.3125 66.601563 78.273437 121.871094-10.238281 46.996094-51.800781 80.535156-99.898437 80.617188zm0 0" fill="url(#b)"/><path d="m179.21875 188.34375c-14.140625 0-25.605469 11.460938-25.605469 25.601562 0 14.140626 11.464844 25.605469 25.605469 25.605469s25.605469-11.464843 25.605469-25.605469c0-14.140624-11.464844-25.601562-25.605469-25.601562zm0 34.136719c-4.714844 0-8.535156-3.820313-8.535156-8.535157 0-4.710937 3.820312-8.535156 8.535156-8.535156s8.535156 3.824219 8.535156 8.535156c0 4.714844-3.820312 8.535157-8.535156 8.535157zm0 0" fill="url(#c)"/><path d="m332.84375 307.828125c-14.140625 0-25.605469 11.464844-25.605469 25.605469s11.464844 25.601562 25.605469 25.601562 25.601562-11.460937 25.601562-25.601562-11.460937-25.605469-25.601562-25.605469zm0 34.136719c-4.714844 0-8.535156-3.820313-8.535156-8.53125 0-4.714844 3.820312-8.535156 8.535156-8.535156 4.710938 0 8.535156 3.820312 8.535156 8.535156 0 4.710937-3.820312 8.53125-8.535156 8.53125zm0 0" fill="url(#d)"/><path d="m341.378906 188.34375h-51.207031c-9.429687 0-17.070313 7.640625-17.070313 17.066406v17.070313c0 9.425781 7.640626 17.070312 17.070313 17.070312h51.207031c9.425782 0 17.066406-7.644531 17.066406-17.070312v-17.070313c0-9.425781-7.640624-17.066406-17.066406-17.066406zm0 34.136719h-51.207031v-17.070313h51.207031zm0 0" fill="url(#e)"/><path d="m221.890625 307.828125h-51.207031c-9.425782 0-17.070313 7.640625-17.070313 17.070313v17.066406c0 9.429687 7.644531 17.070312 17.070313 17.070312h51.207031c9.429687 0 17.070313-7.640625 17.070313-17.070312v-17.066406c0-9.429688-7.640626-17.070313-17.070313-17.070313zm0 34.136719h-51.207031v-17.066406h51.207031zm0 0" fill="url(#f)"/><path d="m221.890625 188.34375c-4.710937 0-8.53125 3.820312-8.53125 8.53125v34.140625c0 4.714844 3.820313 8.535156 8.53125 8.535156 4.714844 0 8.535156-3.820312 8.535156-8.535156v-34.140625c0-4.710938-3.820312-8.53125-8.535156-8.53125zm0 0" fill="url(#g)"/><path d="m247.496094 188.34375c-4.714844 0-8.535156 3.820312-8.535156 8.53125v34.140625c0 4.714844 3.820312 8.535156 8.535156 8.535156s8.535156-3.820312 8.535156-8.535156v-34.140625c0-4.710938-3.820312-8.53125-8.535156-8.53125zm0 0" fill="url(#h)"/><path d="m256.03125 307.828125c-4.714844 0-8.535156 3.820313-8.535156 8.535156v34.136719c0 4.714844 3.820312 8.535156 8.535156 8.535156 4.710938 0 8.535156-3.820312 8.535156-8.535156v-34.136719c0-4.714843-3.820312-8.535156-8.535156-8.535156zm0 0" fill="url(#i)"/><path d="m281.632812 307.828125c-4.710937 0-8.53125 3.820313-8.53125 8.535156v34.136719c0 4.714844 3.820313 8.535156 8.53125 8.535156 4.714844 0 8.535157-3.820312 8.535157-8.535156v-34.136719c0-4.714843-3.820313-8.535156-8.535157-8.535156zm0 0" fill="url(#j)"/></svg>