<svg id="Layer_3" height="512" viewBox="0 0 64 64" width="512" xmlns="http://www.w3.org/2000/svg" data-name="Layer 3"><g fill="#f2b0ae"><circle cx="32" cy="4" r="2"/><circle cx="32" cy="60" r="2"/><circle cx="60" cy="32" r="2"/><circle cx="4" cy="32" r="2"/><path d="m10 28 4 3 8-11-4-3z"/><path d="m54 28-4 3-8-11 4-3z"/></g><path d="m60.852 29.138a29.107 29.107 0 0 0 -25.99-25.991 2.981 2.981 0 0 0 -5.724 0 29.107 29.107 0 0 0 -25.99 25.991 2.981 2.981 0 0 0 0 5.724 29.108 29.108 0 0 0 25.99 25.991 2.981 2.981 0 0 0 5.724 0 29.106 29.106 0 0 0 25.99-25.991 2.981 2.981 0 0 0 0-5.724zm-28.852-26.138a1 1 0 1 1 -1 1 1 1 0 0 1 1-1zm-28 28a1 1 0 1 1 -1 1 1 1 0 0 1 1-1zm28 30a1 1 0 1 1 1-1 1 1 0 0 1 -1 1zm2.77-2.147a3 3 0 0 0 -5.54 0 27.1 27.1 0 0 1 -24.084-24.083 3 3 0 0 0 0-5.54 27.1 27.1 0 0 1 24.084-24.083 3 3 0 0 0 5.54 0 27.1 27.1 0 0 1 24.084 24.083 3 3 0 0 0 0 5.54 27.1 27.1 0 0 1 -24.084 24.083zm25.23-25.853a1 1 0 1 1 1-1 1 1 0 0 1 -1 1z" fill="#b1404a"/><path d="m46.809 16.412a1 1 0 0 0 -1.409-.212l-4 3a1 1 0 0 0 -.209 1.388l1.173 1.612-1.464.732-5.9-1.685a6.458 6.458 0 0 0 -6.3 1.631l-.114.122h-4.286l-2.188-1.458.694-.954a1 1 0 0 0 -.206-1.388l-4-3a1 1 0 0 0 -1.409.212l-8 11a1 1 0 0 0 .209 1.388l4 3a1 1 0 0 0 .6.2 1.031 1.031 0 0 0 .148-.011.98.98 0 0 0 .463-.219l2.889 2.313-.59.589a3.123 3.123 0 0 0 3.234 5.156 3.127 3.127 0 0 0 4 2 3.127 3.127 0 0 0 2.856 2.172 3.124 3.124 0 0 0 3.118 3c.023 0 .045-.006.067-.007l.426.284a4.291 4.291 0 0 0 2.389.723 3 3 0 0 0 3-3c0-.045-.014-.088-.016-.132a4.321 4.321 0 0 0 1.016.132 3 3 0 0 0 3-3c0-.04 0-.079 0-.118a4.3 4.3 0 0 0 1 .118 3 3 0 0 0 2.787-4.1 2.958 2.958 0 0 0 1.955-4.071l3.126-2.68.323.444a1 1 0 0 0 .661.4 1.031 1.031 0 0 0 .148.007 1 1 0 0 0 .6-.2l4-3a1 1 0 0 0 .209-1.388zm-35.42 11.379 6.823-9.382 2.4 1.8-6.823 9.382zm8.524 9.881a1.121 1.121 0 0 1 -1.586-1.585l2.76-2.76a1.121 1.121 0 0 1 1.586 1.586l-1.758 1.758-.006.006zm4 2a1.121 1.121 0 0 1 -1.586-1.585l1.76-1.76a1.121 1.121 0 0 1 1.586 1.586l-.758.758-.006.006zm2.087 1.208a1.112 1.112 0 0 1 .327-.793l.76-.76a1.121 1.121 0 0 1 1.586 1.586l-.758.758a1.121 1.121 0 0 1 -1.915-.791zm3 3a1.112 1.112 0 0 1 .327-.793l.758-.758a1.121 1.121 0 0 1 1.586 1.586l-.76.759a1.121 1.121 0 0 1 -1.911-.794zm4 2.12a2.319 2.319 0 0 1 -.511-.075l.6-.6a3.106 3.106 0 0 0 .651-.962.988.988 0 0 1 .26.637 1 1 0 0 1 -1 1zm10-10a2.3 2.3 0 0 1 -1.277-.387l-2.168-1.445-3-2-1.11 1.664 2.983 1.988 3.172 2.38a1 1 0 0 1 -.6 1.8 2.366 2.366 0 0 1 -1.326-.417l-4.14-2.429-2.979-1.986-1.11 1.664 2.983 1.988 3.172 2.38a1 1 0 0 1 -.6 1.8 2.366 2.366 0 0 1 -1.326-.417l-2.35-1.378a3.106 3.106 0 0 0 -2.324-1.205 3.124 3.124 0 0 0 -3-3 3.124 3.124 0 0 0 -3-3 3.121 3.121 0 0 0 -5.325-2.089l-.747.747-3.1-2.477 5.108-7.023 2.507 1.672a1.006 1.006 0 0 0 .557.17h2.586l-.88.879a2.415 2.415 0 0 0 1.708 4.121 9.515 9.515 0 0 0 5.291-1.6 2.37 2.37 0 0 1 1.316-.4h1.313l8.266 6.2a1 1 0 0 1 -.6 1.8zm1.425-3.681-6.425-4.819v-1.5h-3.979a4.354 4.354 0 0 0 -2.425.734 7.518 7.518 0 0 1 -4.182 1.266.414.414 0 0 1 -.293-.707l3-3a4.442 4.442 0 0 1 4.332-1.122l6.272 1.791a.994.994 0 0 0 .721-.066l2.109-1.055 4.132 5.682zm5.787-2.728-6.823-9.382 2.4-1.8 6.823 9.382z" fill="#b1404a"/></svg>