<svg id="Layer_1" enable-background="new 0 0 512 512" height="512" viewBox="0 0 512 512" width="512" xmlns="http://www.w3.org/2000/svg"><g><path d="m245.394 420.231c2.929 2.929 6.768 4.394 10.606 4.394s7.678-1.464 10.606-4.394l120.5-120.5c4.29-4.29 5.573-10.742 3.252-16.347-2.322-5.605-7.791-9.26-13.858-9.26h-45.25v-138.624c0-8.284-6.716-15-15-15h-120.5c-8.284 0-15 6.716-15 15v138.625h-45.25c-6.067 0-11.537 3.655-13.858 9.26s-1.038 12.057 3.252 16.347z"/><path d="m387.106 365.894c-5.857-5.858-15.355-5.858-21.213 0l-109.893 109.893-109.894-109.893c-5.857-5.858-15.355-5.858-21.213 0s-5.858 15.355 0 21.213l120.5 120.5c2.929 2.929 6.768 4.393 10.607 4.393s7.678-1.464 10.606-4.394l120.5-120.5c5.859-5.857 5.859-15.355 0-21.212z"/><path d="m195.75 90.25h120.5c8.284 0 15-6.716 15-15s-6.716-15-15-15h-120.5c-8.284 0-15 6.716-15 15s6.716 15 15 15z"/><path d="m195.75 30h120.5c8.284 0 15-6.716 15-15s-6.716-15-15-15h-120.5c-8.284 0-15 6.716-15 15s6.716 15 15 15z"/></g></svg>