<svg height="512" viewBox="0 0 512 512" width="512" xmlns="http://www.w3.org/2000/svg"><g id="Flat"><path d="m24 32h272v424h-272z" fill="#0093b9"/><path d="m64 80h48v48h-48z" fill="#57c3c1"/><path d="m78.059 72h67.882v16h-67.882z" fill="#eb5849" transform="matrix(.707 -.707 .707 .707 -23.765 102.622)"/><g fill="#57c3c1"><path d="m152 80h16v16h-16z"/><path d="m184 80h80v16h-80z"/><path d="m152 112h112v16h-112z"/><path d="m64 176h48v48h-48z"/></g><path d="m78.059 168h67.882v16h-67.882z" fill="#eb5849" transform="matrix(.707 -.707 .707 .707 -91.645 130.736)"/><path d="m152 176h16v16h-16z" fill="#57c3c1"/><path d="m184 176h80v16h-80z" fill="#57c3c1"/><path d="m152 208h112v16h-112z" fill="#57c3c1"/><path d="m64 272h48v48h-48z" fill="#57c3c1"/><path d="m78.059 264h67.882v16h-67.882z" fill="#eb5849" transform="matrix(.707 -.707 .707 .707 -159.524 158.851)"/><path d="m152 272h16v16h-16z" fill="#57c3c1"/><path d="m64 368h48v48h-48z" fill="#57c3c1"/><path d="m78.059 360h67.882v16h-67.882z" fill="#eb5849" transform="matrix(.707 -.707 .707 .707 -227.403 186.966)"/><path d="m152 368h16v16h-16z" fill="#57c3c1"/><path d="m152 400h24v16h-24z" fill="#57c3c1"/><path d="m200 280h256v208h-256z" fill="#f8bc1e"/><path d="m200 280h96v208h-96z" fill="#f79726"/><path d="m416 448h16v16h-16z" fill="#f79726"/><path d="m384 448h16v16h-16z" fill="#f79726"/><path d="m488 328-32-48h-160l32 48z" fill="#e8732d"/><path d="m168 328 32-48h96l-32 48z" fill="#e8732d"/><path d="m360 56v120h-32v24l56 48 56-48v-24h-32v-120z" fill="#85bb40"/></g></svg>