<svg id="Capa_1" enable-background="new 0 0 512 512" height="512" viewBox="0 0 512 512" width="512" xmlns="http://www.w3.org/2000/svg"><g><g><path d="m42.69 264.15v-57.661c0-10.06 8.656-17.937 18.672-16.991l161.902 15.293h65.52l161.902-15.293c10.015-.946 18.672 6.931 18.672 16.991v57.661z" fill="#d6e3fa"/><path d="m450.686 189.497-15.098 1.426c5.901 2.659 10.075 8.582 10.075 15.565v57.661h23.694v-57.661c0-10.059-8.656-17.937-18.671-16.991z" fill="#bdd5f8"/><path d="m350.032 376.375 136.392 14.43c8.799.978 16.885-4.934 18.621-13.616l.003-.017c9.238-46.197 9.237-93.767-.003-139.964-1.736-8.68-9.821-14.592-18.619-13.615l-136.397 14.413-188.246.712-136.209-15.124c-8.798-.977-16.883 4.935-18.619 13.615l-.002.009c-9.24 46.197-9.24 93.766 0 139.964l.002.007c1.736 8.681 9.822 14.593 18.621 13.615l136.205-15.143z" fill="#ecf3fd"/><path d="m505.045 237.209c-1.736-8.68-9.821-14.592-18.619-13.615l-14.523 1.535c4.731 2.239 8.353 6.606 9.448 12.08 9.24 46.197 9.241 93.766.003 139.964l-.003.017c-1.095 5.473-4.715 9.84-9.445 12.08l14.518 1.536c8.799.978 16.885-4.934 18.621-13.616l.003-.017c9.239-46.198 9.238-93.767-.003-139.964z" fill="#d6e3fa"/><path d="m391.408 456.533-43.429-75.239-183.887.046-43.452 75.193c-2.912 5.044-.027 11.459 5.679 12.627l23.65 4.84 23.667-2.875 5.893 19.942 16.016 18.062c3.864 4.358 10.863 3.649 13.775-1.395l46.703-81.076 46.703 81.076c2.912 5.044 9.91 5.753 13.775 1.395l16.016-18.062 5.071-24.164 24.49 7.098 23.65-4.84c5.707-1.169 8.592-7.584 5.68-12.628z" fill="#dc6671"/><g fill="#d94b59"><path d="m194.681 491.797c-2.474 4.285-7.892 5.428-11.838 3.006l12.703 14.325c3.864 4.358 10.863 3.649 13.775-1.395l46.703-81.076-14.64-15.936z"/><g><path d="m335.996 474.488-12.45 2.548c-1.809.37-3.449 1.317-4.674 2.698l-19.564 22.063 3.419 5.935c2.912 5.044 9.91 5.753 13.775 1.395l16.016-18.062z"/><path d="m391.408 456.533-43.429-75.239-23.691.006 43.425 75.233c2.912 5.044.027 11.459-5.679 12.627l-9.762 1.998 9.806 2.842 23.65-4.84c5.707-1.168 8.592-7.583 5.68-12.627z"/></g></g><path d="m320.758 402.431h-129.47l-41.319 71.567 14.838 3.036c1.809.37 3.449 1.317 4.674 2.698l10.048 11.332 45.645-79.059h61.699l45.645 79.059 10.049-11.332c1.225-1.381 2.865-2.328 4.674-2.698l14.838-3.036z" fill="#ecf3fd"/><path d="m324.325 476.876 8.192 14.19 10.049-11.332c1.225-1.381 2.865-2.328 4.674-2.698l14.838-3.036-2.503-4.336z" fill="#d6e3fa"/><g><path d="m375.486 307.195c0-13.05-6.279-24.632-15.98-31.893-5.818-4.354-8.792-11.535-7.758-18.728 1.725-11.994-2.024-24.623-11.252-33.851s-21.857-12.978-33.851-11.252c-7.193 1.035-14.374-1.94-18.728-7.757-7.261-9.701-18.843-15.98-31.893-15.98s-24.632 6.279-31.893 15.98c-4.354 5.818-11.535 8.792-18.728 7.757-11.994-1.725-24.623 2.024-33.851 11.252s-12.978 21.857-11.252 33.851c1.035 7.193-1.94 14.374-7.757 18.728-9.701 7.261-15.98 18.843-15.98 31.893s6.279 24.632 15.98 31.893c5.818 4.354 8.792 11.535 7.757 18.728-1.725 11.994 2.024 24.624 11.252 33.851 9.228 9.228 21.857 12.978 33.851 11.252 7.193-1.035 14.374 1.94 18.728 7.757 7.261 9.701 18.843 15.98 31.893 15.98s24.632-6.279 31.893-15.98c4.355-5.818 11.535-8.792 18.728-7.757 11.994 1.725 24.623-2.024 33.851-11.252s12.978-21.857 11.252-33.851c-1.035-7.193 1.94-14.374 7.758-18.728 9.701-7.261 15.98-18.843 15.98-31.893z" fill="#f0dc34"/><path d="m359.506 275.302c-5.818-4.354-8.792-11.535-7.758-18.728 1.725-11.994-2.024-24.623-11.252-33.851s-21.857-12.977-33.851-11.252c-7.193 1.035-14.374-1.94-18.728-7.757-7.261-9.701-18.843-15.98-31.893-15.98-4.127 0-8.105.631-11.847 1.796 8.094 2.52 15.081 7.55 20.046 14.184 4.354 5.818 11.535 8.792 18.728 7.757 11.994-1.725 24.624 2.024 33.851 11.252 9.228 9.228 12.977 21.857 11.252 33.851-1.035 7.193 1.94 14.374 7.757 18.728 9.701 7.261 15.98 18.843 15.98 31.893s-6.279 24.632-15.98 31.893c-5.818 4.354-8.792 11.535-7.757 18.728 1.725 11.994-2.024 24.624-11.252 33.851-9.228 9.228-21.857 12.978-33.851 11.252-7.193-1.035-14.374 1.94-18.728 7.758-4.965 6.634-11.952 11.663-20.046 14.183 3.743 1.165 7.721 1.797 11.847 1.797 13.05 0 24.632-6.279 31.893-15.98 4.354-5.818 11.535-8.792 18.728-7.758 11.994 1.725 24.623-2.024 33.851-11.252s12.977-21.857 11.252-33.851c-1.035-7.193 1.94-14.374 7.758-18.728 9.701-7.261 15.98-18.843 15.98-31.893s-6.279-24.632-15.98-31.893z" fill="#ecc130"/><ellipse cx="256.024" cy="307.19" fill="#faef6c" rx="68.267" ry="68.267" transform="matrix(.707 -.707 .707 .707 -142.229 271.01)"/><ellipse cx="256.024" cy="307.19" fill="#f0dc34" rx="34.133" ry="34.133" transform="matrix(.233 -.972 .972 .233 -102.393 484.535)"/><g><g><path d="m258.157 314.917h-4.267c-4.267 0-7.726-3.459-7.726-7.726s3.459-7.726 7.726-7.726h4.267c4.267 0 7.726 3.459 7.726 7.726s-3.458 7.726-7.726 7.726z" fill="#617881"/></g></g><path d="m256.024 273.057c-4.166 0-8.156.749-11.847 2.115 13.011 4.816 22.286 17.333 22.286 32.018s-9.275 27.202-22.286 32.018c3.691 1.366 7.681 2.115 11.847 2.115 18.851 0 34.133-15.282 34.133-34.133s-15.282-34.133-34.133-34.133z" fill="#ecc130"/></g></g><g><path d="m332.824 101.595 59.255-26.335c6.757-3.003 6.757-12.593 0-15.596l-132.59-58.928c-2.206-.981-4.725-.981-6.931 0l-132.589 58.928c-6.757 3.003-6.757 12.593 0 15.596l59.255 26.335z" fill="#617881"/><path d="m392.079 59.664-132.59-58.928c-2.206-.981-4.725-.981-6.931 0l-8.382 3.725 124.208 55.203c6.757 3.003 6.757 12.592 0 15.596l-59.255 26.335h23.694l59.255-26.335c6.758-3.003 6.758-12.593.001-15.596z" fill="#516874"/><path d="m332.824 119.467v-42.959c0-4.552-3.69-8.242-8.241-8.242h-137.118c-4.552 0-8.242 3.69-8.242 8.242v42.959l76.8 17.067z" fill="#516874"/><g><path d="m119.49 120.72c-4.267 0-7.726-3.459-7.726-7.726v-44.15c0-4.268 3.459-7.726 7.726-7.726s7.726 3.459 7.726 7.726v44.15c.001 4.268-3.458 7.726-7.726 7.726z" fill="#516874"/></g><path d="m308.815 76.508v48.294l24.009-5.335v-42.959c0-4.552-3.69-8.242-8.241-8.242h-24.009c4.551.001 8.241 3.691 8.241 8.242z" fill="#425768"/><path d="m195.707 153.6h120.634c9.103 0 16.483-7.38 16.483-16.483v-17.65h-153.6v17.65c0 9.103 7.379 16.483 16.483 16.483z" fill="#82b7f9"/><path d="m332.824 137.117v-17.65h-24.009v17.65c0 9.103-7.38 16.483-16.483 16.483h24.009c9.103 0 16.483-7.38 16.483-16.483z" fill="#66a4f7"/><path d="m136.557 127.759c0-9.699-8.091-17.509-17.892-17.047-9.179.432-16.242 8.34-16.242 17.529v16.826c0 4.713 3.821 8.533 8.533 8.533h17.067c4.713 0 8.533-3.82 8.533-8.533v-17.308z" fill="#f0dc34"/><path d="m118.665 110.712c-4.276.201-8.079 2.038-10.937 4.857 3.165 3.098 5.134 7.412 5.134 12.19v17.308c0 3.538-2.153 6.572-5.219 7.866 1.019.43 2.138.668 3.314.668h17.067c4.713 0 8.533-3.82 8.533-8.533v-17.308c0-9.7-8.091-17.509-17.892-17.048z" fill="#ecc130"/></g></g></svg>