<?xml version="1.0" encoding="iso-8859-1"?>
<!-- Generator: Adobe Illustrator 18.1.1, SVG Export Plug-In . SVG Version: 6.00 Build 0)  -->
<svg version="1.1" id="Capa_1" xmlns="http://www.w3.org/2000/svg" xmlns:xlink="http://www.w3.org/1999/xlink" x="0px" y="0px"
	 viewBox="0 0 57.5 57.5" style="enable-background:new 0 0 57.5 57.5;fill:white" xml:space="preserve">
<g>
	<path style="fill:white;" d="M16.614,40.558c7.705-1.757,15.289-3.982,22.98-5.791l-0.982,10.491
		c-0.159,2.757-1.526,5.992-4.287,5.992H21.341c-2.761,0-4.128-3.235-4.287-5.992L16.614,40.558z M41.412,15.35l0.384-4.108
		c0.159-2.757-1.952-4.992-4.713-4.992h-18.5c-2.761,0-4.872,2.235-4.713,4.992l1.003,10.716
		C23.789,20.023,32.513,17.351,41.412,15.35z M8.333,42.179c0-0.857,0-1.286,0-2.143c0-3.201,0-5.552,0-7.956
		C5.737,32.462,3.395,32.622,0,32.622c2.262,3.016,3.393,4.459,5.656,7.255C3.393,43.114,2.262,44.687,0,47.704
		c5.467,0,8.201-0.413,13.668-1.502c0-1.903,0-3.506,0-4.998c-1.254,0.262-2.508,0.521-3.771,0.746
		C9.272,42.048,8.959,42.094,8.333,42.179z M57.5,22.094c-3.304,0-5.675,0.153-8.167,0.505c0,2.448,0,4.827,0,8.085
		c0,0.857,0,1.286,0,2.143c-0.692,0.093-1.039,0.144-1.731,0.252c-1.578,0.282-3.149,0.596-4.713,0.932c0,1.453,0,3.014,0,4.859
		c5.845-1.217,8.767-1.694,14.611-1.694c-2.263-3.016-3.394-4.459-5.656-7.256C54.107,26.684,55.238,25.11,57.5,22.094z
		 M42.889,32.009c-1.038,0.224-2.07,0.467-3.103,0.71c-7.818,1.833-15.522,4.106-23.354,5.889c-0.919,0.209-1.84,0.408-2.763,0.601
		c-1.11,0.231-2.219,0.467-3.336,0.671c0-3.278,0-5.661,0-8.126c0-2.047,0-4.151,0-6.874c1.582-0.29,3.156-0.611,4.724-0.954
		c8.788-1.924,17.392-4.555,26.164-6.539c2.028-0.459,4.062-0.895,6.112-1.266c0,2.688,0,4.774,0,6.798c0,2.493,0,4.891,0,8.202
		C45.845,31.39,44.365,31.691,42.889,32.009z M20.012,31.665l3.306-2.401h-4.086l-1.262-3.886l-1.263,3.886h-1.15h-2.936l3.15,2.288
		l0.156,0.113l-0.113,0.347l-1.15,3.539l1.387-1.007l1.919-1.394l3.305,2.401L20.012,31.665z M30.709,28.665l3.306-2.401h-4.086
		l-1.263-3.886l-1.262,3.886h-4.086l3.305,2.401l-1.262,3.886l3.305-2.401l3.306,2.401L30.709,28.665z M42.889,29.162l0.535,0.389
		l-0.535-1.646l-0.728-2.24l0.728-0.529l2.575-1.87l0.003-0.002h-4.086l-0.551-1.698l-0.711-2.188l-1.263,3.886H34.77l3.306,2.401
		l-1.263,3.886l3.306-2.401l0.176,0.128L42.889,29.162z"/>
</g>
<g>
</g>
<g>
</g>
<g>
</g>
<g>
</g>
<g>
</g>
<g>
</g>
<g>
</g>
<g>
</g>
<g>
</g>
<g>
</g>
<g>
</g>
<g>
</g>
<g>
</g>
<g>
</g>
<g>
</g>
</svg>
