<svg id="Capa_1" enable-background="new 0 0 511.956 511.956" height="512" viewBox="0 0 511.956 511.956" width="512" xmlns="http://www.w3.org/2000/svg"><g><g><path d="m122.499 302.887 17.053-136.455 104.482 89.545-66.039 66.515z" fill="#fabe2c"/></g><g><path d="m323.763 325.2-59.272-66.277 107.913-92.49 18.687 149.546z" fill="#ff9100"/></g><path d="m441.446 232.819-116.635 34.834-54.902-137.241h-13.931-13.931l-54.902 137.241-116.635-34.834-17.549 21.431 74.023 136.728h128.994 128.994l74.023-136.728z" fill="#fed843"/><path d="m458.995 254.25-17.549-21.431-116.635 34.834-54.902-137.241h-13.931v260.566h128.994z" fill="#fabe2c"/><path d="m255.978 420.978h-165v30h165 165v-30z" fill="#fabe2c"/><path d="m255.978 420.978h165v30h-165z" fill="#ff9100"/><path d="m240.98 300.98h29.997v29.997h-29.997z" fill="#ffa4ff" transform="matrix(.707 -.707 .707 .707 -148.456 273.552)"/><path d="m255.978 294.767v42.422l21.211-21.211z" fill="#fa79f4"/><circle cx="255.978" cy="105.978" fill="#fabe2c" r="45"/><path d="m300.978 105.978c0-24.814-20.186-45-45-45v90c24.814 0 45-20.186 45-45z" fill="#ff9100"/><g><path d="m435.162 257.794c-17.549-17.549-17.549-46.084 0-63.633s46.084-17.549 63.633 0 17.549 46.084 0 63.633c-17.532 17.532-46.084 17.549-63.633 0z" fill="#ff9100"/></g><g><path d="m13.162 257.794c-17.549-17.549-17.549-46.084 0-63.633s46.084-17.549 63.633 0 17.549 46.084 0 63.633c-17.532 17.532-46.084 17.549-63.633 0z" fill="#fabe2c"/></g></g></svg>