<svg id="Filled" height="512" viewBox="0 0 512 512" width="512" xmlns="http://www.w3.org/2000/svg"><path d="m384 56h-224a32 32 0 0 1 32-32h160a32 32 0 0 1 32 32z" fill="#6a7073"/><path d="m384 392a32 32 0 0 1 -32 32h-160a32 32 0 0 1 -32-32z" fill="#6a7073"/><path d="m160 56h224v336h-224z" fill="#e1e3e6"/><path d="m192 120h160v208h-160z" fill="#eb423f"/><g fill="#a3d4f7"><path d="m224 152h32v32h-32z"/><path d="m224 216h32v32h-32z"/><path d="m288 216h32v32h-32z"/><path d="m288 152h32v32h-32z"/><path d="m248 280h48v48h-48z"/></g><path d="m416 288a16 16 0 0 1 16-16 16 16 0 0 1 16 16v100.286l-16 44v55.714h-120v-57.81l-24-41.9v-48c0-22.092 9.909-40 32-40v-100.29a16 16 0 0 1 16-16 16 16 0 0 1 16 16v56a16 16 0 0 1 16-16 16 16 0 0 1 16 16v8a16 16 0 0 1 16-16 16 16 0 0 1 16 16z" fill="#f7cca9"/><circle cx="152" cy="160" fill="#e9eef2" r="72"/><path d="m352 16h-160a40.045 40.045 0 0 0 -40 40v24a80 80 0 0 0 0 160v152a40.045 40.045 0 0 0 40 40h111.817l.183.319v55.681a8 8 0 0 0 8 8h120a8 8 0 0 0 8-8v-54.3l15.519-42.674a8.021 8.021 0 0 0 .481-2.735v-100.291a24 24 0 0 0 -32-22.629v-1.371a23.982 23.982 0 0 0 -32-22.62v-185.38a40.045 40.045 0 0 0 -40-40zm-160 16h160a24.039 24.039 0 0 1 22.624 16h-205.248a24.039 24.039 0 0 1 22.624-16zm-24 32h208v169.381a23.944 23.944 0 0 0 -16-.01v-113.371a8 8 0 0 0 -8-8h-136.044a80.135 80.135 0 0 0 -47.956-30.39zm144 176h-16v-16h16zm8-96h-32a8 8 0 0 0 -8 8v32a8 8 0 0 0 8 8h25.376a23.889 23.889 0 0 0 -1.376 8v8h-24a8 8 0 0 0 -8 8v32a8 8 0 0 0 8 8h24v36.991a37.509 37.509 0 0 0 -8 2.4v-15.391a8 8 0 0 0 -8-8h-48a8 8 0 0 0 -8 8v40h-40v-96.044a80.454 80.454 0 0 0 25.3-31.956h30.7a8 8 0 0 0 8-8v-32a8 8 0 0 0 -8-8h-25.61a79.256 79.256 0 0 0 -5.09-16h118.7v49.376a23.944 23.944 0 0 0 -16 0v-25.376a8 8 0 0 0 -8-8zm-8 16v16h-16v-16zm-24 149.131a46.171 46.171 0 0 0 -5.055 10.869h-26.945v-32h32zm-56-149.131h16v16h-16zm-144 0a64 64 0 1 1 64 64 64.072 64.072 0 0 1 -64-64zm96 73.3v94.7a8 8 0 0 0 8 8h88.122c-.077 1.407-.122 2.833-.122 4.286v43.714h-112v-145.61a79.277 79.277 0 0 0 16-5.09zm8 182.7a24.039 24.039 0 0 1 -22.624-16h116.114l9.163 16zm208-160a8.009 8.009 0 0 1 8 8v72a8 8 0 0 0 16 0v-48a8 8 0 0 1 16 0v98.877l-15.519 42.675a8.02 8.02 0 0 0 -.481 2.734v47.714h-104v-49.81a7.99 7.99 0 0 0 -1.058-3.975l-22.942-40.058v-45.871c0-8.273 1.742-25.968 16-30.766v26.48a8 8 0 0 0 16 0v-32a8.008 8.008 0 0 0 -.225-1.857 8 8 0 0 0 .225-1.857v-100.286a8 8 0 0 1 16 0v109.048a8 8 0 0 0 16 0v-53.048a8 8 0 0 1 16 0v64a8 8 0 0 0 16 0v-56a8.009 8.009 0 0 1 8-8z"/><path d="m256 208h-32a8 8 0 0 0 -8 8v32a8 8 0 0 0 8 8h32a8 8 0 0 0 8-8v-32a8 8 0 0 0 -8-8zm-8 32h-16v-16h16z"/><path d="m189.657 130.343a8 8 0 0 0 -11.314 0l-42.343 42.344-10.343-10.344a8 8 0 0 0 -11.314 11.314l16 16a8 8 0 0 0 11.314 0l48-48a8 8 0 0 0 0-11.314z"/><path d="m256 96h96a8 8 0 0 0 0-16h-96a8 8 0 0 0 0 16z"/><circle cx="224" cy="88" r="8"/><path d="m192 368h32a8 8 0 0 0 0-16h-32a8 8 0 0 0 0 16z"/></svg>