<?xml version="1.0" encoding="utf-8"?>
<!-- Generator: Adobe Illustrator 24.2.0, SVG Export Plug-In . SVG Version: 6.00 Build 0)  -->
<svg version="1.1" id="Layer_1" xmlns="http://www.w3.org/2000/svg" xmlns:xlink="http://www.w3.org/1999/xlink" x="0px" y="0px"
	 viewBox="0 0 900 354.3" style="enable-background:new 0 0 900 354.3;" xml:space="preserve">
<style type="text/css">
	.st0{fill:#77787B;}
	.st1{fill:#DC3D5E;}
	.st2{fill:#FFFFFF;}
	.st3{fill:#DD3E5E;}
</style>
<g>
	<g>
		<path class="st0" d="M572.59,272.13c-1.53-1.53-2.3-3.34-2.3-5.44c0-2.17,0.77-4.01,2.3-5.55c1.53-1.53,3.34-2.3,5.44-2.3
			c2.09,0,3.9,0.77,5.44,2.3c1.53,1.53,2.3,3.38,2.3,5.55c0,2.09-0.75,3.91-2.24,5.44c-1.5,1.53-3.33,2.3-5.49,2.3
			C575.94,274.43,574.13,273.66,572.59,272.13z"/>
		<path class="st0" d="M401.56,248.25c0,3.36-1.21,6.25-3.63,8.68c-2.42,2.43-5.35,4.46-8.79,6.09c-3.44,1.62-7.01,2.81-10.7,3.57
			c-3.7,0.76-6.82,1.14-9.36,1.14c-5.61,0-9.62-0.97-12.04-2.92c-2.42-1.95-3.63-4-3.63-6.17c0-1.84,0.77-3.19,2.29-4.06
			c1.53-0.86,2.87-1.3,4.01-1.3c1.27,0,2.93,0.4,4.97,1.22c2.03,0.81,4.52,1.21,7.45,1.21c3.94,0,6.91-0.51,8.89-1.54
			c1.97-1.03,2.96-2.19,2.96-3.49c0-1.19-0.74-2.19-2.2-3c-1.46-0.81-3.31-1.51-5.54-2.11c-2.23-0.59-4.62-1.19-7.17-1.78
			c-2.55-0.6-4.94-1.35-7.16-2.27c-2.23-0.92-4.08-2.05-5.54-3.41c-1.47-1.35-2.2-3.06-2.2-5.11c0-2.6,0.98-5.36,2.96-8.28
			c1.97-2.92,4.55-5.6,7.74-8.04c3.18-2.44,6.81-4.46,10.89-6.08c4.08-1.62,8.22-2.44,12.42-2.44c3.69,0,6.62,0.89,8.79,2.68
			c2.17,1.79,3.25,4.57,3.25,8.36c0,1.73-0.51,3.35-1.53,4.87c-1.02,1.52-2.87,2.27-5.54,2.27c-1.53,0-2.55-0.35-3.06-1.05
			c-0.51-0.71-0.96-1.46-1.34-2.27c-0.38-0.81-0.89-1.57-1.53-2.27c-0.64-0.7-1.91-1.05-3.82-1.05c-0.77,0-1.85,0.24-3.25,0.73
			c-1.4,0.49-2.84,1.17-4.3,2.03c-1.47,0.87-2.74,1.89-3.82,3.08c-1.08,1.19-1.62,2.49-1.62,3.89c0,1.3,0.76,2.38,2.29,3.25
			c1.53,0.86,3.44,1.68,5.73,2.43c2.29,0.76,4.81,1.46,7.55,2.11c2.74,0.65,5.25,1.46,7.55,2.44c2.29,0.97,4.21,2.14,5.73,3.49
			C400.8,244.5,401.56,246.2,401.56,248.25z"/>
		<path class="st0" d="M486.65,227.37c0,6.08-1.56,11.65-4.68,16.73c-3.12,5.08-7.01,9.52-11.66,13.31
			c-4.65,3.8-9.68,6.86-15.09,9.2c-5.42,2.33-10.41,3.85-15,4.55c-0.26,0-0.57,0.18-0.96,0.52c-0.13,0.23-0.26,0.41-0.38,0.52
			c-0.38,6.89-0.57,14.19-0.57,21.9c0,2.69,0.12,5.26,0.38,7.71c0.25,2.22,0.54,4.49,0.86,6.84c0.32,2.33,0.79,4.32,1.44,5.95
			c0.76,1.98,1.27,3.5,1.53,4.55c0.25,1.05,0.38,1.81,0.38,2.28c0,2.34-0.86,3.94-2.58,4.82c-1.72,0.88-3.15,1.31-4.3,1.31
			c-1.02,0-1.72-0.06-2.1-0.17c-0.39,0-0.64-0.06-0.77-0.18c-2.17-0.7-3.82-2.36-4.97-4.99c-1.15-2.63-1.98-5.4-2.48-8.32
			c-0.51-2.92-0.83-5.61-0.95-8.06c-0.13-2.45-0.19-3.92-0.19-4.38c0-3.97,0-7.45,0-10.43c0-2.97,0.03-5.6,0.1-7.88
			c0.06-2.28,0.13-4.29,0.19-6.05c0.06-1.75,0.1-3.45,0.1-5.08c0-0.12-0.07-0.23-0.19-0.35c-0.26-0.23-0.58-0.41-0.96-0.52
			c-2.55-0.47-4.78-1.23-6.69-2.28c-1.66-0.82-3.15-1.92-4.49-3.33c-1.33-1.4-2-3.09-2-5.08c0-1.87,0.64-3.27,1.91-4.2
			c1.27-0.93,2.42-1.4,3.44-1.4c1.4,0,2.83,0.41,4.3,1.23c1.46,0.82,2.84,1.22,4.11,1.22c0.51,0,0.89-0.18,1.15-0.53
			c0.13-0.12,0.19-0.29,0.19-0.53c0.64-8.29,1.4-15.36,2.29-21.19c0.89-5.84,1.78-10.68,2.67-14.54c0.89-4.43,1.84-8.17,2.86-11.21
			c0.39-0.93,0.95-1.81,1.72-2.63c0.64-0.58,1.53-1.17,2.68-1.75c1.14-0.58,2.61-0.88,4.39-0.88c0.89,0,1.91,0.15,3.06,0.44
			c1.15,0.29,1.72,1.26,1.72,2.89c0,0.23-0.23,1.35-0.67,3.33c-0.45,1.99-0.93,4.23-1.43,6.74c-0.51,2.52-0.99,4.97-1.43,7.36
			c-0.45,2.39-0.67,4.12-0.67,5.17c0,0.47,0.13,0.7,0.38,0.7c0.13,0,0.45-0.29,0.96-0.87c2.29-2.8,5.09-5.25,8.41-7.36
			c2.68-1.87,5.99-3.59,9.94-5.17c3.95-1.57,8.41-2.36,13.38-2.36c2.04,0.23,3.82,0.88,5.35,1.93c1.4,0.93,2.64,2.22,3.73,3.85
			C486.11,222.35,486.65,224.57,486.65,227.37z M471.75,232.81c0-0.93-0.19-1.69-0.58-2.28c-0.38-0.58-0.83-0.99-1.34-1.23
			c-0.51-0.35-1.15-0.53-1.91-0.53c-3.18,0-6.47,1.11-9.84,3.33c-3.38,2.22-6.44,4.85-9.17,7.88c-2.74,3.04-4.97,6.13-6.69,9.28
			c-1.72,3.16-2.58,5.67-2.58,7.54c0,0.7,0.19,1.11,0.57,1.23c0.26,0.12,0.51,0.17,0.77,0.17c3.44,0,6.97-0.93,10.6-2.8
			c3.63-1.87,6.94-4.14,9.93-6.83c2.99-2.69,5.45-5.46,7.36-8.32C470.79,237.39,471.75,234.91,471.75,232.81z"/>
		<path class="st0" d="M534.65,215.89c2.98-0.26,6.9,1.77,8.18,4.13c0.96,1.76,1.88,4.44,0.89,6.74c-0.84,1.95-3.06,2.26-6.2,3.73
			c-3.06,1.43-5.12,1.71-8.32,3.86c-3.21,2.16-5.62,4.41-8.33,6.63c-2.7,2.22-4.55,5.19-6.23,7.73c-1.67,2.54-2.34,5.18-2.01,7.91
			c0.06,0.5,0.4,1.28,1.03,2.34c0.62,1.06,1.91,1.47,3.87,1.23c1.4-0.17,2.92-0.74,4.58-1.7c1.66-0.96,3.18-2.12,4.57-3.49
			c1.64-1.61,2.72-2.34,3.51-3.7c0.93-1.63,1.25-2.35,1.13-4.48c-0.01-0.18-0.28-1.4-0.3-1.53l-0.14-1.12
			c-0.1-0.86-0.17-2.25-0.23-3.49c-0.07-1.4,0.61-2.34,1.47-3.39c0.87-1.05,2.38-2.02,3.68-2.57c1.53-0.65,2.89-0.96,4.42-1.15
			c0.84-0.1,1.66-0.01,2.48,0.27c0.81,0.28,1.3,1.04,1.45,2.28c0.84,3.43,1.88,6.71,3.12,9.83c1.03,2.65,2.34,5.27,3.94,7.85
			c1.59,2.58,3.45,4.5,5.59,5.75c0.79,0.66,1.5,1.26,2.14,1.82c0.49,0.57,1,1.21,1.51,1.9c0.51,0.7,0.81,1.47,0.92,2.34
			c0.18,1.49-0.1,2.69-0.84,3.61c-0.74,0.91-1.64,1.62-2.72,2.13c-1.2,0.65-2.56,1.07-4.1,1.26c-2.52,0.3-4.73-0.09-6.63-1.18
			c-1.91-1.09-3.52-2.37-4.83-3.85c-1.63-1.69-3.01-3.73-4.15-6.12c-0.21-0.61-0.53-0.88-0.95-0.83c-0.28,0.03-0.55,0.19-0.79,0.47
			l-0.38,0.43c-1.83,2.37-3.79,4.34-5.87,5.92c-2.07,1.58-4.12,2.84-6.13,3.78c-2.01,0.94-3.84,1.61-5.5,2
			c-1.65,0.39-3.04,0.66-4.15,0.79c-4.06,0.49-7.35,0.23-9.88-0.78c-2.53-1.01-4.46-2.29-5.79-3.84c-1.33-1.54-2.22-3.13-2.71-4.78
			c-0.49-1.64-0.77-2.84-0.86-3.59c-0.3-2.48-0.11-4.93,0.59-7.35c0.7-2.42,2.14-6.05,3.56-8.3c1.43-2.25,2.3-3.98,3.9-6.22
			c1.73-2.41,1.32-2.31,4.26-5.42c3.79-4,8.89-8.74,14.96-12.79C526.34,218.28,529.15,216.36,534.65,215.89z"/>
		<path class="st0" d="M659.03,208.95c0.58,0.88,0.88,1.86,0.88,2.94c0,0.75-0.21,1.55-0.63,2.38l-26.57,56.01
			c-1.25,2.76-3.18,4.13-5.77,4.13c-1.42,0-2.59-0.31-3.51-0.94c-0.92-0.63-1.76-1.69-2.51-3.19l-26.57-56.01
			c-0.33-0.67-0.5-1.42-0.5-2.26c0-2.26,1.17-3.97,3.51-5.14c0.75-0.42,1.63-0.63,2.63-0.63c1,0,1.96,0.27,2.88,0.81
			c0.92,0.54,1.63,1.32,2.13,2.32l21.8,46.99l21.55-46.99c0.5-1,1.23-1.77,2.19-2.32c0.96-0.54,1.98-0.81,3.07-0.81
			c1.08,0,2.05,0.21,2.88,0.63C657.61,207.39,658.44,208.07,659.03,208.95z"/>
		<path class="st0" d="M717.12,210.31c4.44,2.42,7.92,5.96,10.42,10.6c2.5,4.65,3.76,10.24,3.76,16.78v29.81
			c0,1.78-0.59,3.25-1.76,4.42c-1.17,1.17-2.65,1.76-4.42,1.76c-1.78,0-3.25-0.58-4.42-1.76c-1.17-1.17-1.76-2.64-1.76-4.42V237.7
			c0-6.54-1.76-11.49-5.27-14.84c-3.51-3.35-8.18-5.03-14-5.03c-3.39,0-6.48,0.69-9.27,2.06c-2.79,1.38-4.97,3.23-6.54,5.57
			c-1.58,2.34-2.36,4.97-2.36,7.88v34.17c0,1.78-0.57,3.25-1.7,4.42c-1.13,1.17-2.63,1.76-4.48,1.76c-1.78,0-3.25-0.58-4.42-1.76
			c-1.17-1.17-1.76-2.64-1.76-4.42v-54.04c0-1.86,0.59-3.35,1.76-4.48c1.17-1.13,2.65-1.7,4.42-1.7c1.86,0,3.35,0.57,4.48,1.7
			c1.13,1.13,1.7,2.63,1.7,4.48v1.33c2.58-2.58,5.65-4.58,9.21-6c3.55-1.41,7.35-2.12,11.39-2.12
			C707.67,206.68,712.67,207.89,717.12,210.31z"/>
		<path class="st1" d="M174.57,210.32c-1.46-0.99-3.03-1.65-4.68-1.97c-1.66-0.33-3.13-0.5-4.4-0.5c-2.8,0-5.35,0.38-7.64,1.15
			c-2.29,0.77-4.43,1.81-6.4,3.13c-1.98,1.32-3.72,2.8-5.25,4.45c-1.53,1.65-2.93,3.36-4.21,5.11c-2.93,4.07-5.29,8.68-7.07,13.85
			c0,0.11-0.06,0.16-0.19,0.16c-0.13,0.11-0.32,0.16-0.58,0.16c-1.4-0.22-2.52-0.41-3.34-0.58c-0.83-0.16-1.37-0.25-1.62-0.25
			c-0.89,0-1.62,0.25-2.2,0.74c-0.57,0.5-0.99,1.02-1.25,1.57c-0.38,0.66-0.63,1.43-0.76,2.31c0,1.87,0.41,3.3,1.24,4.28
			c0.83,0.99,1.75,1.76,2.77,2.31c1.27,0.55,2.68,0.93,4.21,1.15c0.25,0,0.5,0.11,0.76,0.33c0.12,0.11,0.19,0.22,0.19,0.33
			c0.13,1.21,0.25,2.25,0.38,3.13c0.13,0.88,0.32,1.65,0.57,2.31l0.58,1.98c1.15,3.19,2.74,5.99,4.78,8.4
			c1.79,2.09,4.11,3.98,6.98,5.69c2.87,1.7,6.47,2.56,10.8,2.56c1.4-0.11,2.67-0.39,3.82-0.82c1.02-0.33,1.94-0.85,2.77-1.57
			c0.83-0.71,1.24-1.79,1.24-3.22c0-0.88-0.35-1.95-1.05-3.21c-0.7-1.26-2.71-2.28-6.02-3.05c-1.66-0.33-3.19-0.99-4.58-1.97
			c-1.15-0.88-2.26-2.03-3.34-3.46c-1.09-1.43-1.75-3.41-2.01-5.93c0-0.11,0.06-0.22,0.19-0.33c0.26-0.22,0.51-0.33,0.77-0.33
			c3.95,0,7.71-0.77,11.27-2.31c3.56-1.54,6.72-3.57,9.46-6.1c2.74-2.53,4.93-5.41,6.59-8.66c1.65-3.24,2.48-6.56,2.48-9.97
			c0-2.75-0.51-5-1.53-6.75C177.27,212.68,176.03,211.31,174.57,210.32z M163.96,229.6c-1.4,1.87-3.06,3.41-4.97,4.62
			c-1.91,1.21-3.79,2.11-5.63,2.72c-1.85,0.61-3.22,0.91-4.11,0.91c-0.51,0-0.76-0.27-0.76-0.82c0-1.65,0.44-3.49,1.34-5.52
			c0.89-2.03,2.07-3.96,3.54-5.77c1.46-1.81,3.05-3.32,4.77-4.53c1.72-1.21,3.35-1.81,4.87-1.81c0.76,0,1.34,0.19,1.72,0.58
			c0.38,0.38,0.7,0.8,0.95,1.23c0.26,0.44,0.38,0.99,0.38,1.65C166.07,225.48,165.36,227.73,163.96,229.6z"/>
		<path class="st1" d="M229.2,211.95c-3-1.62-6.09-2.72-9.27-3.31c-3.19-0.59-5.92-0.89-8.21-0.89c-2.68,0-5.38,0.33-8.12,0.97
			c-2.74,0.65-5.23,1.48-7.45,2.51c-2.23,1.03-4.02,2.24-5.35,3.64c-1.34,1.4-2,2.8-2,4.2c0,1.08,0.57,1.97,1.72,2.67
			c1.15,0.7,2.74,1.05,4.78,1.05c0.13,0,0.25,0.06,0.38,0.16c0.38,0.32,0.57,0.54,0.57,0.65c-1.28,1.83-2.42,3.78-3.44,5.82
			c-0.89,1.83-1.66,3.85-2.29,6.06c-0.64,2.21-0.96,4.55-0.96,7.03c0.25,3.78,1.08,7.11,2.48,10.02c1.27,2.48,3.25,4.74,5.92,6.79
			c2.68,2.04,6.5,3.07,11.47,3.07c3.69,0,7.35-0.67,10.99-2.02c3.63-1.35,6.91-3.34,9.84-5.98c2.93-2.64,5.29-5.93,7.07-9.86
			c1.78-3.93,2.68-8.54,2.68-13.82c0-4.85-1.05-8.78-3.15-11.8C234.74,215.88,232.19,213.56,229.2,211.95z M222.99,242.82
			c-0.64,2.15-1.66,4.12-3.06,5.9c-1.4,1.78-3.38,2.67-5.92,2.67c-2.29,0-4.05-0.54-5.26-1.62c-1.21-1.07-2.1-2.37-2.67-3.88
			c-0.58-1.51-0.89-2.99-0.96-4.44c-0.06-1.45-0.09-2.61-0.09-3.48c0-2.91,0.35-5.49,1.05-7.76c0.7-2.26,1.53-4.15,2.48-5.66
			c0.96-1.51,1.97-2.64,3.06-3.4c1.08-0.75,2-1.13,2.77-1.13c2.55,0,4.49,0.7,5.83,2.1c1.34,1.4,2.32,3.02,2.96,4.85
			c0.76,2.05,1.21,4.42,1.34,7.12C224.26,237.32,223.75,240.23,222.99,242.82z"/>
		<path class="st1" d="M304.13,251.97c-1.28-1.71-2.23-4.01-2.87-6.91c-0.64-2.9-0.96-5.89-0.96-8.96c0-4.43,0.22-7.85,0.67-10.24
			c0.44-2.39,0.67-4.1,0.67-5.12c0-1.94-0.54-3.18-1.62-3.76c-1.08-0.57-2.33-0.85-3.73-0.85c-1.53,0-2.9,0.28-4.11,0.85
			c-1.22,0.57-2.23,1.26-3.06,2.05c-0.83,0.8-1.5,1.62-2.01,2.47c-0.51,0.85-0.76,1.56-0.76,2.13c0,1.03-0.07,2.05-0.19,3.07
			c-0.13,1.03-0.26,1.94-0.38,2.73c-0.13,0.91-0.26,1.76-0.38,2.56c-1.02,4.89-2.36,8.71-4.01,11.44c-1.66,2.73-3.25,4.72-4.78,5.97
			c-1.79,1.48-3.7,2.39-5.73,2.73c-2.55,0-4.33-0.94-5.35-2.81c-1.02-1.88-1.53-4.12-1.53-6.74c0-2.16,0.19-4.44,0.58-6.83
			c0.38-2.39,0.89-4.55,1.53-6.48c0.63-2.28,1.4-4.49,2.29-6.66c1.02-2.16,1.69-3.98,2.01-5.46c0.32-1.48,0.48-2.79,0.48-3.92
			c0-1.48-0.22-2.62-0.67-3.42c-0.45-0.8-0.99-1.39-1.62-1.79c-0.64-0.4-1.31-0.62-2.01-0.68c-0.7-0.06-1.31-0.08-1.82-0.08
			c-2.81,0-5.16,1.05-7.07,3.15c-1.91,2.11-3.47,4.7-4.68,7.77c-1.21,3.07-2.1,6.4-2.67,9.99c-0.58,3.58-0.86,6.8-0.86,9.65
			c0,3.07,0.32,6.31,0.96,9.73c0.64,3.41,1.65,6.57,3.06,9.48c1.4,2.9,3.22,5.32,5.44,7.26c2.23,1.93,4.94,2.9,8.12,2.9
			c0.26,0,1.05-0.08,2.39-0.26c1.34-0.17,2.99-0.68,4.97-1.53c1.97-0.86,4.11-2.22,6.4-4.1c2.29-1.88,4.52-4.53,6.69-7.94
			c0.13,0,0.26-0.06,0.38-0.17c0.26-0.23,0.51-0.34,0.77-0.34c0.25,0,0.38,0.17,0.38,0.52c0,0.23,0.19,0.94,0.57,2.13
			c0.38,1.19,1.02,2.45,1.91,3.75c0.89,1.31,2.07,2.48,3.53,3.5c1.46,1.02,3.28,1.54,5.44,1.54c1.4,0,2.68-0.23,3.83-0.68
			c1.02-0.34,1.88-0.94,2.58-1.79c0.7-0.86,1.05-2.08,1.05-3.67c0-1.25-0.51-2.42-1.53-3.5
			C305.4,253.53,304.63,252.65,304.13,251.97z"/>
		<path class="st1" d="M342.81,266.96c-0.1-1.15-0.45-2.21-1.04-3.18c-0.3-0.49-0.53-0.92-0.69-1.29
			c-2.37-3.77-4.18-8.43-5.43-13.97c-1.25-5.54-2.16-11.56-2.72-18.06c-0.75-8.67-1.02-17.62-0.8-26.89
			c0.22-9.26,0.69-17.77,1.42-25.54c0.62-9.04,1.58-17.85,2.88-26.44l0.09-1.16c-0.12-1.4-0.8-2.21-2.04-2.42
			c-1.23-0.21-2.55-0.26-3.94-0.14c-2.01,0.43-3.59,1.05-4.73,1.85c-1.14,0.81-1.99,1.68-2.55,2.63c-0.67,1.09-1.09,2.22-1.24,3.38
			c-0.93,5.47-1.72,11.45-2.37,17.92c-0.65,6.48-1.16,13.16-1.52,20.06c-0.36,6.9-0.52,13.88-0.48,20.93
			c0.04,7.06,0.35,13.9,0.92,20.53c0.62,7.14,1.61,13.73,2.97,19.77c1.35,6.05,3.29,11.01,5.8,14.9c0.72,0.96,1.5,1.79,2.33,2.49
			c0.69,0.58,1.53,1.08,2.53,1.51c1,0.43,2.12,0.59,3.4,0.48c2.66-0.23,4.56-1.23,5.68-3C342.39,269.56,342.91,268.11,342.81,266.96
			z"/>
		<path class="st1" d="M145.89,281.74c-5.38-1.14-17.31-1.31-26.13-1.51c-2.27-10.57-9.08-21.3-30.02-25.12
			c-28.73-5.24-44.73-14.38-52.34-23.86c-5.09-6.34-9.68-17.65-6.75-31.96c1.74-8.54,7.58-18.04,15.76-25.5l-0.02-0.02
			c0,0,0.1-0.08,0.24-0.19c17.84-14.18,34.64-15.38,41.56-14.98c4.13,0,8.49,0.7,13.21,2.82c2.25,1.02,4.69,2.35,6.81,4.1
			c0,0,0.01,0,0.01,0.01c0,0,0,0,0,0c4.1,3.38,7,8.36,5.04,15.87c-1.45,5.55-6.26,8.32-8.47,9.78c-0.98,1.28-0.46,3.82,1.4,4.08
			c5.55-0.22,9.36-2.73,11.64-4.79c3.63-3.3,5.25-5.12,6.2-9.04c0.61-2.53,1.37-7.72,0.97-10.1c-4.28-25.09-32.23-31.34-44.22-30.86
			c-10.63,0.43-23.71,2.32-40.88,12.87c-38,23.35-34.9,58.57-26.47,78.71c6.92,16.51,23.15,30.67,46.78,36.24
			c19,2.99,30.09,6.84,35.58,11.68c-52.61,2.66-63.25,18.74-68.07,26.95c-1,1.69-3.81,9.45-2.33,15.57
			c2.52,10.42,9.52,17.4,23.03,18.91c8.11,0.91,22.51-1.33,34.42-7.3c24.44-13.41,38.62-29.56,38.02-44.44
			c-0.03-0.62-0.06-1.25-0.1-1.88c7.77-0.12,15.93-0.05,24.6,0.16C153.13,288.13,156.58,284.01,145.89,281.74z M62.1,322.78
			c-1.72,0.54-3.29,0.95-4.76,1.3c-7.17,1.71-13.6,0.15-16.1-4.41c-1.11-2.02-4.5-9.61,7.49-16.87c7.43-4.5,17.75-9.83,38.84-12.74
			c4.07-0.56,8.25-1,12.55-1.34c0,0.07,0.01,0.14,0.01,0.21C96.31,309.47,62.69,322.55,62.1,322.78z"/>
	</g>
	<g>
		<circle class="st1" cx="825.2" cy="207.68" r="66.75"/>
		<g>
			<path class="st2" d="M834.58,214.26c-1.6-0.86-2.46-1.56-2.46-1.56c5.97-32.68-14.27-50.88-14.27-50.88s0,0-0.01,0.01
				c-0.44,0.33-14.37,10.89-14.71,28.7c0,0,0,0,0,0c-0.01,0.3-0.01,0.59-0.02,0.88v0.08c0,2.92,0.41,5.7,1.13,8.33
				c0.01,0.05,0.02,0.09,0.04,0.14c1.42,5.63,4.63,13.04,12.03,19.65c1.65,1.48,3.51,2.91,5.6,4.28c0,0,0,0,0-0.01
				c-10.5-19.53-6.16-33.93-6.16-33.93c-0.78,21.46,11.22,34.71,11.22,34.71c9.89,2.59,19.96-2.52,20.31-2.7
				c-8.98,6.61-19.27,5.53-19.27,5.53c0.39,0.21,0.76,0.41,1.14,0.6c0.04,0.02,0.07,0.04,0.11,0.06c7.77,3.93,12.81,3.82,13.68,3.84
				c19.7-1.09,20.76-19.71,20.76-19.71C851.03,221.38,839.47,216.96,834.58,214.26z"/>
			<g>
				<path class="st2" d="M786.71,214.51c0,0,38.62-6.33,40.97,39.03C827.67,253.55,821.36,222.82,786.71,214.51z"/>
			</g>
		</g>
	</g>
	<g>
		<path class="st3" d="M711.64,118.65h-567.5c-10.84,0-19.65-8.82-19.65-19.65V32.35c0-10.84,8.82-19.65,19.65-19.65h567.5
			c10.84,0,19.65,8.82,19.65,19.65v66.64C731.29,109.83,722.48,118.65,711.64,118.65z"/>
		<g>
			<path class="st2" d="M200.23,49.58c0.74,0.7,1.15,1.7,1.1,2.72c0.05,1.02-0.36,2-1.1,2.69c-0.78,0.69-1.81,1.06-2.85,1.01h-10.19
				v33.99c0.04,1.09-0.42,2.14-1.23,2.86c-0.83,0.76-1.91,1.17-3.03,1.14c-1.13,0.05-2.22-0.36-3.03-1.14
				c-0.77-0.73-1.2-1.75-1.17-2.81V56h-10.14c-1.05,0.06-2.07-0.31-2.85-1.01c-0.74-0.7-1.15-1.7-1.1-2.72
				c-0.03-1.01,0.38-1.98,1.13-2.66c0.78-0.69,1.79-1.05,2.82-1.01h28.8C198.42,48.55,199.44,48.9,200.23,49.58z M247.53,48.54
				c-1.06-0.01-2.09,0.4-2.85,1.14c-0.8,0.71-1.25,1.74-1.23,2.81v14.92h-20.69V52.49c0.02-1.06-0.4-2.08-1.17-2.81
				c-0.73-0.74-1.74-1.15-2.78-1.14c-1.13-0.05-2.22,0.36-3.03,1.14c-0.76,0.74-1.17,1.76-1.13,2.81v37.55
				c-0.03,1.05,0.38,2.07,1.13,2.81c0.76,0.76,1.81,1.18,2.88,1.14c1.06,0.01,2.09-0.4,2.85-1.14c0.82-0.72,1.27-1.77,1.23-2.86
				V74.88h20.69v15.16c-0.02,1.06,0.4,2.08,1.16,2.81c0.74,0.74,1.74,1.16,2.79,1.14c1.11,0.04,2.19-0.37,2.98-1.14
				c0.78-0.74,1.21-1.78,1.17-2.86v-37.5c0.04-1.06-0.36-2.09-1.1-2.85C249.65,48.9,248.6,48.5,247.53,48.54z M303.37,88.88
				l-15.96-38.01c-0.27-0.78-0.78-1.45-1.46-1.91c-0.64-0.44-1.4-0.68-2.17-0.68c-0.82-0.1-1.65,0.1-2.34,0.58
				c-0.71,0.5-1.25,1.21-1.55,2.02l-16.18,38.78c-0.12,0.4-0.19,0.82-0.19,1.23c-0.06,0.89,0.24,1.76,0.83,2.42
				c1.21,1.36,3.3,1.48,4.66,0.27c0.65-0.48,1.14-1.14,1.39-1.91l3.39-7.92h19.33l3.37,7.86c0.3,0.77,0.81,1.44,1.46,1.94
				c0.6,0.47,1.35,0.72,2.11,0.72c0.95,0,1.86-0.39,2.53-1.07c0.74-0.73,1.14-1.73,1.1-2.76C303.67,89.9,303.57,89.38,303.37,88.88z
				 M292.17,42.42l-4.05-4.66c-0.49-0.6-1.09-1.09-1.78-1.44c-0.68-0.31-1.43-0.46-2.17-0.45h-1.01c-0.76-0.02-1.51,0.13-2.21,0.45
				c-0.67,0.36-1.27,0.84-1.75,1.44l-4.05,4.66c-0.3,0.3-0.57,0.64-0.78,1.01c-0.14,0.28-0.21,0.6-0.2,0.91
				c0.03,0.43,0.24,0.84,0.59,1.1c0.39,0.34,0.9,0.53,1.43,0.52c0.5-0.03,0.99-0.18,1.43-0.42c0.58-0.29,1.21-0.63,1.88-1.01
				l4.19-2.47l4.22,2.47c0.88,0.52,1.55,0.88,2.02,1.1c0.41,0.2,0.85,0.31,1.3,0.32c0.52,0.01,1.03-0.17,1.43-0.52
				c0.34-0.27,0.55-0.67,0.58-1.1c0.01-0.31-0.06-0.63-0.19-0.91C292.79,43.05,292.5,42.71,292.17,42.42z M283.38,61.13l6.54,15.17
				h-12.97L283.38,61.13z M291.29,28.34c-0.84,0.37-1.63,0.85-2.34,1.44c-0.61,0.47-0.98,1.18-1.01,1.94c0,0.51,0.21,1.01,0.58,1.37
				c0.41,0.49,1,0.79,1.63,0.84c0.36-0.04,0.71-0.18,1.01-0.38c0.57-0.34,1.04-0.62,1.43-0.81c0.4-0.2,0.85-0.3,1.3-0.29
				c0.56-0.01,1.1,0.16,1.55,0.49c0.42,0.29,0.66,0.76,0.66,1.26c-0.27,1.04-0.79,2-1.52,2.79c-0.6,0.71-0.96,1.6-1.01,2.53
				c-0.03,0.45,0.18,0.88,0.55,1.13c0.38,0.24,0.82,0.36,1.26,0.35c0.65,0.02,1.29-0.1,1.88-0.35c0.45-0.19,0.73-0.64,0.72-1.13
				c0.01-0.25,0.09-0.5,0.22-0.72c0.21-0.36,0.45-0.7,0.72-1.01c0.32-0.39,0.53-0.65,0.61-0.78c0.4-0.5,0.71-1.05,0.94-1.65
				c0.21-0.59,0.31-1.22,0.29-1.85c0.01-1.45-0.53-2.86-1.52-3.92c-1.03-1.15-2.74-1.72-5.16-1.72
				C293.12,27.83,292.18,27.99,291.29,28.34L291.29,28.34z M355.1,48.48c-0.63,0-1.24,0.17-1.78,0.49c-0.56,0.3-1.04,0.74-1.4,1.26
				L337.4,71.96l-14.16-21.73c-0.38-0.55-0.9-0.98-1.5-1.26c-0.6-0.31-1.27-0.48-1.94-0.49c-1.08-0.02-2.12,0.4-2.88,1.16
				c-0.77,0.71-1.21,1.7-1.21,2.75v37.65c-0.04,1.03,0.32,2.04,1.01,2.81c0.69,0.74,1.66,1.14,2.67,1.09
				c1.03,0.04,2.02-0.36,2.73-1.1c0.69-0.78,1.06-1.81,1.01-2.85V63.27l10.7,16.92c0.42,0.51,0.93,0.94,1.5,1.26
				c0.51,0.31,1.1,0.46,1.69,0.42c0.61,0.04,1.22-0.11,1.75-0.42c0.57-0.33,1.07-0.76,1.49-1.26l10.7-16.34V90
				c-0.04,1.07,0.37,2.1,1.13,2.85c0.79,0.74,1.85,1.14,2.93,1.09c0.11,0.01,0.21,0.01,0.32,0c2.12-0.06,3.79-1.84,3.73-3.96v-37.6
				c0.01-1.06-0.43-2.07-1.2-2.78C357.13,48.89,356.14,48.48,355.1,48.48z M439.34,48.44c-0.63,0-1.24,0.17-1.78,0.49
				c-0.56,0.3-1.04,0.74-1.4,1.26l-14.53,21.73l-14.16-21.73c-0.38-0.55-0.9-0.98-1.5-1.26c-0.6-0.31-1.27-0.48-1.94-0.49
				c-1.08-0.02-2.12,0.4-2.88,1.16c-0.78,0.72-1.22,1.73-1.2,2.79v37.65c-0.04,1.03,0.32,2.04,1.01,2.81
				c0.69,0.74,1.66,1.14,2.67,1.09c1.03,0.04,2.02-0.36,2.73-1.1c0.69-0.78,1.06-1.81,1.01-2.85V63.27l10.69,16.92
				c0.42,0.51,0.93,0.94,1.51,1.26c0.51,0.31,1.1,0.46,1.69,0.42c0.61,0.04,1.22-0.11,1.75-0.42c0.57-0.33,1.07-0.76,1.49-1.26
				l10.7-16.34V90c-0.04,1.07,0.37,2.1,1.13,2.85c0.8,0.75,1.88,1.15,2.97,1.09c0.11,0.01,0.21,0.01,0.32,0
				c2.12-0.06,3.79-1.84,3.73-3.96v-37.6c0-1.06-0.45-2.07-1.24-2.78C441.38,48.87,440.39,48.45,439.34,48.44z M492.35,52.39
				c0.03-1.08-0.4-2.12-1.16-2.87c-0.71-0.75-1.7-1.18-2.73-1.17c-1.34,0.05-2.56,0.78-3.24,1.94l-10.7,15.64L463.1,50.17
				c-0.69-1.09-1.88-1.78-3.18-1.82c-1.05,0.03-2.05,0.44-2.82,1.15c-0.85,0.69-1.34,1.73-1.33,2.82c0.04,1.11,0.45,2.18,1.16,3.03
				l13.49,17.89v16.79c-0.03,1.05,0.38,2.07,1.13,2.81c0.72,0.75,1.72,1.16,2.75,1.14c1.01,0.01,1.98-0.4,2.66-1.14
				c0.75-0.76,1.15-1.8,1.1-2.86V74.16l13.55-19.39C492.1,54.06,492.35,53.24,492.35,52.39z M462.71,44.94
				c0.59,0.8,1.52,1.27,2.52,1.27c0.63,0.02,1.24-0.2,1.72-0.62c0.46-0.43,0.71-1.03,0.68-1.66c0.01-0.31-0.03-0.62-0.13-0.91
				c-0.16-0.34-0.08-0.75,0.19-1.01c0.3-0.27,0.7-0.41,1.1-0.38c0.52,0.02,1.03,0.14,1.5,0.35c0.56,0.23,1.31,0.62,2.27,1.13
				c1.61,0.82,2.96,1.45,4.05,1.88c1.11,0.44,2.3,0.66,3.5,0.65c1.19,0.03,2.35-0.29,3.35-0.94c0.88-0.58,1.61-1.37,2.1-2.3
				c0.45-0.8,0.69-1.69,0.72-2.6c0.05-1.15-0.31-2.29-1.01-3.21c-0.59-0.8-1.53-1.27-2.53-1.26c-0.63-0.03-1.25,0.2-1.72,0.62
				c-0.46,0.42-0.71,1.03-0.68,1.65c-0.02,0.31,0.03,0.62,0.13,0.91c0.15,0.35,0.07,0.75-0.2,1.01c-0.3,0.28-0.7,0.42-1.1,0.39
				c-0.51-0.02-1.01-0.16-1.46-0.39c-0.54-0.26-1.26-0.65-2.17-1.16c-1.13-0.67-2.3-1.28-3.5-1.82c-1-0.44-2.08-0.66-3.18-0.65
				c-1.91-0.1-3.79,0.53-5.26,1.75c-1.18,0.98-1.87,2.42-1.89,3.96C461.63,42.8,461.99,43.98,462.71,44.94L462.71,44.94z
				 M562.36,48.42c-0.72,0.01-1.43,0.24-2.02,0.65c-0.66,0.44-1.18,1.07-1.49,1.81l-11.94,30.68l-13.04-30.68
				c-0.3-0.76-0.82-1.42-1.5-1.88c-0.6-0.41-1.3-0.63-2.02-0.65c-0.99,0.03-1.93,0.41-2.66,1.07c-0.85,0.69-1.33,1.73-1.29,2.82
				c-0.02,0.56,0.09,1.11,0.32,1.62l16.02,37.66c0.3,0.72,0.81,1.34,1.46,1.78c1.28,0.89,2.97,0.89,4.25,0
				c0.71-0.45,1.28-1.11,1.62-1.88l16.02-37.49c0.25-0.55,0.39-1.15,0.39-1.76c0.01-1.02-0.43-1.99-1.2-2.65
				C564.49,48.78,563.44,48.38,562.36,48.42z M587.93,89.99v-37.5c0.02-1.06-0.4-2.08-1.17-2.81c-0.74-0.74-1.74-1.16-2.79-1.14
				c-1.13-0.05-2.22,0.36-3.03,1.14c-0.76,0.74-1.17,1.76-1.13,2.81v37.55c-0.03,1.05,0.38,2.07,1.13,2.81
				c0.76,0.76,1.8,1.17,2.87,1.14c1.06,0,2.09-0.41,2.85-1.14C587.49,92.14,587.95,91.09,587.93,89.99z M629.79,86.48h-17.58V74.52
				h14.66c1.05,0.04,2.07-0.32,2.85-1.01c0.74-0.67,1.14-1.63,1.1-2.63c0.04-1.04-0.38-2.04-1.13-2.75
				c-0.76-0.72-1.78-1.1-2.82-1.07h-14.66V56.02h17.58c1.05,0.04,2.07-0.32,2.85-1.01c0.73-0.67,1.14-1.63,1.1-2.62
				c0.04-1.05-0.38-2.06-1.13-2.78c-0.76-0.71-1.78-1.1-2.82-1.07h-21.73c-0.05,0-0.1,0-0.14,0c-2.14,0.04-3.85,1.81-3.81,3.96
				v37.47c0,0.05,0,0.1,0,0.14c0.04,2.14,1.81,3.85,3.96,3.81h21.73c1.04,0.04,2.05-0.33,2.82-1.01c0.75-0.68,1.16-1.65,1.13-2.66
				c0-0.99-0.41-1.94-1.13-2.62C631.87,86.87,630.84,86.46,629.79,86.48z M627.55,42.38l-4.05-4.66c-0.49-0.6-1.1-1.09-1.79-1.44
				c-0.68-0.31-1.42-0.46-2.16-0.45h-1.01c-0.76-0.02-1.51,0.13-2.21,0.45c-0.71,0.36-1.34,0.86-1.84,1.48l-4.05,4.66
				c-0.3,0.3-0.56,0.64-0.78,1.01c-0.14,0.28-0.2,0.6-0.19,0.91c0.02,0.43,0.23,0.84,0.58,1.1c0.39,0.34,0.9,0.53,1.43,0.52
				c0.5-0.03,1-0.18,1.44-0.42c0.58-0.29,1.21-0.63,1.88-1.01l4.21-2.47l4.22,2.47c0.88,0.52,1.55,0.88,2.02,1.1
				c0.4,0.2,0.85,0.31,1.29,0.32c0.52,0.02,1.04-0.17,1.43-0.52c0.35-0.26,0.56-0.67,0.59-1.1c0.01-0.31-0.06-0.63-0.19-0.91
				C628.13,43.04,627.86,42.69,627.55,42.38z M617.66,103.48c1.12,0.09,2.25-0.14,3.24-0.68c0.74-0.63,1.12-1.59,1.01-2.56V99
				c0.11-0.94-0.22-1.87-0.9-2.53c-1-0.58-2.16-0.83-3.31-0.72c-1.05-0.08-2.09,0.18-2.98,0.72c-0.73,0.63-1.11,1.57-1.01,2.53v1.23
				c-0.11,0.94,0.22,1.87,0.9,2.53C615.52,103.32,616.59,103.57,617.66,103.48z M682.08,48.57c-0.96-0.04-1.89,0.33-2.56,1.01
				c-0.68,0.69-1.04,1.62-1.01,2.59v27.88l-23.61-30.1c-0.36-0.46-0.84-0.81-1.39-1.01c-0.6-0.26-1.25-0.39-1.91-0.39
				c-0.04,0-0.07,0-0.11,0c-2.16,0.03-3.88,1.8-3.85,3.96v37.82c-0.02,0.96,0.35,1.89,1.01,2.59c0.66,0.69,1.59,1.05,2.54,1.01
				c0.98,0.05,1.93-0.32,2.62-1.01c0.67-0.69,1.04-1.63,1.01-2.59v-27.7l23.8,30.28c0.33,0.39,0.77,0.68,1.26,0.81
				c0.57,0.19,1.18,0.29,1.78,0.29c1.06,0.02,2.08-0.39,2.82-1.14c0.78-0.74,1.21-1.79,1.17-2.86V52.17
				c0.02-0.96-0.35-1.89-1.01-2.59C683.98,48.89,683.05,48.52,682.08,48.57z"/>
		</g>
	</g>
</g>
</svg>
