<svg id="Group_174" data-name="Group 174" xmlns="http://www.w3.org/2000/svg" width="202" height="56.032" viewBox="0 0 202 56.032">
  <g id="Group_2" data-name="Group 2" transform="translate(143.877 0.05)">
    <path id="Path_1" data-name="Path 1" d="M240.2,298.976a4.27,4.27,0,0,1-.635-.4,14.512,14.512,0,0,0-3.681-13.125l0,0a10.144,10.144,0,0,0-3.794,7.4h0c0,.077,0,.153,0,.229v.019a8.146,8.146,0,0,0,.29,2.148l.01.037a10,10,0,0,0,3.1,5.069,11.774,11.774,0,0,0,1.444,1.1l0,0c-2.709-5.037-1.589-8.753-1.589-8.753a13.4,13.4,0,0,0,2.893,8.955,8.272,8.272,0,0,0,5.239-.7,7.8,7.8,0,0,1-4.972,1.426c.1.054.2.1.293.154l.029.014a7.737,7.737,0,0,0,3.528.991,5.472,5.472,0,0,0,5.355-5.083A6.78,6.78,0,0,1,240.2,298.976Z" transform="translate(-227.85 -285.448)" fill="#d1264b"/>
    <g id="Group_1" data-name="Group 1" transform="translate(0 13.516)">
      <path id="Path_2" data-name="Path 2" d="M227.882,298.938s9.962-1.632,10.568,10.069A14.006,14.006,0,0,0,227.882,298.938Z" transform="translate(-227.882 -298.86)" fill="#d1264b"/>
    </g>
  </g>
  <path id="Path_3" data-name="Path 3" d="M241.665,321.688a2,2,0,0,1-.621-1.468,2.041,2.041,0,0,1,.621-1.5,2.047,2.047,0,0,1,2.936,0,2.1,2.1,0,0,1,.015,2.967,2.065,2.065,0,0,1-2.952,0Z" transform="translate(-83.903 -285.145)" fill="#636568"/>
  <path id="Path_4" data-name="Path 4" d="M132.791,307.746a6.051,6.051,0,0,1-.691,2.777,8.583,8.583,0,0,1-1.837,2.412,9.3,9.3,0,0,1-2.634,1.7,7.855,7.855,0,0,1-3.14.642.331.331,0,0,0-.214.092.127.127,0,0,0-.052.093,3.222,3.222,0,0,0,.559,1.652,4.992,4.992,0,0,0,.931.964,3.305,3.305,0,0,0,1.277.55q1.385.324,1.677.85a1.944,1.944,0,0,1,.292.895,1.121,1.121,0,0,1-.347.9,2.213,2.213,0,0,1-.771.435,3.831,3.831,0,0,1-1.064.23,5.813,5.813,0,0,1-3.007-.712,7.662,7.662,0,0,1-1.943-1.584,7.522,7.522,0,0,1-1.33-2.341l-.16-.551a2.922,2.922,0,0,1-.16-.643c-.035-.244-.072-.535-.106-.872a.132.132,0,0,0-.053-.093.325.325,0,0,0-.212-.091,4.618,4.618,0,0,1-1.172-.322,2.653,2.653,0,0,1-.772-.643,1.813,1.813,0,0,1-.346-1.194,1.791,1.791,0,0,1,.212-.643,1.328,1.328,0,0,1,.348-.436.9.9,0,0,1,.612-.207,3.119,3.119,0,0,1,.452.069c.23.046.54.1.931.16a.245.245,0,0,0,.16-.044c.034,0,.052-.015.052-.046a14.8,14.8,0,0,1,1.969-3.857,15.209,15.209,0,0,1,1.172-1.424,8.149,8.149,0,0,1,1.462-1.238,7.457,7.457,0,0,1,1.784-.873,6.681,6.681,0,0,1,2.128-.322,6.309,6.309,0,0,1,1.225.138,3.562,3.562,0,0,1,1.3.55,3.468,3.468,0,0,1,1.038,1.149A3.732,3.732,0,0,1,132.791,307.746Zm-3.832.46a.9.9,0,0,0-.107-.46,1.66,1.66,0,0,0-.265-.344.647.647,0,0,0-.48-.161,2.389,2.389,0,0,0-1.356.5,6.548,6.548,0,0,0-1.33,1.263,7,7,0,0,0-.986,1.607,3.884,3.884,0,0,0-.372,1.538c0,.153.069.23.212.23a4.124,4.124,0,0,0,1.146-.253,7.033,7.033,0,0,0,1.569-.758,5.157,5.157,0,0,0,1.384-1.286A3.044,3.044,0,0,0,128.959,308.205Z" transform="translate(-84.857 -285.254)" fill="#d1264b"/>
  <path id="Path_5" data-name="Path 5" d="M149.464,310.393a9.265,9.265,0,0,1-.746,3.85,8.206,8.206,0,0,1-1.97,2.747,8.475,8.475,0,0,1-2.741,1.667,8.77,8.77,0,0,1-3.059.561,5.179,5.179,0,0,1-3.194-.855,5.688,5.688,0,0,1-1.65-1.891,7.533,7.533,0,0,1-.691-2.792,6.964,6.964,0,0,1,.266-1.958,10.321,10.321,0,0,1,.639-1.688,12.771,12.771,0,0,1,.957-1.622c0-.028-.052-.09-.16-.179a.169.169,0,0,0-.106-.045,2.547,2.547,0,0,1-1.33-.292.858.858,0,0,1-.479-.744,1.716,1.716,0,0,1,.558-1.17,4.805,4.805,0,0,1,1.49-1.013,10.891,10.891,0,0,1,2.075-.7,9.824,9.824,0,0,1,2.263-.271,12.769,12.769,0,0,1,2.288.249,8.766,8.766,0,0,1,2.583.923,6.15,6.15,0,0,1,2.128,1.936A5.64,5.64,0,0,1,149.464,310.393Zm-4.312.945a6.563,6.563,0,0,0-.373-1.982,3.683,3.683,0,0,0-.825-1.35,2.141,2.141,0,0,0-1.622-.585,1.436,1.436,0,0,0-.772.314,3.243,3.243,0,0,0-.852.946,6.6,6.6,0,0,0-.692,1.575,7.3,7.3,0,0,0-.292,2.162q0,.361.025.968a3.993,3.993,0,0,0,.267,1.238,2.706,2.706,0,0,0,.745,1.08,2.132,2.132,0,0,0,1.465.45,1.98,1.98,0,0,0,1.649-.743,4.875,4.875,0,0,0,.853-1.644A12.034,12.034,0,0,0,145.152,311.338Z" transform="translate(-84.721 -285.254)" fill="#d1264b"/>
  <path id="Path_6" data-name="Path 6" d="M168.307,318.031a1.445,1.445,0,0,1-1.011,1.522,2.891,2.891,0,0,1-1.066.191,2.586,2.586,0,0,1-1.516-.428,3.781,3.781,0,0,1-.985-.977,4.09,4.09,0,0,1-.533-1.045,3.43,3.43,0,0,1-.159-.595c0-.095-.036-.143-.106-.143a.322.322,0,0,0-.214.1.161.161,0,0,1-.107.047,9.22,9.22,0,0,1-1.862,2.211,7.8,7.8,0,0,1-1.784,1.142,5.346,5.346,0,0,1-1.384.427c-.372.048-.595.07-.665.07a3.334,3.334,0,0,1-2.262-.806,6.236,6.236,0,0,1-1.517-2.021,10.436,10.436,0,0,1-.852-2.639,14.723,14.723,0,0,1-.266-2.711,17.132,17.132,0,0,1,.239-2.687A13.374,13.374,0,0,1,153,306.9a7.05,7.05,0,0,1,1.305-2.164,2.556,2.556,0,0,1,1.969-.879c.141,0,.31.008.507.023a1.273,1.273,0,0,1,.558.19,1.381,1.381,0,0,1,.452.5,1.976,1.976,0,0,1,.186.951,5.283,5.283,0,0,1-.134,1.093,7.384,7.384,0,0,1-.558,1.521,16.109,16.109,0,0,0-.639,1.855,11.619,11.619,0,0,0-.425,1.806,12.043,12.043,0,0,0-.16,1.9,3.866,3.866,0,0,0,.426,1.878,1.547,1.547,0,0,0,1.49.784,3.336,3.336,0,0,0,1.6-.761,6.556,6.556,0,0,0,1.33-1.664,10.326,10.326,0,0,0,1.119-3.186c.034-.222.07-.458.106-.712.035-.223.071-.476.107-.761a7.185,7.185,0,0,0,.053-.857,1.233,1.233,0,0,1,.212-.594,3.3,3.3,0,0,1,.559-.688,3.184,3.184,0,0,1,.852-.571,2.663,2.663,0,0,1,1.145-.237,2.2,2.2,0,0,1,1.038.237c.3.16.452.508.452,1.047a9.012,9.012,0,0,1-.186,1.426,16.5,16.5,0,0,0-.186,2.853,11.625,11.625,0,0,0,.266,2.5,4.97,4.97,0,0,0,.8,1.926,8.9,8.9,0,0,0,.638.737A1.4,1.4,0,0,1,168.307,318.031Z" transform="translate(-84.591 -285.255)" fill="#d1264b"/>
  <path id="Path_7" data-name="Path 7" d="M176.141,288.487q-.541,3.588-.8,7.364-.307,3.244-.4,7.115a68.115,68.115,0,0,0,.223,7.489,37.949,37.949,0,0,0,.759,5.03,12.379,12.379,0,0,0,1.514,3.892,2.95,2.95,0,0,0,.191.36,2,2,0,0,1,.291.885,2.1,2.1,0,0,1-.429,1.217,2.246,2.246,0,0,1-2.529.7,2.839,2.839,0,0,1-.7-.421,4.166,4.166,0,0,1-.648-.694,12.764,12.764,0,0,1-1.616-4.151,41.561,41.561,0,0,1-.826-5.506q-.239-2.768-.257-5.718t.134-5.831q.15-2.881.422-5.588t.661-4.992a2.349,2.349,0,0,1,.346-.942,2.4,2.4,0,0,1,.709-.733,3.66,3.66,0,0,1,1.319-.516,4.325,4.325,0,0,1,1.1.038.659.659,0,0,1,.567.674Z" transform="translate(-84.445 -285.382)" fill="#d1264b"/>
  <path id="Path_8" data-name="Path 8" d="M194.256,315.282a3.309,3.309,0,0,1-1.012,2.419,8.55,8.55,0,0,1-2.448,1.7,13.12,13.12,0,0,1-2.98.995,13.428,13.428,0,0,1-2.608.317,5.391,5.391,0,0,1-3.354-.814,2.257,2.257,0,0,1-1.012-1.718,1.21,1.21,0,0,1,.639-1.13,2.364,2.364,0,0,1,1.118-.362,3.959,3.959,0,0,1,1.385.34,5.621,5.621,0,0,0,2.076.339,5.539,5.539,0,0,0,2.475-.43q.825-.429.824-.972a.979.979,0,0,0-.613-.836,6.888,6.888,0,0,0-1.543-.587q-.931-.248-2-.5a12.852,12.852,0,0,1-2-.633,5.124,5.124,0,0,1-1.544-.95,1.855,1.855,0,0,1-.612-1.423,4.153,4.153,0,0,1,.825-2.306,9.571,9.571,0,0,1,2.156-2.238,12.627,12.627,0,0,1,3.033-1.7,9.272,9.272,0,0,1,3.46-.679,3.739,3.739,0,0,1,2.449.746,2.849,2.849,0,0,1,.9,2.329,2.39,2.39,0,0,1-.425,1.356,1.725,1.725,0,0,1-1.543.633,1,1,0,0,1-.852-.293,3.929,3.929,0,0,1-.374-.634,2.575,2.575,0,0,0-.425-.633,1.438,1.438,0,0,0-1.064-.293,3.007,3.007,0,0,0-.9.2,6.664,6.664,0,0,0-1.2.566,4.522,4.522,0,0,0-1.063.859,1.578,1.578,0,0,0-.452,1.084,1.045,1.045,0,0,0,.638.9,8.906,8.906,0,0,0,1.6.678q.957.318,2.1.589a12.989,12.989,0,0,1,2.1.678,5.825,5.825,0,0,1,1.6.97A1.822,1.822,0,0,1,194.256,315.282Z" transform="translate(-84.368 -285.253)" fill="#636568"/>
  <path id="Path_9" data-name="Path 9" d="M217.887,309.518a8.735,8.735,0,0,1-1.3,4.661,14.648,14.648,0,0,1-3.248,3.708,17.693,17.693,0,0,1-4.2,2.562,17.244,17.244,0,0,1-4.178,1.269.447.447,0,0,0-.266.146.6.6,0,0,1-.107.146q-.159,2.88-.159,6.1a20.332,20.332,0,0,0,.107,2.146q.1.927.239,1.9a7.252,7.252,0,0,0,.4,1.659,11.286,11.286,0,0,1,.425,1.268,3.182,3.182,0,0,1,.106.635,1.37,1.37,0,0,1-.718,1.342,2.785,2.785,0,0,1-1.2.366,2.4,2.4,0,0,1-.585-.048.325.325,0,0,1-.213-.049,2.31,2.31,0,0,1-1.384-1.391,10.149,10.149,0,0,1-.692-2.317,18.977,18.977,0,0,1-.266-2.245c-.036-.683-.053-1.091-.053-1.22v-2.9q0-1.243.027-2.195c.017-.635.035-1.2.052-1.684s.027-.96.027-1.415a.136.136,0,0,0-.053-.1.677.677,0,0,0-.267-.146,6.152,6.152,0,0,1-1.862-.635,4.424,4.424,0,0,1-1.251-.927,1.974,1.974,0,0,1-.558-1.415,1.36,1.36,0,0,1,.532-1.171,1.681,1.681,0,0,1,.958-.391,2.45,2.45,0,0,1,1.2.343,2.371,2.371,0,0,0,1.145.342.37.37,0,0,0,.319-.147.188.188,0,0,0,.053-.146q.266-3.463.639-5.9t.745-4.051a26.157,26.157,0,0,1,.8-3.122,2.4,2.4,0,0,1,.48-.733,3.368,3.368,0,0,1,.745-.488,2.7,2.7,0,0,1,1.224-.244,3.539,3.539,0,0,1,.852.122c.319.082.48.351.48.805q0,.1-.187.927t-.4,1.877q-.213,1.052-.4,2.051a8.883,8.883,0,0,0-.186,1.439c0,.13.035.194.106.194.036,0,.125-.081.267-.243a9.741,9.741,0,0,1,2.342-2.05,13.8,13.8,0,0,1,2.767-1.439,9.973,9.973,0,0,1,3.726-.659,3.243,3.243,0,0,1,1.491.537,3.772,3.772,0,0,1,1.038,1.074A3.318,3.318,0,0,1,217.887,309.518Zm-4.151,1.514a1.149,1.149,0,0,0-.16-.635.9.9,0,0,0-.373-.342.914.914,0,0,0-.532-.146,5,5,0,0,0-2.741.927,13.207,13.207,0,0,0-2.555,2.2,13.588,13.588,0,0,0-1.862,2.586,4.791,4.791,0,0,0-.72,2.1c0,.2.054.309.16.342a.512.512,0,0,0,.214.049,6.431,6.431,0,0,0,2.954-.781,13.122,13.122,0,0,0,2.767-1.9,12.371,12.371,0,0,0,2.049-2.318A3.926,3.926,0,0,0,213.737,311.031Z" transform="translate(-84.246 -285.262)" fill="#636568"/>
  <path id="Path_10" data-name="Path 10" d="M231.136,306.3a2.681,2.681,0,0,1,2.279,1.15,2.246,2.246,0,0,1,.249,1.876c-.233.543-.852.63-1.726,1.039a13.01,13.01,0,0,0-2.319,1.076,29.232,29.232,0,0,0-2.321,1.846,9.241,9.241,0,0,0-1.735,2.154,3.207,3.207,0,0,0-.559,2.2,1.989,1.989,0,0,0,.286.651q.26.441,1.078.343a3.408,3.408,0,0,0,1.276-.473,6.367,6.367,0,0,0,1.274-.972,5.347,5.347,0,0,0,.977-1.03,1.8,1.8,0,0,0,.315-1.25c0-.051-.079-.391-.083-.425l-.039-.312c-.028-.241-.046-.628-.064-.97a1.313,1.313,0,0,1,.41-.943,2.9,2.9,0,0,1,1.025-.718,4.293,4.293,0,0,1,1.232-.32,1.543,1.543,0,0,1,.691.074.679.679,0,0,1,.4.636,21.058,21.058,0,0,0,.869,2.739,13.319,13.319,0,0,0,1.1,2.187,4.6,4.6,0,0,0,1.557,1.6c.221.184.418.352.6.506.137.159.278.337.421.529a1.386,1.386,0,0,1,.257.653,1.285,1.285,0,0,1-.234,1,2.142,2.142,0,0,1-.757.593,3.178,3.178,0,0,1-1.142.351,2.909,2.909,0,0,1-1.847-.329,5.226,5.226,0,0,1-1.346-1.074,6.512,6.512,0,0,1-1.157-1.7c-.058-.168-.147-.246-.265-.231a.349.349,0,0,0-.22.131l-.1.119a8.937,8.937,0,0,1-1.636,1.65,9.451,9.451,0,0,1-1.708,1.052,8.1,8.1,0,0,1-1.532.555,11.179,11.179,0,0,1-1.158.222,5.658,5.658,0,0,1-2.753-.218,4.091,4.091,0,0,1-1.611-1.069,3.608,3.608,0,0,1-.755-1.33,7.039,7.039,0,0,1-.24-1,5.107,5.107,0,0,1,.163-2.049,10.461,10.461,0,0,1,.993-2.313c.4-.628.64-1.108,1.087-1.731a8.246,8.246,0,0,1,1.187-1.51,24.9,24.9,0,0,1,4.167-3.563A6.431,6.431,0,0,1,231.136,306.3Z" transform="translate(-84.065 -285.236)" fill="#636568"/>
  <path id="Path_11" data-name="Path 11" d="M265.449,304.668a1.406,1.406,0,0,1,.237.794,1.442,1.442,0,0,1-.169.644l-7.174,15.128a1.713,1.713,0,0,1-2.505.863,2.211,2.211,0,0,1-.676-.863l-7.175-15.128a1.339,1.339,0,0,1-.136-.61,1.5,1.5,0,0,1,.948-1.388,1.435,1.435,0,0,1,.71-.169,1.509,1.509,0,0,1,.778.22,1.478,1.478,0,0,1,.576.627l5.888,12.691,5.821-12.691a1.448,1.448,0,0,1,.592-.627,1.663,1.663,0,0,1,.829-.22,1.715,1.715,0,0,1,.778.169A1.591,1.591,0,0,1,265.449,304.668Z" transform="translate(-83.85 -285.255)" fill="#636568"/>
  <path id="Path_12" data-name="Path 12" d="M281.733,304.72a7.156,7.156,0,0,1,2.91,2.961,9.769,9.769,0,0,1,1.049,4.688v8.325a1.726,1.726,0,1,1-3.452,0v-8.325a5,5,0,0,0-5.381-5.551,5.774,5.774,0,0,0-2.589.575,4.6,4.6,0,0,0-1.827,1.557,3.852,3.852,0,0,0-.66,2.2v9.543a1.707,1.707,0,0,1-.474,1.236,1.735,1.735,0,0,1-2.979-1.236V305.6a1.666,1.666,0,0,1,.491-1.253,1.719,1.719,0,0,1,2.962,1.253v.373a7.515,7.515,0,0,1,2.572-1.676,9.031,9.031,0,0,1,7.379.423Z" transform="translate(-83.692 -285.257)" fill="#636568"/>
  <path id="Path_13" data-name="Path 13" d="M123.5,324.754a55.235,55.235,0,0,0-7.279-.421c-.633-2.944-2.529-5.931-8.362-7-8-1.458-12.461-4.007-14.578-6.645a10.75,10.75,0,0,1-1.881-8.9,14.1,14.1,0,0,1,4.389-7.1l0,0,.068-.054a17.478,17.478,0,0,1,11.575-4.171,8.7,8.7,0,0,1,3.678.787,8.388,8.388,0,0,1,1.9,1.141h0a4,4,0,0,1,1.4,4.421,4.853,4.853,0,0,1-2.359,2.724.732.732,0,0,0,.39,1.138,5.049,5.049,0,0,0,3.242-1.335,4.444,4.444,0,0,0,1.726-2.518,9.64,9.64,0,0,0,.269-2.814c-1.192-6.988-8.976-8.73-12.316-8.595a22.032,22.032,0,0,0-11.386,3.586c-10.585,6.5-9.722,16.315-7.373,21.924,1.927,4.6,6.448,8.544,13.031,10.1,5.292.833,8.382,1.906,9.912,3.254-14.655.74-17.618,5.219-18.962,7.506a7.313,7.313,0,0,0-.648,4.337c.7,2.9,2.65,4.847,6.415,5.268a19.447,19.447,0,0,0,9.587-2.032c6.808-3.737,10.758-8.236,10.591-12.379-.007-.172-.017-.348-.028-.525,2.165-.033,4.439-.014,6.854.044C125.52,326.534,126.479,325.387,123.5,324.754Zm-29.15,10.565c-.309-.563-1.255-2.677,2.085-4.7,2.069-1.254,4.945-2.738,10.82-3.548,1.134-.157,2.3-.279,3.5-.374,0,.019,0,.038,0,.058-1.066,5.724-10.431,9.367-10.6,9.43-.479.15-.916.264-1.325.362C96.839,337.025,95.049,336.589,94.353,335.319Z" transform="translate(-85.108 -285.398)" fill="#d1264b"/>
</svg>
