<?xml version="1.0" encoding="utf-8"?>
<!-- Generator: Adobe Illustrator 21.1.0, SVG Export Plug-In . SVG Version: 6.00 Build 0)  -->
<svg version="1.1" id="Layer_1" xmlns="http://www.w3.org/2000/svg" xmlns:xlink="http://www.w3.org/1999/xlink" x="0px" y="0px"
	 viewBox="0 0 119 49.5" style="enable-background:new 0 0 119 49.5;" xml:space="preserve">
<style type="text/css">
	.st0{fill:#B41E4D;}
	.st1{fill:#EDCDC8;}
	.st2{fill:#E0A4A4;}
	.st3{fill:#CA7D80;}
	.st4{fill:#BF5363;}
</style>
<g>
	<path class="st0" d="M106.7,48.1c0-0.5,0.4-0.9,0.9-0.9c0.5,0,0.9,0.4,0.9,0.9c0,0.5-0.3,0.9-0.9,0.9C107,49,106.7,48.6,106.7,48.1
		"/>
	<path class="st0" d="M110.4,44.1l0.6,2.2c0.1,0.4,0.2,0.8,0.3,1.2h0c0.1-0.4,0.2-0.7,0.3-1.2l0.6-2.2h1.6l-1.8,4.8h-1.5l-1.7-4.8
		H110.4z"/>
	<path class="st0" d="M114.5,45.6c0-0.6,0-1.1,0-1.5h1.3l0.1,0.7h0c0.2-0.3,0.7-0.8,1.5-0.8c1,0,1.7,0.7,1.7,2.1v2.8h-1.5v-2.6
		c0-0.6-0.2-1-0.7-1c-0.4,0-0.7,0.3-0.8,0.6c0,0.1,0,0.2,0,0.4v2.7h-1.5V45.6z"/>
	<path class="st0" d="M4.6,49.5c-1.3,0-2.4-0.4-3.3-1.2C0.5,47.5,0,46.4,0,45.1l0-0.4h2.2l0,0.4c0.1,1.6,0.8,2.4,2.4,2.4
		c0.6,0,1.2-0.2,1.6-0.6c0.5-0.4,0.7-1,0.7-1.6c0-0.7-0.3-1.2-0.8-1.6c-0.2-0.2-0.5-0.3-0.9-0.5c-0.3-0.1-0.6-0.2-1.1-0.4
		c-0.6-0.2-1.1-0.3-1.4-0.5c-0.5-0.2-0.9-0.4-1.2-0.7c-0.8-0.7-1.2-1.6-1.2-2.8c0-1.2,0.4-2.2,1.3-2.9c0.8-0.8,1.8-1.1,3-1.1
		c1.2,0,2.2,0.4,3,1.2c0.8,0.8,1.2,1.8,1.2,2.9v0.4H6.6v-0.4c0-0.6-0.2-1-0.6-1.4c-0.4-0.4-0.8-0.6-1.4-0.6c-0.6,0-1,0.2-1.4,0.6
		c-0.4,0.4-0.6,0.8-0.6,1.4c0,0.6,0.3,1.1,0.9,1.4c0.2,0.1,0.6,0.3,1,0.4l1.1,0.3c1.1,0.3,2,0.8,2.6,1.5c0.7,0.8,1,1.7,1,2.8
		c0,1.2-0.5,2.3-1.3,3.1C6.9,49.1,5.9,49.5,4.6,49.5z"/>
	<path class="st0" d="M15,49.5c-1.6,0-2.9-0.6-4-1.7c-1.1-1.1-1.6-2.4-1.6-4c0-1.5,0.6-2.9,1.6-4c1.1-1.1,2.4-1.7,4-1.7
		c1.6,0,2.9,0.6,4,1.7c1.1,1.1,1.6,2.5,1.6,4.1l0,0.8h-9.1c0.1,0.7,0.5,1.3,1.1,1.8c0.7,0.6,1.5,1,2.4,1c0.7,0,1.3-0.2,1.9-0.6
		c0.6-0.4,1-0.9,1.3-1.5l0.1-0.3h2.3l-0.2,0.6c-0.4,1.1-1.1,2.1-2.1,2.8C17.3,49.2,16.2,49.5,15,49.5z M18.4,42.7
		c-0.2-0.7-0.6-1.2-1.1-1.7c-0.7-0.6-1.4-0.9-2.3-0.9c-0.9,0-1.6,0.3-2.3,0.9c-0.5,0.5-0.9,1-1.1,1.7H18.4z"/>
	<path class="st0" d="M26.9,49.5c-1.5,0-2.9-0.6-4-1.7c-1.1-1.1-1.7-2.4-1.7-4c0-1.6,0.6-2.9,1.6-4c1.1-1.1,2.4-1.7,4-1.7
		c1.5,0,2.9,0.6,4,1.7c1.1,1.1,1.7,2.5,1.7,4c0,1.5-0.6,2.9-1.7,4C29.8,49,28.4,49.5,26.9,49.5z M26.9,40.2c-1,0-1.8,0.4-2.5,1.1
		c-0.7,0.7-1,1.6-1,2.6c0,1,0.3,1.8,1,2.5c0.7,0.7,1.5,1.1,2.5,1.1c1,0,1.8-0.4,2.5-1.1c0.7-0.7,1-1.6,1-2.6c0-1-0.3-1.8-1-2.5
		C28.7,40.5,27.9,40.2,26.9,40.2z"/>
	<path class="st0" d="M38.2,49.5c-1.6,0-2.9-0.6-3.8-1.7c-0.4-0.5-0.6-1-0.8-1.7c-0.1-0.5-0.2-1.1-0.2-1.8v-6h2.1v5.9
		c0,1,0.2,1.8,0.6,2.3c0.4,0.6,1.1,0.8,2,0.8c0.7,0,1.3-0.2,1.8-0.7c0.4-0.3,0.6-0.7,0.7-1.2c0.1-0.4,0.2-0.9,0.2-1.5v-5.7h2.1v10.9
		h-2.1v-0.8c-0.2,0.2-0.5,0.4-0.7,0.5C39.7,49.4,39,49.5,38.2,49.5z"/>
	<rect x="44.6" y="34.9" class="st0" width="2.1" height="14.4"/>
	<path class="st0" d="M55.3,49.5c-2.1,0-3.9-0.7-5.3-2.2c-1.5-1.4-2.2-3.2-2.2-5.3c0-2.1,0.7-3.9,2.2-5.3c1.4-1.4,3.2-2.1,5.3-2.1
		c2.3,0,4.2,0.9,5.7,2.6c0.4,0.5,0.7,0.9,0.9,1.4l0.3,0.6h-2.4L59.6,39c-1-1.5-2.5-2.3-4.4-2.3c-1.4,0-2.7,0.5-3.7,1.6
		c-1,1.1-1.6,2.3-1.6,3.8c0,1.4,0.5,2.6,1.6,3.7c1.1,1.1,2.3,1.6,3.7,1.6c0.9,0,1.7-0.2,2.5-0.6c0.7-0.4,1.4-1,1.9-1.7l0.1-0.2h2.5
		l-0.3,0.6C60.5,48.2,58.2,49.5,55.3,49.5z"/>
	<path class="st0" d="M67.8,49.5c-1.6,0-2.9-0.6-4-1.7c-1.1-1.1-1.6-2.4-1.6-4c0-1.5,0.6-2.9,1.6-4c1.1-1.1,2.4-1.7,4-1.7
		c1.6,0,2.9,0.6,4,1.7c1.1,1.1,1.6,2.5,1.6,4.1l0,0.8h-9.1c0.1,0.7,0.5,1.3,1.1,1.8c0.7,0.6,1.5,1,2.4,1c0.7,0,1.3-0.2,1.9-0.6
		c0.6-0.4,1-0.9,1.3-1.5l0.1-0.3h2.3l-0.2,0.6c-0.4,1.1-1.1,2.1-2.1,2.8C70.1,49.2,69,49.5,67.8,49.5z M71.1,42.7
		c-0.2-0.7-0.6-1.2-1.1-1.7c-0.7-0.6-1.4-0.9-2.3-0.9c-0.9,0-1.6,0.3-2.3,0.9c-0.5,0.5-0.9,1-1.1,1.7H71.1z"/>
	<path class="st0" d="M81.6,49.3v-5.9c0-0.5-0.1-0.9-0.2-1.4c-0.1-0.5-0.4-0.8-0.6-1.1c-0.5-0.5-1.1-0.7-1.9-0.7
		c-0.7,0-1.4,0.2-1.9,0.7c-0.3,0.3-0.5,0.6-0.6,1.1c-0.1,0.4-0.2,0.8-0.2,1.3v6h-2.1V38.4h2.1V39c0.7-0.6,1.6-0.9,2.7-0.9
		c1.5,0,2.7,0.5,3.6,1.5c0.8,0.9,1.2,2.2,1.2,3.7v5.9H81.6z"/>
	<polygon class="st0" points="86,49.3 86,40.4 83.8,40.4 83.8,38.4 86,38.4 86,34.9 88.1,34.9 88.1,38.4 90.5,38.4 90.5,40.4 
		88.1,40.4 88.1,49.3 	"/>
	<path class="st0" d="M95.7,49.5c-1.6,0-2.9-0.6-4-1.7c-1.1-1.1-1.6-2.4-1.6-4c0-1.5,0.6-2.9,1.6-4c1.1-1.1,2.4-1.7,4-1.7
		c1.6,0,2.9,0.6,4,1.7c1.1,1.1,1.6,2.5,1.6,4.1l0,0.8h-9.1c0.1,0.7,0.5,1.3,1.1,1.8c0.7,0.6,1.5,1,2.4,1c0.7,0,1.3-0.2,1.9-0.6
		c0.6-0.4,1-0.9,1.3-1.5l0.1-0.3h2.3l-0.2,0.6c-0.4,1.1-1.1,2.1-2.1,2.8C98,49.2,96.9,49.5,95.7,49.5z M99.1,42.7
		c-0.2-0.7-0.6-1.2-1.1-1.7c-0.7-0.6-1.4-0.9-2.3-0.9c-0.9,0-1.6,0.3-2.3,0.9c-0.5,0.5-0.9,1-1.1,1.7H99.1z"/>
	<path class="st0" d="M102,49.3V38.4h2.1V39c0.2-0.1,0.3-0.3,0.5-0.4c0.5-0.2,1.1-0.4,1.9-0.5l0.5,0v2.2l-0.4,0
		c-1.7,0.1-2.5,1-2.5,2.6v6.3H102z"/>
	<g>
		<path class="st1" d="M58.1,25.8c0,0,6,11.3,24-1.9c0,0-2.6-2.5-10.5-5C71.6,18.8,67.5,28.1,58.1,25.8"/>
		<path class="st2" d="M58.5,25.1c0,0,12.2,4,16.1-17.9c0,0-3.6-0.1-11.1,3.6C63.5,10.8,66.9,20.4,58.5,25.1"/>
		<path class="st3" d="M58.8,24c0,0,11.3-6.1-2-24c0,0-2.5,2.6-5,10.5C51.8,10.5,61.1,14.6,58.8,24"/>
		<path class="st4" d="M57.8,23.2c0,0,3.7-12.3-18.4-15.6c0,0,0,3.6,3.9,11C43.3,18.7,52.8,15,57.8,23.2"/>
		<path class="st0" d="M51,22.9c-1.6,0.2-2.6,0.8-2.6,1.8c0,0.8,0.7,1.6,1.5,1.7c0.7,0.1,1.2-0.1,1.3-0.6c0.1-0.3-0.1-0.7-0.4-0.8
			c0,0-0.1,0-0.2,0c0,0,0,0,0,0.1c0.1,0.3-0.1,0.6-0.4,0.7c-0.3,0.1-0.6-0.1-0.7-0.4c-0.2-0.6,0-1,0.2-1.2c0.5-0.4,1.2-0.2,1.3-0.2
			c0.9,0.4,1.3,1.2,1.1,2.1c-0.2,0.7-0.8,1.4-2.1,1.4c-0.1,0-0.2,0-0.4,0c-1.4-0.1-2.5-1.4-2.5-2.8c0-0.6,0.2-2.5,3.5-2.9
			c2.7-0.3,4.6,0.5,5.7,1.2c-0.1-0.2-0.2-0.3-0.2-0.3c-2.7-3.2-8.4-5-13.5-2.8s-10.4,6.1-10.4,6.1c12.8,9.6,23,0.2,24.5-1.4
			C56.5,24.3,54.6,22.5,51,22.9"/>
	</g>
</g>
</svg>
