<svg id="Layer_5" enable-background="new 0 0 64 64" style="fill:white" height="512" viewBox="0 0 64 64" width="512" xmlns="http://www.w3.org/2000/svg"><g><path d="m32 33c-7.168 0-13 5.832-13 13s5.832 13 13 13 13-5.832 13-13-5.832-13-13-13zm5.946 12.238c-.226-1.767-1.218-3.296-2.636-4.238h4.991zm-5.946 4.762c-2.206 0-4-1.794-4-4s1.794-4 4-4 4 1.794 4 4-1.794 4-4 4zm0-10c-.891 0-1.734.201-2.495.55l2.495-4.491 2.495 4.492c-.761-.35-1.604-.551-2.495-.551zm-5.946 5.238-2.355-4.238h4.991c-1.418.942-2.411 2.471-2.636 4.238zm0 1.524c.226 1.767 1.218 3.296 2.636 4.238h-4.991zm5.946 5.238c.891 0 1.734-.201 2.495-.55l-2.495 4.491-2.495-4.492c.761.35 1.604.551 2.495.551zm5.946-5.238 2.355 4.238h-4.991c1.418-.942 2.411-2.471 2.636-4.238zm1.865-.762 2.345-4.221c.542 1.301.844 2.726.844 4.221s-.302 2.92-.845 4.221zm.668-7h-4.557l-2.134-3.841c2.675.44 5.033 1.836 6.691 3.841zm-10.266-3.841-2.135 3.841h-4.557c1.658-2.005 4.016-3.401 6.692-3.841zm-8.368 6.62 2.344 4.221-2.345 4.221c-.542-1.301-.844-2.726-.844-4.221s.302-2.92.845-4.221zm1.676 11.221h4.557l2.134 3.841c-2.675-.44-5.033-1.836-6.691-3.841zm10.266 3.841 2.135-3.841h4.557c-1.658 2.005-4.016 3.401-6.692 3.841z"/><path d="m42 32.283v-6.283c0-1.305-.842-2.406-2.007-2.818l7.394-22.182h-12.108l-3.279 9.838-3.279-9.838h-12.108l7.394 22.182c-1.165.412-2.007 1.514-2.007 2.818v6.283c-4.234 3.095-7 8.083-7 13.717 0 9.374 7.626 17 17 17s17-7.626 17-17c0-5.634-2.766-10.622-7-13.717zm-4.265-8.651c-.181.542-.576.967-1.073 1.191l-.948-2.843c.647-.744 1.298-1.689 1.849-3.343.738-2.214.574-3.563.429-4.754-.137-1.124-.254-2.094.341-3.881s1.272-2.492 2.055-3.309c.781-.814 1.658-1.744 2.374-3.693h1.851zm-1.014-20.632h3.886c-.496 1.085-1.046 1.667-1.662 2.309-.83.865-1.771 1.847-2.509 4.061s-.574 3.564-.429 4.755c.137 1.123.255 2.094-.341 3.88-.229.686-.474 1.21-.729 1.645l-1.883-5.65zm-2.108 22h-1.902c-.716-1.948-1.592-2.876-2.373-3.69-.783-.815-1.459-1.521-2.054-3.306-.596-1.786-.478-2.757-.341-3.88.145-1.19.309-2.541-.429-4.755s-1.679-3.195-2.509-4.061c-.617-.641-1.166-1.223-1.663-2.308h3.937zm-13.426-22c.716 1.949 1.593 2.879 2.374 3.693.783.816 1.459 1.521 2.055 3.309s.478 2.757.341 3.881c-.145 1.19-.309 2.54.429 4.754.738 2.213 1.679 3.192 2.509 4.058.616.642 1.165 1.224 1.661 2.306h-2.393c-.862 0-1.625-.55-1.897-1.368l-6.879-20.633zm2.813 23c0-.46.318-.832.742-.948.711 1.188 1.993 1.948 3.42 1.948h7.676c1.428 0 2.709-.76 3.42-1.948.424.116.742.488.742.948v5.008c-2.386-1.278-5.109-2.008-8-2.008s-5.614.73-8 2.008zm8 35c-8.271 0-15-6.729-15-15s6.729-15 15-15 15 6.729 15 15-6.729 15-15 15z"/></g></svg>