<?xml version="1.0"?>
<svg xmlns="http://www.w3.org/2000/svg" xmlns:xlink="http://www.w3.org/1999/xlink" xmlns:svgjs="http://svgjs.com/svgjs" version="1.1" width="512" height="512" x="0" y="0" viewBox="0 0 58 58" style="enable-background:new 0 0 512 512" xml:space="preserve" class=""><g><g xmlns="http://www.w3.org/2000/svg" id="Page-1" fill="none" fill-rule="evenodd"><g id="012---No-Phone-Calls" fill-rule="nonzero"><path id="Shape" d="m45.52 41.43-.45.45-1.41 1.41-.73.72c-.1980082.2041581-.4463608.3524798-.72.43l-5.52 1.5c-.294915.0817998-.6069754.0783325-.9-.01-4.8949654-1.5942121-9.380457-4.2431783-13.14-7.76l-2.82-2.82c-3.5168217-3.759543-6.1657879-8.2450346-7.76-13.14-.0883325-.2930246-.0917998-.605085-.01-.9l1.5-5.52c.0775202-.2736392.2258419-.5219918.43-.72l.72-.73 1.86-1.86c.6409955-.6398164 1.6790045-.6398164 2.32 0l5.79 5.79c.6398164.6409955.6398164 1.6790045 0 2.32l-.45.45-1.41 1.41-2.46 2.46c-.2030731.1921225-.2871132.4786228-.22.75.5937616 2.2713662 1.6908401 4.3800808 3.21 6.17l2.82 2.82c1.7899192 1.5191599 3.8986338 2.6162384 6.17 3.21.2713772.0671132.5578775-.0169269.75-.22l2.46-2.45v-.01l1.86-1.86c.6409955-.6398164 1.6790045-.6398164 2.32 0l5.79 5.79c.6398164.6409955.6398164 1.6790045 0 2.32z" fill="#10519f" data-original="#f0c419" style="" class=""/><path id="Shape" d="m29 0c-16.0162577 0-29 12.9837423-29 29s12.9837423 29 29 29 29-12.9837423 29-29-12.9837423-29-29-29zm-19.72 44.34c-7.75044084-9.9444233-6.87587404-24.105513 2.0393065-33.0206935 8.9151805-8.91518054 23.0762702-9.78974734 33.0206935-2.0393065.2225356.17580177.3587954.43875488.3741027.7219404.0153074.2831855-.091814.5592944-.2941027.7580596l-33.66 33.66c-.1987652.2022887-.4748741.3094101-.7580596.2941027-.28318552-.0153073-.54613863-.1515671-.7219404-.3741027zm21.81 9.57c-6.2569803.5336157-12.4840784-1.3205804-17.43-5.19-.2225356-.1758018-.3587954-.4387549-.3741027-.7219404-.0153074-.2831855.091814-.5592944.2941027-.7580596l33.66-33.66c.1987652-.2022887.4748741-.3094101.7580596-.2941027.2831855.0153073.5461386.1515671.7219404.3741027 5.6377244 7.2345336 6.8576144 16.9767229 3.1777603 25.377978s-11.6676118 14.1103802-20.8077603 14.872022z" fill="#e64c3c" data-original="#e64c3c" style="" class=""/><g fill="#f29c1f"><path id="Shape" d="m38.12 36.35c-.3900375.3877236-1.0199625.3877236-1.41 0l-1.16-1.16v-.01l1.41-1.41 1.16 1.16c.3899779.3930079.3899779 1.0269921 0 1.42z" fill="#f29c1f" data-original="#f29c1f" style="" class=""/><path id="Shape" d="m45.07 41.88-1.41 1.41-4.37-4.36c-.3877236-.3900375-.3877236-1.0199625 0-1.41.3930079-.3899779 1.0269921-.3899779 1.42 0z" fill="#f29c1f" data-original="#f29c1f" style="" class=""/><path id="Shape" d="m24.23 21.04-1.41 1.41h-.01l-1.16-1.16c-.3877236-.3900375-.3877236-1.0199625 0-1.41.3930079-.3899779 1.0269921-.3899779 1.42 0z" fill="#f29c1f" data-original="#f29c1f" style="" class=""/><path id="Shape" d="m20.48 18.71c-.1862606.1847442-.4376601.2888954-.7.29-.2652977-.0010428-.519836-.1050091-.71-.29l-4.36-4.37 1.41-1.41 4.36 4.36c.3899779.3930079.3899779 1.0269921 0 1.42z" fill="#f29c1f" data-original="#f29c1f" style="" class=""/></g></g></g></g></svg>
