<?xml version="1.0" encoding="iso-8859-1"?>
<!-- Generator: Adobe Illustrator 19.0.0, SVG Export Plug-In . SVG Version: 6.00 Build 0)  -->
<svg version="1.1" id="Capa_1" xmlns="http://www.w3.org/2000/svg" xmlns:xlink="http://www.w3.org/1999/xlink" x="0px" y="0px"
	 viewBox="0 0 511.781 511.781" style="enable-background:new 0 0 511.781 511.781;" xml:space="preserve">
<polygon style="fill:#4CAF50;" points="79.89,207.781 255.89,15.781 431.89,207.781 "/>
<path d="M431.89,223.781h-352c-8.837-0.008-15.994-7.178-15.986-16.014c0.004-4,1.505-7.854,4.21-10.802l176-192
	c6.342-6.504,16.755-6.635,23.259-0.293c0.099,0.096,0.196,0.194,0.293,0.293l176,192c5.974,6.512,5.537,16.633-0.974,22.606
	C439.744,222.275,435.891,223.777,431.89,223.781z M116.274,191.781h279.232L255.89,39.461L116.274,191.781z"/>
<polygon style="fill:#4CAF50;" points="79.89,303.781 255.89,495.781 431.89,303.781 "/>
<path d="M255.89,511.781c-4.478-0.004-8.749-1.884-11.776-5.184l-176-192c-5.974-6.512-5.537-16.633,0.974-22.606
	c2.948-2.704,6.801-4.206,10.802-4.21h352c8.837,0.008,15.994,7.178,15.986,16.014c-0.004,4-1.505,7.854-4.21,10.802l-176,192
	C264.639,509.897,260.368,511.777,255.89,511.781z M116.274,319.781l139.616,152.32l139.616-152.32H116.274z"/>
<g>
</g>
<g>
</g>
<g>
</g>
<g>
</g>
<g>
</g>
<g>
</g>
<g>
</g>
<g>
</g>
<g>
</g>
<g>
</g>
<g>
</g>
<g>
</g>
<g>
</g>
<g>
</g>
<g>
</g>
</svg>
