<?xml version="1.0" standalone="no"?>
<!DOCTYPE svg PUBLIC "-//W3C//DTD SVG 20010904//EN"
 "http://www.w3.org/TR/2001/REC-SVG-20010904/DTD/svg10.dtd">
<svg version="1.0" xmlns="http://www.w3.org/2000/svg"
 width="128.000000pt" height="128.000000pt" viewBox="0 0 128.000000 128.000000"
 preserveAspectRatio="xMidYMid meet">

<g transform="translate(0.000000,128.000000) scale(0.100000,-0.100000)"
fill="#000000" stroke="none">
<path d="M716 1265 c-37 -19 -53 -41 -61 -82 -4 -21 -15 -37 -32 -45 -42 -21
-63 -59 -77 -139 -7 -40 -19 -86 -26 -101 -16 -33 -6 -93 19 -110 10 -7 26
-28 35 -45 41 -80 140 -153 206 -153 66 0 165 73 206 152 9 18 25 39 36 47 27
23 34 82 14 122 -9 17 -16 44 -16 59 0 40 -25 114 -49 149 -12 16 -40 38 -62
48 -28 12 -45 28 -54 51 -10 21 -26 38 -49 47 -44 19 -54 19 -90 0z m54 -264
c25 -10 70 -22 100 -26 44 -6 61 -14 92 -45 30 -29 38 -44 38 -74 0 -22 -6
-39 -14 -42 -7 -3 -25 -27 -40 -54 -48 -89 -132 -140 -196 -121 -49 15 -111
70 -139 124 -13 25 -30 48 -37 51 -9 3 -14 21 -14 45 0 35 4 42 25 47 32 8 80
62 95 109 11 33 13 35 29 21 9 -8 37 -24 61 -35z"/>
<path d="M353 619 c-67 -26 -117 -82 -139 -154 -18 -64 -14 -107 17 -172 21
-44 19 -66 -6 -57 -16 6 -184 -161 -185 -183 0 -19 39 -55 55 -51 26 6 187
169 181 183 -9 25 13 27 57 6 65 -31 108 -35 172 -17 74 22 128 72 155 142 24
66 25 85 4 153 -20 70 -71 125 -140 151 -67 25 -104 25 -171 -1z m172 -72
c112 -63 112 -231 0 -294 -150 -85 -317 82 -232 232 45 80 151 108 232 62z"/>
<path d="M872 489 c-40 -49 -80 -89 -89 -89 -9 0 -27 10 -40 22 l-23 21 0 -44
c0 -90 -57 -193 -134 -240 l-29 -18 29 -8 c16 -4 103 -7 194 -7 242 1 420 38
450 95 8 14 10 43 6 83 -15 131 -42 173 -129 202 -29 9 -58 19 -66 22 -26 10
-2 -68 29 -95 27 -22 60 -104 60 -147 0 -26 -38 -56 -70 -56 -39 0 -43 36 -5
46 29 7 30 15 9 77 -12 35 -22 49 -41 53 -32 8 -50 -10 -68 -69 -14 -46 -14
-46 13 -59 37 -18 35 -42 -4 -46 -37 -4 -67 26 -66 65 2 65 48 153 80 153 18
0 8 63 -16 101 l-17 26 -73 -88z"/>
</g>
</svg>
