<?xml version="1.0" standalone="no"?>
<!DOCTYPE svg PUBLIC "-//W3C//DTD SVG 20010904//EN"
 "http://www.w3.org/TR/2001/REC-SVG-20010904/DTD/svg10.dtd">
<svg version="1.0" xmlns="http://www.w3.org/2000/svg"
 width="128.000000pt" height="128.000000pt" viewBox="0 0 128.000000 128.000000"
 preserveAspectRatio="xMidYMid meet">

<g transform="translate(0.000000,128.000000) scale(0.100000,-0.100000)"
fill="#000000" stroke="none">
<path d="M0 1078 l0 -203 56 -167 c48 -145 65 -182 131 -285 102 -160 108
-166 159 -159 35 4 45 1 64 -19 21 -22 22 -31 17 -92 -4 -37 -10 -87 -13 -110
l-7 -43 233 0 233 0 -7 43 c-3 23 -9 73 -13 110 -5 61 -4 70 17 92 19 20 29
23 64 19 51 -7 57 -1 159 159 66 103 83 140 131 285 l56 167 0 203 c0 195 -1
202 -20 202 -19 0 -20 -7 -20 -198 l0 -198 -54 -159 c-45 -135 -64 -178 -126
-275 -84 -134 -102 -155 -124 -147 -32 12 -27 37 27 134 33 60 70 148 95 230
47 146 49 158 27 167 -18 7 -16 11 -58 -125 -30 -96 -35 -104 -60 -107 -39 -5
-42 15 -24 127 9 53 18 126 21 162 4 73 31 144 76 201 27 33 30 44 30 112 0
74 -1 76 -25 76 -24 0 -25 -2 -25 -70 0 -48 -5 -79 -16 -95 l-16 -24 -50 54
c-35 38 -73 66 -126 92 -72 36 -81 38 -172 38 -91 0 -100 -2 -172 -38 -53 -26
-91 -54 -126 -92 l-50 -54 -16 24 c-11 16 -16 47 -16 95 0 68 -1 70 -25 70
-24 0 -25 -2 -25 -76 0 -68 3 -79 30 -112 45 -57 72 -128 76 -201 3 -36 12
-109 21 -162 18 -112 15 -132 -24 -127 -25 3 -30 11 -60 107 -42 136 -40 132
-58 125 -22 -9 -20 -21 27 -167 25 -82 62 -170 95 -230 54 -97 59 -122 27
-134 -22 -8 -40 13 -124 147 -62 97 -81 140 -126 275 l-54 159 0 198 c0 191
-1 198 -20 198 -19 0 -20 -7 -20 -202z m618 130 c-6 -42 -67 -33 -68 10 0 7
14 12 36 12 31 0 35 -3 32 -22z m112 10 c-1 -43 -62 -52 -68 -10 -3 19 1 22
32 22 22 0 36 -5 36 -12z m-227 -56 c-21 -15 -55 -12 -60 5 -2 6 8 18 24 27
25 13 29 13 41 -2 11 -14 10 -19 -5 -30z m337 7 c0 -16 -30 -22 -56 -10 -21 9
-23 14 -14 31 10 19 13 19 40 5 17 -9 30 -20 30 -26z m-427 -36 c9 -9 -22 -43
-40 -43 -17 0 -17 10 4 32 17 19 26 22 36 11z m378 -25 c30 -14 75 -44 98 -66
43 -40 43 -42 36 -89 -4 -26 -8 -49 -10 -51 -2 -2 -22 2 -46 8 -41 11 -129 6
-129 -8 1 -22 23 -30 87 -34 40 -2 78 -9 84 -15 7 -7 9 -26 4 -53 l-7 -43 -70
5 c-66 5 -69 4 -66 -16 3 -18 11 -21 66 -24 62 -3 62 -3 55 -30 -12 -47 -8
-90 12 -112 10 -11 23 -20 29 -20 39 -1 37 -18 -13 -112 -28 -52 -51 -106 -51
-121 0 -53 -135 -127 -230 -127 -95 0 -230 74 -230 127 0 15 -23 69 -51 121
-50 94 -52 111 -13 112 6 0 19 9 29 20 20 22 24 65 12 113 l-7 27 64 0 c77 0
95 6 89 29 -4 14 -16 17 -81 16 l-77 0 -9 38 c-13 51 0 61 89 65 55 3 75 8 80
19 3 9 3 18 0 21 -8 9 -107 8 -141 -1 -31 -8 -32 -8 -39 39 -5 38 -3 52 12 72
27 37 107 90 162 107 71 23 193 15 262 -17z m114 12 c10 -11 15 -23 12 -26 -9
-10 -59 25 -52 36 9 15 20 12 40 -10z m-360 -947 c52 -19 177 -13 223 11 19
10 35 16 37 14 1 -2 5 -38 8 -80 l7 -78 -181 0 -182 0 7 37 c3 21 6 58 6 82 0
37 2 42 18 36 9 -4 35 -14 57 -22z"/>
<path d="M620 735 c0 -108 1 -115 20 -115 19 0 20 7 20 115 0 108 -1 115 -20
115 -19 0 -20 -7 -20 -115z"/>
<path d="M553 544 c-24 -6 -27 -12 -17 -38 4 -11 11 -13 31 -5 32 12 115 12
147 -1 21 -8 26 -6 31 11 4 11 4 23 1 27 -8 7 -164 12 -193 6z"/>
</g>
</svg>
