<svg xmlns="http://www.w3.org/2000/svg" width="151.588" height="34.836" viewBox="0 0 151.588 34.836">
  <g id="Group_2435" data-name="Group 2435" transform="translate(-612.527 -192.02)">
    <path id="Path_11641" data-name="Path 11641" d="M645.746,205.533l-4.806-4.805H644.1a4.355,4.355,0,0,0-4.355-4.355h-3.159l-2.735-2.736a5.524,5.524,0,0,0-7.81,0l-2.735,2.736h-7.513a4.415,4.415,0,0,0,.035.543,4.333,4.333,0,0,0,1.054,2.336l.387.387,1.385,1.385-4.508,4.509a5.522,5.522,0,0,0,0,7.81l4.5,4.5-1.546,1.546-.066.066a4.338,4.338,0,0,0-1.243,3.045H623.3l2.735,2.736a5.521,5.521,0,0,0,7.81,0l2.736-2.736h3.158a4.354,4.354,0,0,0,4.355-4.354h-3.158l4.8-4.8A5.524,5.524,0,0,0,645.746,205.533ZM626.81,194.407a4.435,4.435,0,0,1,6.27,0l1.966,1.966h-10.2Zm-11.9,18.166a4.433,4.433,0,0,1,0-6.27l4.508-4.509,7.637,7.638-7.643,7.643Zm18.165,11.9a4.433,4.433,0,0,1-6.27,0l-1.966-1.966h10.2Zm6.321-6.32H624.5l6.894-6.895a2.574,2.574,0,0,0,0-3.643l-6.882-6.882H639.4l5.575,5.575a4.435,4.435,0,0,1,0,6.27Z" fill="#ffffff"/>
    <g id="Group_2351" data-name="Group 2351">
      <g id="Group_2350" data-name="Group 2350">
        <path id="Path_11642" data-name="Path 11642" d="M741.576,221.455h0a.525.525,0,0,1,.525.525h0a.525.525,0,0,1-.525.525h0a.525.525,0,0,1-.525-.525h0A.525.525,0,0,1,741.576,221.455Z" fill="#ffffff"/>
        <path id="Path_11643" data-name="Path 11643" d="M748.014,217.061l-1.894,5.444H745.1l-1.906-5.444h1.018l1.392,3.987,1.39-3.987Z" fill="#ffffff"/>
        <path id="Path_11644" data-name="Path 11644" d="M753.927,219.419v3.086h-1.039v-3.054a1.374,1.374,0,1,0-2.744.011v3.043h-1.018v-5.444h1.018v.75a2.116,2.116,0,0,1,1.586-.75A2.233,2.233,0,0,1,753.927,219.419Z" fill="#ffffff"/>
      </g>
      <path id="Path_11645" data-name="Path 11645" d="M660.973,202.385h-3.817l.008,11.41h-1.656l-.008-11.41h-3.8v-1.656h9.273Z" fill="#ffffff"/>
      <path id="Path_11646" data-name="Path 11646" d="M669.864,208.712v5.083h-1.673v-5.031a2.272,2.272,0,0,0-2.249-2.37,2.248,2.248,0,0,0-2.231,2.37l-.005,5.031H662.05l.005-13.066h1.656v5.351a3.437,3.437,0,0,1,2.58-1.22A3.647,3.647,0,0,1,669.864,208.712Z" fill="#ffffff"/>
      <path id="Path_11647" data-name="Path 11647" d="M679.912,209.13l-7.059,1.273a2.758,2.758,0,0,0,2.6,1.847,3.317,3.317,0,0,0,3-1.865l1.412.471a4.862,4.862,0,0,1-4.41,2.911,4.629,4.629,0,0,1-4.27-3.068,4.377,4.377,0,0,1-.227-1.429,4.487,4.487,0,0,1,8.959-.384A1.092,1.092,0,0,1,679.912,209.13Zm-1.882-.993a2.909,2.909,0,0,0-2.772-1.883,2.77,2.77,0,0,0-2.614,2.51,2.815,2.815,0,0,1-.018.331Z" fill="#ffffff"/>
      <path id="Path_11648" data-name="Path 11648" d="M690.107,205.017V213a4.512,4.512,0,0,1-4.5,4.427,4.631,4.631,0,0,1-4.34-2.7l1.325-.662a3.362,3.362,0,0,0,3.015,1.848A2.973,2.973,0,0,0,688.469,213h-.017v-.227a4.5,4.5,0,1,1,0-6.8v-.958Zm-1.708,4.357a2.843,2.843,0,1,0-2.841,2.946A2.839,2.839,0,0,0,688.4,209.374Z" fill="#ffffff"/>
      <path id="Path_11649" data-name="Path 11649" d="M693.94,209.357a4.5,4.5,0,1,1,4.5,4.5A4.5,4.5,0,0,1,693.94,209.357Zm7.391,0a2.842,2.842,0,1,0-2.841,2.928A2.845,2.845,0,0,0,701.331,209.357Z" fill="#ffffff"/>
      <path id="Path_11650" data-name="Path 11650" d="M706.774,200.729h0a1.656,1.656,0,0,1,1.656,1.656v11.41h-1.656Z" fill="#ffffff"/>
      <path id="Path_11651" data-name="Path 11651" d="M718.633,205v8.8h-1.656v-1.039a4.5,4.5,0,1,1,0-6.8V205Zm-1.725,4.358a2.842,2.842,0,1,0-2.841,2.928A2.819,2.819,0,0,0,716.908,209.357Z" fill="#ffffff"/>
      <path id="Path_11652" data-name="Path 11652" d="M733.684,208.694v5.1h-1.691v-5.048a2.235,2.235,0,1,0-4.462.017v5.031h-1.673v-5.048a2.243,2.243,0,1,0-4.48.017v5.031h-1.656V205h1.656v1.081a3.425,3.425,0,0,1,5.543.418,3.695,3.695,0,0,1,6.763,2.2Z" fill="#ffffff"/>
      <path id="Path_11653" data-name="Path 11653" d="M743.871,202.385v11.41h-1.655v-1.039a4.5,4.5,0,1,1,0-6.8v-5.229h0A1.655,1.655,0,0,1,743.871,202.385Zm-1.725,6.972a2.843,2.843,0,1,0-2.841,2.928A2.819,2.819,0,0,0,742.146,209.357Z" fill="#ffffff"/>
      <path id="Path_11654" data-name="Path 11654" d="M753.92,209.13l-7.06,1.273a2.759,2.759,0,0,0,2.6,1.847,3.317,3.317,0,0,0,3-1.865l1.412.471a4.862,4.862,0,0,1-4.41,2.911,4.63,4.63,0,0,1-4.27-3.068,4.377,4.377,0,0,1-.227-1.429,4.487,4.487,0,0,1,8.96-.384A1.154,1.154,0,0,1,753.92,209.13Zm-1.883-.993a2.906,2.906,0,0,0-2.771-1.883,2.77,2.77,0,0,0-2.615,2.51,2.975,2.975,0,0,1-.017.331Z" fill="#ffffff"/>
      <path id="Path_11655" data-name="Path 11655" d="M764.115,209.339a4.5,4.5,0,0,1-7.443,3.4v8.111a1.655,1.655,0,0,1-1.656,1.656h0V204.982h1.656v.958a4.5,4.5,0,0,1,7.443,3.4Zm-1.691,0a2.851,2.851,0,1,0-2.858,2.929A2.848,2.848,0,0,0,762.424,209.339Z" fill="#ffffff"/>
      <path id="Path_11656" data-name="Path 11656" d="M691.091,202.054a.938.938,0,0,1,.941-.942.941.941,0,0,1,0,1.883A.937.937,0,0,1,691.091,202.054Zm.1,2.945h1.656v8.8H691.2Z" fill="#ffffff"/>
      <path id="Path_11657" data-name="Path 11657" d="M703.924,202.054a.939.939,0,0,1,.942-.942.941.941,0,0,1,0,1.883A.938.938,0,0,1,703.924,202.054Zm.1,2.945h1.656v8.8h-1.656Z" fill="#ffffff"/>
    </g>
  </g>
</svg>
