<?xml version="1.0" encoding="iso-8859-1"?>
<!-- Generator: Adobe Illustrator 16.0.0, SVG Export Plug-In . SVG Version: 6.00 Build 0)  -->
<!DOCTYPE svg PUBLIC "-//W3C//DTD SVG 1.1//EN" "http://www.w3.org/Graphics/SVG/1.1/DTD/svg11.dtd">
<svg version="1.1" id="Capa_1" xmlns="http://www.w3.org/2000/svg" xmlns:xlink="http://www.w3.org/1999/xlink" x="0px" y="0px"
	 width="587.91px" height="587.91px" viewBox="0 0 587.91 587.91" style="enable-background:new 0 0 587.91 587.91;fill:white"
	 xml:space="preserve">
<g>
	<g>
		<g>
			<path d="M86.451,501.46c26.937,26.936,58.315,48.088,93.265,62.871c36.207,15.314,74.642,23.078,114.239,23.078
				c39.596,0,78.032-7.764,114.239-23.078c34.949-14.783,66.328-35.936,93.266-62.871c26.936-26.938,48.09-58.316,62.871-93.266
				c15.314-36.207,23.08-74.643,23.08-114.238c0-39.598-7.766-78.033-23.08-114.239c-14.781-34.95-35.936-66.328-62.871-93.265
				c-26.938-26.937-58.316-48.09-93.266-62.872C371.986,8.265,333.551,0.501,293.955,0.501c-39.597,0-78.032,7.765-114.239,23.079
				c-34.95,14.782-66.328,35.936-93.265,62.872s-48.09,58.315-62.873,93.264C8.265,215.923,0.5,254.358,0.5,293.956
				c0,39.596,7.765,78.031,23.079,114.238C38.361,443.144,59.515,474.522,86.451,501.46z M293.955,43.341
				c138.411,0,250.614,112.204,250.614,250.615c0,138.41-112.203,250.613-250.614,250.613S43.34,432.366,43.34,293.956
				C43.34,155.545,155.544,43.341,293.955,43.341z"/>
			<path d="M293.955,587.909c-39.667,0-78.167-7.778-114.434-23.117c-35.01-14.809-66.442-35.998-93.423-62.979
				c-26.983-26.984-48.172-58.417-62.979-93.425C7.778,372.119,0,333.618,0,293.956c0-39.663,7.778-78.165,23.118-114.435
				c14.807-35.008,35.997-66.44,62.979-93.423c26.982-26.983,58.415-48.172,93.423-62.979c36.27-15.34,74.771-23.118,114.434-23.118
				c39.666,0,78.167,7.778,114.433,23.119c35.009,14.807,66.441,35.997,93.425,62.979c26.984,26.985,48.173,58.417,62.979,93.423
				c15.341,36.27,23.119,74.771,23.119,114.434c0,39.662-7.778,78.163-23.119,114.433c-14.806,35.007-35.994,66.439-62.979,93.425
				c-26.982,26.98-58.415,48.169-93.425,62.979C372.121,580.131,333.62,587.909,293.955,587.909z M293.955,1.001
				c-39.529,0-77.898,7.751-114.044,23.039c-34.889,14.757-66.215,35.874-93.106,62.765c-26.892,26.892-48.009,58.217-62.766,93.105
				C8.751,216.057,1,254.427,1,293.956C1,333.483,8.751,371.854,24.039,408c14.757,34.889,35.874,66.214,62.766,93.106
				c26.89,26.889,58.215,48.006,93.106,62.765c36.142,15.287,74.512,23.038,114.044,23.038s77.901-7.751,114.044-23.039
				c34.89-14.758,66.216-35.875,93.106-62.764c26.893-26.895,48.009-58.22,62.764-93.106
				c15.289-36.146,23.041-74.516,23.041-114.044c0-39.529-7.752-77.899-23.041-114.044c-14.754-34.887-35.871-66.212-62.764-93.106
				c-26.892-26.891-58.218-48.008-93.106-62.765C371.855,8.752,333.485,1.001,293.955,1.001z M293.955,545.069
				c-67.075,0-130.136-26.12-177.565-73.549c-47.429-47.43-73.55-110.489-73.55-177.564S68.96,163.82,116.39,116.391
				c47.429-47.429,110.49-73.55,177.565-73.55c67.075,0,130.135,26.121,177.564,73.55c47.43,47.43,73.55,110.49,73.55,177.565
				s-26.12,130.135-73.55,177.564C424.09,518.949,361.029,545.069,293.955,545.069z M293.955,43.841
				c-66.808,0-129.617,26.017-176.858,73.257c-47.24,47.241-73.257,110.05-73.257,176.858c0,66.808,26.017,129.617,73.257,176.856
				c47.24,47.24,110.05,73.257,176.858,73.257s129.617-26.017,176.857-73.257c47.24-47.239,73.257-110.049,73.257-176.856
				c0-66.808-26.017-129.618-73.257-176.858C423.571,69.857,360.763,43.841,293.955,43.841z"/>
		</g>
		<g>
			<path d="M139.15,336.374c9.519,6.525,20.686,10.021,32.327,10.125v64.02c0,32.057,26.082,58.139,58.14,58.139h128.675
				c32.059,0,58.139-26.082,58.139-58.139v-64.02c11.641-0.104,22.809-3.6,32.328-10.125c8.912-6.109,15.941-14.596,20.33-24.537
				c4.389-9.943,5.92-20.855,4.428-31.557c-1.619-11.604-6.689-22.359-14.664-31.101L336.908,115.492
				c-10.99-12.048-26.646-18.958-42.954-18.958c-16.308,0-31.964,6.91-42.955,18.958L129.055,249.179
				c-7.974,8.742-13.044,19.497-14.662,31.101c-1.492,10.702,0.039,21.614,4.427,31.557
				C123.207,321.778,130.238,330.265,139.15,336.374z M160.705,278.05l121.946-133.687c3.034-3.326,7.169-4.989,11.304-4.989
				c4.135,0,8.27,1.663,11.303,4.989L427.205,278.05c8.959,9.822,1.99,25.611-11.305,25.611h-27.008
				c-8.449,0-15.301,6.85-15.301,15.299v91.559c0,8.449-6.85,15.299-15.299,15.299H229.618c-8.45,0-15.3-6.85-15.3-15.299V318.96
				c0-8.449-6.85-15.299-15.3-15.299h-27.008C158.714,303.661,151.746,287.872,160.705,278.05z"/>
			<path d="M358.293,469.157H229.618c-32.334,0-58.64-26.306-58.64-58.639v-63.526c-11.559-0.197-22.652-3.722-32.11-10.206
				c-8.989-6.161-16.08-14.719-20.506-24.747c-4.426-10.028-5.969-21.035-4.464-31.828c1.632-11.705,6.745-22.552,14.788-31.369
				L250.63,115.155c11.085-12.152,26.876-19.122,43.324-19.122c16.448,0,32.238,6.97,43.323,19.122l121.945,133.687
				c8.043,8.816,13.157,19.663,14.79,31.369c1.505,10.793-0.039,21.799-4.466,31.828s-11.518,18.587-20.505,24.747
				c-9.459,6.484-20.552,10.009-32.11,10.206v63.526C416.932,442.852,390.626,469.157,358.293,469.157z M293.955,97.034
				c-16.167,0-31.689,6.851-42.585,18.795L129.424,249.516c-7.906,8.667-12.933,19.329-14.537,30.833
				c-1.479,10.61,0.039,21.429,4.389,31.286c4.351,9.858,11.321,18.271,20.156,24.327c9.429,6.464,20.511,9.935,32.049,10.037
				l0.496,0.005v64.515c0,31.782,25.857,57.639,57.64,57.639h128.675c31.782,0,57.639-25.856,57.639-57.639v-64.515l0.495-0.005
				c11.538-0.103,22.62-3.573,32.051-10.037c8.833-6.056,15.803-14.468,20.155-24.327c4.351-9.858,5.869-20.677,4.39-31.286
				c-1.605-11.504-6.633-22.167-14.538-30.833L336.539,115.829C325.643,103.884,310.122,97.034,293.955,97.034z M358.293,426.317
				H229.618c-8.712,0-15.8-7.087-15.8-15.799V318.96c0-8.16-6.639-14.799-14.8-14.799h-27.008c-6.352,0-11.89-3.609-14.455-9.421
				c-2.564-5.81-1.499-12.335,2.781-17.027l121.946-133.687c2.987-3.274,7.242-5.152,11.673-5.152c4.432,0,8.687,1.878,11.672,5.152
				l121.947,133.687c4.28,4.692,5.346,11.217,2.781,17.027c-2.564,5.812-8.104,9.421-14.455,9.421h-27.008
				c-8.161,0-14.801,6.639-14.801,14.799v91.559C374.092,419.23,367.005,426.317,358.293,426.317z M293.955,139.874
				c-4.151,0-8.136,1.759-10.934,4.826L161.075,278.387c-4.01,4.396-5.008,10.507-2.605,15.95c2.402,5.443,7.591,8.824,13.54,8.824
				h27.008c8.712,0,15.8,7.087,15.8,15.799v91.559c0,8.16,6.639,14.799,14.8,14.799h128.675c8.16,0,14.799-6.639,14.799-14.799
				V318.96c0-8.712,7.088-15.799,15.801-15.799H415.9c5.949,0,11.138-3.381,13.54-8.824c2.402-5.443,1.404-11.555-2.604-15.95
				L304.889,144.7C302.092,141.633,298.106,139.874,293.955,139.874z"/>
		</g>
	</g>
</g>
<g>
</g>
<g>
</g>
<g>
</g>
<g>
</g>
<g>
</g>
<g>
</g>
<g>
</g>
<g>
</g>
<g>
</g>
<g>
</g>
<g>
</g>
<g>
</g>
<g>
</g>
<g>
</g>
<g>
</g>
</svg>
