<?xml version="1.0" encoding="iso-8859-1"?>
<!-- Generator: Adobe Illustrator 19.0.0, SVG Export Plug-In . SVG Version: 6.00 Build 0)  -->
<svg version="1.1" id="Layer_1" xmlns="http://www.w3.org/2000/svg" xmlns:xlink="http://www.w3.org/1999/xlink" x="0px" y="0px"
	 viewBox="0 0 512 512" style="enable-background:new 0 0 512 512;fill:white" xml:space="preserve">
<g>
	<g>
		<path d="M256,0C114.615,0,0,114.615,0,256s114.615,256,256,256s256-114.615,256-256S397.385,0,256,0z M374.784,216.747
			c-1.362,3.12-4.447,5.132-7.851,5.12H307.2v196.267c0,4.713-3.82,8.533-8.533,8.533h-85.333c-4.713,0-8.533-3.82-8.533-8.533
			V221.867h-59.733c-4.713-0.015-8.521-3.848-8.506-8.561c0.007-2.143,0.82-4.204,2.277-5.775L249.771,88.064
			c3.221-3.44,8.621-3.618,12.061-0.397c0.137,0.128,0.269,0.26,0.397,0.397l110.933,119.467
			C375.49,210.006,376.126,213.626,374.784,216.747z"/>
	</g>
</g>
<g>
</g>
<g>
</g>
<g>
</g>
<g>
</g>
<g>
</g>
<g>
</g>
<g>
</g>
<g>
</g>
<g>
</g>
<g>
</g>
<g>
</g>
<g>
</g>
<g>
</g>
<g>
</g>
<g>
</g>
</svg>
