<?xml version="1.0"?>
<svg xmlns="http://www.w3.org/2000/svg" xmlns:xlink="http://www.w3.org/1999/xlink" xmlns:svgjs="http://svgjs.com/svgjs" version="1.1" width="512" height="512" x="0" y="0" viewBox="0 0 454.167 454.167" style="enable-background:new 0 0 512 512" xml:space="preserve" class=""><g>
<g xmlns="http://www.w3.org/2000/svg">
	<g>
		<path style="" d="M91.397,372.235c0.35,1.17-0.85,3.28-1.93,4.31c-3.38,3.21-7.05,6.12-11.04,9.52    c-0.48-5.8-0.95-11.37-1.4-16.93c-0.17-2.08,0.15-4.31-0.51-6.2c-2.5-7.19-0.29-12.3,6.77-15.76    C86.007,355.405,88.897,363.765,91.397,372.235z" fill="#fbb03b" data-original="#fbb03b"/>
		<path style="" d="M73.157,389.765c0.01,2.23-2.71,4.48-5.04,8.04c-0.62-7.45-1.1-13.32-1.61-19.19    c-0.21-2.41-0.3-4.83-0.74-7.19c-1.1-5.81-1.63-11.28,6.04-13.69C72.327,368.425,73.107,379.095,73.157,389.765z" fill="#fbb03b" data-original="#fbb03b"/>
		<path style="" d="M62.447,398.405c0.14,4.76-0.56,5.78-5.52,9.48c-1.01-13.82-1.99-27.33-2.98-41.1    c2.69,0,4.7,0,7.5,0c0,3.05-0.09,5.93,0.02,8.81C61.757,383.205,62.227,390.795,62.447,398.405z" fill="#fbb03b" data-original="#fbb03b"/>
		<path style="" d="M64.097,332.545c-3.17,2.84-5.8,5.19-8.86,7.93c-5.82-2.58-12.7-5.63-20.08-8.9    c2.75-2.37,4.9-4.37,7.23-6.12c0.77-0.59,2.22-1.02,3.03-0.69C51.567,327.185,57.637,329.825,64.097,332.545z" fill="#fbb03b" data-original="#fbb03b"/>
		<path style="" d="M53.617,344.805c-3.11,3.26-5.22,5.26-9.86,3.32c-6.22-2.61-13.02-3.83-19.22-5.55    c5.29-6.82,6.39-7.15,14.95-3.67C43.917,340.705,48.317,342.585,53.617,344.805z" fill="#fbb03b" data-original="#fbb03b"/>
		<path style="" d="M44.277,351.975c1.18,0.41,2.01,1.85,3.77,3.58c-7.6,0.64-13.72,1.19-19.86,1.67    c-6.15,0.47-12.3,0.88-19.36,1.38c5.31-9.89,11.32-12.76,21.67-10.68C35.177,348.865,39.747,350.425,44.277,351.975z" fill="#fbb03b" data-original="#fbb03b"/>
		<path style="" d="M398.037,80.065c1.76,3.33,3.98,6.42,6.41,10.26c-4.95,3.77-9.92,7.57-15.33,11.69    c-3-4.36-5.41-7.87-8.04-11.7c3.98-3.69,7.92-7.47,12.02-11.07C394.847,77.705,396.577,77.295,398.037,80.065z" fill="#4d4d4d" data-original="#4d4d4d"/>
		<path style="" d="M151.257,266.755c1.23,2.01,2.13,3.45,3.23,5.24c-12.05,11.2-24.07,22.32-36.04,33.5    c-4.81,4.49-9.48,9.13-14.25,13.66c-13.94,13.23-27.92,26.43-41.83,39.69c-2.97,2.83-6.04,1.8-8.24-0.35    c-3.01-2.93,0.05-4.47,2.17-6.37c11.98-10.74,23.75-21.7,35.72-32.45C111.547,302.125,131.167,284.685,151.257,266.755z" fill="#4d4d4d" data-original="#4d4d4d"/>
		<path style="" d="M444.127,48.255c-1.44,8.23-2.39,17.16-4.66,25.73c-2.7,10.2-5.3,20.7-13.99,28.05    c-4.27,3.61-10.43,1.9-10.84-3.58c-0.88-11.64-9.69-18.6-15.35-27.4c-0.72-1.12-3.42-1.23-5.23-1.35    c-6.15-0.42-12.4-4.34-13.78-9.25c-1.66-5.94,1.07-9.97,5.53-13.91c7.41-6.53,15.9-5.94,24.42-4.62    C421.517,43.665,432.697,46.085,444.127,48.255z" fill="#c1272d" data-original="#c1272d" class=""/>
		<path style="" d="M388.517,149.955c0.85,42.05-11.63,80.69-31.14,117.23c-16.36,30.63-33.83,60.68-50.7,91.05    c-3.77,6.78-7.26,13.72-10.55,20.74c-1.27,2.71-2.14,3.37-5.36,2.43c-17.55-5.12-35.72-6.52-53.76-8.97    c-14.15-1.92-27.91-6.8-41.8-10.53c-6.78-1.83-13.46-4.04-20.4-6.14c-1.02-13.27,4.93-26.4,1.77-39.8    c-0.48-0.07-0.95-0.13-1.43-0.19c-2.03,12.56-4.07,25.11-6.15,37.96c-3.86-1.32-8.31-2.83-12.99-4.42    c-0.58-13.78,4.59-27.31,2.92-41.12c-0.79-0.09-1.59-0.18-2.38-0.27c-2.13,13.09-4.27,26.18-6.51,39.94    c-3.86-1.09-8.16-2.3-12.84-3.61c1.75-10.9,3.45-21.52,5.14-32.14c-0.64-0.14-1.28-0.28-1.92-0.42    c-4.74,9.19-5.65,19.59-8.41,30.39c-9.54-4.11-18.74-8.06-28.96-12.46c19.05-17.24,37.46-33.91,55.86-50.57    c8.55,7.95,13.19,9.62,21.36,6.43c-1.57-0.58-2.34-0.88-3.12-1.14c-10.03-3.29-15-11.67-20.09-19.93    c-3.81-6.17-7.53-12.38-11.45-18.47c-0.9-1.39-2.46-2.35-3.71-3.51c-1.28,8.04,4.42,12.98,6.23,18.53    c-24.49,17.03-44.68,38.91-67.38,57.05c-0.87-1.3-1.48-3.13-2.74-3.96c-12.99-8.49-12.87-8.38-7.61-22.9    c3.09-8.53,5.61-17.27,8.39-25.91c-0.68-0.25-1.36-0.5-2.05-0.75c-4.85,12.03-9.71,24.06-14.57,36.1    c-5.33-3.02-6.05-6.61-3.7-12.37c4.16-10.17,7.16-20.81,10.59-31.27c0.35-1.06,0.31-2.25,0.45-3.38c-0.54-0.2-1.07-0.39-1.6-0.58    c-5.14,12.33-10.28,24.66-15.39,36.95c-6.02-5.11-6.06-5.59-3.38-12.78c4.21-11.27,8.32-22.59,12.37-33.92    c0.6-1.67,0.68-3.53,1-5.3c-0.65-0.24-1.3-0.47-1.94-0.71c-5.61,13.25-11.21,26.5-16.96,40.09c-3.62-4.08-5.6-8.21-3.93-13.84    c4.31-14.52,8.33-29.12,12.45-43.7c0.26-0.92,0.45-1.87-0.01-3.05c-8.11,12.92-12.12,27.46-16.67,43.31    c-2.6-7.88-5.14-14.19-2.95-21.56c4.76-16.02,9.13-32.16,13.64-48.25c0.26-0.96,0.34-1.97,0.08-3.1    c-8.19,12.09-10.98,26.3-15.77,41.34c-1.23-14.97,0.76-28.02,4.85-40.77c10.49-32.73,32.74-52.19,66.67-57.67    c26.9-4.34,53.06-0.52,78.42,9.09c2.67,1.02,5.12,2.71,7.52,4.31c3.27,2.18,6.21,1.57,8.12-1.71    c15.17-26.15,33.48-49.31,60.27-64.73c10.19-5.87,21.37-8.24,32.6-10.39c13.04-2.51,26.19-1.43,39.01,1.61    c16.8,3.98,29.28,14.92,40.56,27.25C382.527,110.825,388.107,129.505,388.517,149.955z M201.927,360.515    c5.02-6.04,8-23.79,5.15-29.19C203.437,335.635,199.597,356.265,201.927,360.515z M188.507,358.075    c1.29-10.49,2.58-20.98,3.87-31.47c-0.67-0.12-1.35-0.25-2.03-0.37C185.977,332.765,183.737,353.695,188.507,358.075z     M79.397,303.515c5.18-9.18,7.77-19.01,7.27-29.57C82.797,283.485,78.547,292.895,79.397,303.515z" fill="#c1272d" data-original="#c1272d" class=""/>
	</g>
	<g>
		<path d="M454.167,44.595c0,0.69,0,1.39,0,2.08c-2.07,9.81-3.73,19.74-6.33,29.41c-2.98,11.08-6.09,22.25-14.71,30.76    c-4.35,4.29-9.26,7.1-15.28,4.96c-6.04-2.15-11.98-5-11.89-13.86c-5.16,3.51-9.65,6.56-14.05,9.55    c9.01,19.87,11.01,40.25,9.43,61.74c-3.19,43.32-19.79,81.79-40.31,119.02c-14.86,26.97-30.25,53.64-45.32,80.5    c-2.6,4.65-4.73,9.56-7.08,14.35c-4.41,8.98-9.1,10.89-19.12,9.28c-16.6-2.67-33.42-4.13-49.91-7.33    c-14.88-2.89-29.58-6.95-44.1-11.34c-22.75-6.87-45.41-14.12-67.88-21.89c-10.49-3.63-20.48-8.77-30.62-13.41    c-5.12-2.35-6.14,2.89-8.68,3.95c3.24,10.08,6.58,19.74,9.31,29.58c0.57,2.04-0.45,5.34-1.93,7c-5.94,6.64-12.3,12.91-18.59,19.24    c-4.98,5.02-10.09,9.93-15.13,14.9c-1.48,1.46-2.84,3.05-4.38,4.43c-1.26,1.14-3.37,3.19-3.94,2.85c-1.52-0.9-3.38-2.83-3.43-4.4    c-0.47-16.09-0.56-32.18-0.86-48.28c-0.04-1.89-0.67-3.78-1.02-5.67c-1.43,0.38-2.85,0.97-4.3,1.1    c-5.52,0.49-11.05,1.16-16.58,1.16c-7.07,0-14.17-0.34-21.2-1.08c-2.24-0.23-5.15-1.73-6.15-3.54c-0.62-1.13,1.35-4.31,2.87-5.9    c10.97-11.54,22.08-22.96,33.26-34.31c3.55-3.6,8.32-3.84,12.59-2.2c6.37,2.43,12.5,5.56,18.54,8.77    c2.85,1.51,4.71,1.55,6.04-1.52c-19.14-13.23-35.44-29.29-45.6-50.69c-6.72-14.14-9.96-29.13-10.31-44.91    c-0.45-20.46,2.29-40.2,11.34-58.64c13.83-28.2,36.52-45.12,67.36-50.59c31.87-5.65,62.55-1.14,91.94,12.32    c0.29,0.13,0.68,0.02,0.43,0.02c6.1-8.91,11.58-17.82,17.96-26.04c16.35-21.07,35.63-38.61,62.03-46    c10.16-2.84,20.75-5.22,31.23-5.62c27.55-1.04,52.46,6.2,71.93,27.17c1.18,1.26,2.51,2.38,4.23,3.99    c2.97-3.42,5.91-6.79,8.91-10.24c-4.91-3.25-10.08-6.89-12.17-13.68c-1.87-6.05-0.17-11.09,3.5-15.43    c8.15-9.64,18.72-13.54,31.31-12.1c13.13,1.51,26.26,3.04,39.43,4.19C451.287,38.635,452.467,41.685,454.167,44.595z     M439.467,73.985c2.27-8.57,3.22-17.5,4.66-25.73c-11.43-2.17-22.61-4.59-33.9-6.33c-8.52-1.32-17.01-1.91-24.42,4.62    c-4.46,3.94-7.19,7.97-5.53,13.91c1.38,4.91,7.63,8.83,13.78,9.25c1.81,0.12,4.51,0.23,5.23,1.35c5.66,8.8,14.47,15.76,15.35,27.4    c0.41,5.48,6.57,7.19,10.84,3.58C434.167,94.685,436.767,84.185,439.467,73.985z M404.447,90.325c-2.43-3.84-4.65-6.93-6.41-10.26    c-1.46-2.77-3.19-2.36-4.94-0.82c-4.1,3.6-8.04,7.38-12.02,11.07c2.63,3.83,5.04,7.34,8.04,11.7    C394.527,97.895,399.497,94.095,404.447,90.325z M357.377,267.185c19.51-36.54,31.99-75.18,31.14-117.23    c-0.41-20.45-5.99-39.13-20.05-54.49c-11.28-12.33-23.76-23.27-40.56-27.25c-12.82-3.04-25.97-4.12-39.01-1.61    c-11.23,2.15-22.41,4.52-32.6,10.39c-26.79,15.42-45.1,38.58-60.27,64.73c-1.91,3.28-4.85,3.89-8.12,1.71    c-2.4-1.6-4.85-3.29-7.52-4.31c-25.36-9.61-51.52-13.43-78.42-9.09c-33.93,5.48-56.18,24.94-66.67,57.67    c-4.09,12.75-6.08,25.8-4.85,40.77c4.79-15.04,7.58-29.25,15.77-41.34c0.26,1.13,0.18,2.14-0.08,3.1    c-4.51,16.09-8.88,32.23-13.64,48.25c-2.19,7.37,0.35,13.68,2.95,21.56c4.55-15.85,8.56-30.39,16.67-43.31    c0.46,1.18,0.27,2.13,0.01,3.05c-4.12,14.58-8.14,29.18-12.45,43.7c-1.67,5.63,0.31,9.76,3.93,13.84    c5.75-13.59,11.35-26.84,16.96-40.09c0.64,0.24,1.29,0.47,1.94,0.71c-0.32,1.77-0.4,3.63-1,5.3    c-4.05,11.33-8.16,22.65-12.37,33.92c-2.68,7.19-2.64,7.67,3.38,12.78c5.11-12.29,10.25-24.62,15.39-36.95    c0.53,0.19,1.06,0.38,1.6,0.58c-0.14,1.13-0.1,2.32-0.45,3.38c-3.43,10.46-6.43,21.1-10.59,31.27c-2.35,5.76-1.63,9.35,3.7,12.37    c4.86-12.04,9.72-24.07,14.57-36.1c0.69,0.25,1.37,0.5,2.05,0.75c-2.78,8.64-5.3,17.38-8.39,25.91    c-5.26,14.52-5.38,14.41,7.61,22.9c1.26,0.83,1.87,2.66,2.74,3.96c22.7-18.14,42.89-40.02,67.38-57.05    c-1.81-5.55-7.51-10.49-6.23-18.53c1.25,1.16,2.81,2.12,3.71,3.51c3.92,6.09,7.64,12.3,11.45,18.47    c5.09,8.26,10.06,16.64,20.09,19.93c0.78,0.26,1.55,0.56,3.12,1.14c-8.17,3.19-12.81,1.52-21.36-6.43    c-18.4,16.66-36.81,33.33-55.86,50.57c10.22,4.4,19.42,8.35,28.96,12.46c2.76-10.8,3.67-21.2,8.41-30.39    c0.64,0.14,1.28,0.28,1.92,0.42c-1.69,10.62-3.39,21.24-5.14,32.14c4.68,1.31,8.98,2.52,12.84,3.61    c2.24-13.76,4.38-26.85,6.51-39.94c0.79,0.09,1.59,0.18,2.38,0.27c1.67,13.81-3.5,27.34-2.92,41.12c4.68,1.59,9.13,3.1,12.99,4.42    c2.08-12.85,4.12-25.4,6.15-37.96c0.48,0.06,0.95,0.12,1.43,0.19c3.16,13.4-2.79,26.53-1.77,39.8c6.94,2.1,13.62,4.31,20.4,6.14    c13.89,3.73,27.65,8.61,41.8,10.53c18.04,2.45,36.21,3.85,53.76,8.97c3.22,0.94,4.09,0.28,5.36-2.43    c3.29-7.02,6.78-13.96,10.55-20.74C323.547,327.865,341.017,297.815,357.377,267.185z M154.487,271.995    c-1.1-1.79-2-3.23-3.23-5.24c-20.09,17.93-39.71,35.37-59.24,52.92c-11.97,10.75-23.74,21.71-35.72,32.45    c-2.12,1.9-5.18,3.44-2.17,6.37c2.2,2.15,5.27,3.18,8.24,0.35c13.91-13.26,27.89-26.46,41.83-39.69    c4.77-4.53,9.44-9.17,14.25-13.66C130.417,294.315,142.437,283.195,154.487,271.995z M89.467,376.545    c1.08-1.03,2.28-3.14,1.93-4.31c-2.5-8.47-5.39-16.83-8.11-25.06c-7.06,3.46-9.27,8.57-6.77,15.76c0.66,1.89,0.34,4.12,0.51,6.2    c0.45,5.56,0.92,11.13,1.4,16.93C82.417,382.665,86.087,379.755,89.467,376.545z M68.117,397.805c2.33-3.56,5.05-5.81,5.04-8.04    c-0.05-10.67-0.83-21.34-1.35-32.03c-7.67,2.41-7.14,7.88-6.04,13.69c0.44,2.36,0.53,4.78,0.74,7.19    C67.017,384.485,67.497,390.355,68.117,397.805z M56.927,407.885c4.96-3.7,5.66-4.72,5.52-9.48c-0.22-7.61-0.69-15.2-0.98-22.81    c-0.11-2.88-0.02-5.76-0.02-8.81c-2.8,0-4.81,0-7.5,0C54.937,380.555,55.917,394.065,56.927,407.885z M55.237,340.475    c3.06-2.74,5.69-5.09,8.86-7.93c-6.46-2.72-12.53-5.36-18.68-7.78c-0.81-0.33-2.26,0.1-3.03,0.69c-2.33,1.75-4.48,3.75-7.23,6.12    C42.537,334.845,49.417,337.895,55.237,340.475z M43.757,348.125c4.64,1.94,6.75-0.06,9.86-3.32c-5.3-2.22-9.7-4.1-14.13-5.9    c-8.56-3.48-9.66-3.15-14.95,3.67C30.737,344.295,37.537,345.515,43.757,348.125z M48.047,355.555c-1.76-1.73-2.59-3.17-3.77-3.58    c-4.53-1.55-9.1-3.11-13.78-4.05c-10.35-2.08-16.36,0.79-21.67,10.68c7.06-0.5,13.21-0.91,19.36-1.38    C34.327,356.745,40.447,356.195,48.047,355.555z" fill="#ffffff" data-original="#000000" style="" class=""/>
		<path d="M207.077,331.325c2.85,5.4-0.13,23.15-5.15,29.19C199.597,356.265,203.437,335.635,207.077,331.325z" fill="#ffffff" data-original="#000000" style="" class=""/>
		<path d="M192.377,326.605c-1.29,10.49-2.58,20.98-3.87,31.47c-4.77-4.38-2.53-25.31,1.84-31.84    C191.027,326.355,191.707,326.485,192.377,326.605z" fill="#ffffff" data-original="#000000" style="" class=""/>
		<path d="M86.667,273.945c0.5,10.56-2.09,20.39-7.27,29.57C78.547,292.895,82.797,283.485,86.667,273.945z" fill="#ffffff" data-original="#000000" style="" class=""/>
	</g>
</g>
<g xmlns="http://www.w3.org/2000/svg">
</g>
<g xmlns="http://www.w3.org/2000/svg">
</g>
<g xmlns="http://www.w3.org/2000/svg">
</g>
<g xmlns="http://www.w3.org/2000/svg">
</g>
<g xmlns="http://www.w3.org/2000/svg">
</g>
<g xmlns="http://www.w3.org/2000/svg">
</g>
<g xmlns="http://www.w3.org/2000/svg">
</g>
<g xmlns="http://www.w3.org/2000/svg">
</g>
<g xmlns="http://www.w3.org/2000/svg">
</g>
<g xmlns="http://www.w3.org/2000/svg">
</g>
<g xmlns="http://www.w3.org/2000/svg">
</g>
<g xmlns="http://www.w3.org/2000/svg">
</g>
<g xmlns="http://www.w3.org/2000/svg">
</g>
<g xmlns="http://www.w3.org/2000/svg">
</g>
<g xmlns="http://www.w3.org/2000/svg">
</g>
</g></svg>
