<?xml version="1.0" encoding="iso-8859-1"?>
<!-- Generator: Adobe Illustrator 19.0.0, SVG Export Plug-In . SVG Version: 6.00 Build 0)  -->
<svg version="1.1" id="Capa_1" xmlns="http://www.w3.org/2000/svg" xmlns:xlink="http://www.w3.org/1999/xlink" x="0px" y="0px"
	 viewBox="0 0 512 512" style="enable-background:new 0 0 512 512;" xml:space="preserve">
<path style="fill:#D9215F;" d="M254.257,180.928c-2.77,0-5.498,0.124-8.196,0.371l-72.568,328.222
	c79.991-63.198,169.661-149.593,169.661-239.685C343.155,220.734,303.36,180.928,254.257,180.928z"/>
<path style="fill:#FF4784;" d="M244.703,181.424c37.118,4.077,66.205,42.163,66.205,88.537c0,88.809-72.387,176.887-137.223,239.915
	c-1.604,1.56-4.113,1.683-5.864,0.291C90.293,448.476,3.771,362.692,0.084,275.702c-2.177-51.339,38.202-95.104,89.586-94.645
	c36.575,0.326,67.872,22.749,81.21,54.556C183.307,205.97,211.333,184.482,244.703,181.424z"/>
<path style="fill:#D9215F;" d="M449.615,0.866c-2.893,0-5.735,0.196-8.525,0.577l-46.752,229.136
	C450.472,186.222,512,126.5,512,63.261C512,28.799,484.066,0.866,449.615,0.866z"/>
<path style="fill:#FF4784;" d="M440.771,1.442c22.611,4.139,40.021,30.24,40.021,61.819c0,61.659-45.044,122.808-85.926,166.939
	c-1.764,1.904-4.704,2.124-6.731,0.502c-55.229-44.168-116.357-105.548-116.357-167.442c0-34.462,27.934-62.395,62.385-62.395
	c25.916,0,48.135,15.805,57.566,38.292C400.111,19.183,418.583,4.48,440.771,1.442z"/>
<g>
</g>
<g>
</g>
<g>
</g>
<g>
</g>
<g>
</g>
<g>
</g>
<g>
</g>
<g>
</g>
<g>
</g>
<g>
</g>
<g>
</g>
<g>
</g>
<g>
</g>
<g>
</g>
<g>
</g>
</svg>
