<svg id="Capa_1" enable-background="new 0 0 512 512" height="512" viewBox="0 0 512 512" width="512" xmlns="http://www.w3.org/2000/svg"><g><g><path d="m256 10c-135.98 0-246 110.04-246 246 0 135.983 110.063 246 246 246 135.219 0 246-109.206 246-246 0-135.98-110.04-246-246-246z" fill="#ffed99"/><path d="m256 276c-33.14 0-60 35.82-60 80 0 12.27 2.07 23.89 5.78 34.28h108.44c3.71-10.39 5.78-22.01 5.78-34.28 0-44.18-26.86-80-60-80z" fill="#a57e63"/><path d="m416 232.67v210.25c-17.94 15.38-38.12 28.21-60 37.93v-258.18z" fill="#b3f1ff"/><path d="m310.22 390.28c-9.62 27.03-30.28 45.72-54.22 45.72s-44.6-18.69-54.22-45.72c9.63-20.27 30.29-34.28 54.22-34.28s44.59 14.01 54.22 34.28z" fill="#ff7d97"/><path d="m156 222.67v258.19c-21.87-9.73-42.06-22.56-60-37.93v-210.26z" fill="#b3f1ff"/></g><g><path d="m186 356c0 51.302 32.495 90 70 90 37.455 0 70-38.683 70-90 0-45.248-27.691-90-70-90-42.43 0-70 44.919-70 90zm70 70c-17.691 0-34.328-13.633-43.254-35.08 8.882-15.259 25.433-24.92 43.254-24.92s34.372 9.661 43.254 24.92c-8.926 21.447-25.563 35.08-43.254 35.08zm0-140c27.57 0 50 31.402 50 70 0 3.552-.207 7.048-.579 10.493-12.939-12.855-30.677-20.493-49.421-20.493s-36.482 7.638-49.421 20.493c-.373-3.444-.579-6.941-.579-10.493 0-38.598 22.43-70 50-70z"/><path d="m303.133 185.059c24.392-24.823 58.241-39.059 92.867-39.059 5.522 0 10-4.477 10-10s-4.478-10-10-10c-39.955 0-79.004 16.417-107.133 45.041-3.871 3.939-3.815 10.271.124 14.142 3.94 3.871 10.27 3.815 14.142-.124z"/><path d="m116 146c34.626 0 68.475 14.236 92.867 39.059 3.87 3.937 10.203 3.996 14.142.123 3.939-3.871 3.995-10.202.124-14.142-28.129-28.623-67.178-45.04-107.133-45.04-5.522 0-10 4.477-10 10s4.478 10 10 10z"/><path d="m256 512c142.299 0 256-115.428 256-256 0-141.582-114.384-256-256-256-141.581 0-256 114.383-256 256 0 141.714 114.758 256 256 256zm150-270.862v197.122c-12.427 10.246-25.825 19.157-40 26.625v-230.414zm-150-221.138c130.131 0 236 105.869 236 236 0 61.449-23.82 119.951-66 163.732v-175.261l8.357 1.393c5.435.906 10.598-2.763 11.507-8.222.907-5.448-2.774-10.6-8.222-11.507l-101.877-16.978c16.392-14.714 37.919-23.157 60.235-23.157 5.522 0 10-4.477 10-10s-4.478-10-10-10c-34.435 0-67.331 16.448-87.999 43.999-4.493 5.989-1.036 14.633 6.354 15.865l31.645 5.274v243.129c-28.51 11.769-58.755 17.733-90 17.733-31.237 0-61.481-5.966-90-17.736v-243.126l31.645-5.274c7.385-1.231 10.851-9.872 6.354-15.865-20.668-27.551-53.564-43.999-87.999-43.999-5.522 0-10 4.477-10 10s4.478 10 10 10c22.316 0 43.843 8.443 60.234 23.158l-101.877 16.978c-5.447.907-9.129 6.059-8.222 11.507.904 5.428 6.037 9.13 11.507 8.222l8.358-1.394v42.529c0 5.523 4.478 10 10 10s10-4.477 10-10v-45.862l40-6.667v230.417c-14.18-7.475-27.578-16.383-40-26.617v-61.271c0-5.523-4.478-10-10-10s-10 4.477-10 10v42.735c-42.178-43.771-66-102.275-66-163.735 0-130.131 105.869-236 236-236z"/><circle cx="96" cy="332" r="10"/></g></g></svg>