<svg id="Capa_1" enable-background="new 0 0 496.996 496.996" height="512" viewBox="0 0 496.996 496.996" width="512" xmlns="http://www.w3.org/2000/svg"><g><path d="m169.261 306.518-164.868 164.868c-5.858 5.858-5.858 15.355 0 21.213s15.355 5.858 21.213 0l164.868-164.868z" fill="#ffc766"/><path d="m238.169 343.676-37.123 37.123c-2.929 2.929-7.678 2.929-10.607 0l-15.91-15.91 31.82-95.459z" fill="#b53a4c"/><path d="m238.169 301.25-63.64 63.64-58.336-58.336c-2.929-2.929-2.929-7.678 0-10.607l37.123-37.123z" fill="#e0343f"/><path d="m280.595 301.25-42.426 42.426-21.213-21.213 10.606-74.246z" fill="#7e4158"/><path d="m176.349 224.43h60v90h-60z" fill="#b53a4c" transform="matrix(.707 -.707 .707 .707 -130.078 224.825)"/><path d="m384.434 239.838-98.535 98.535c-2.929 2.929-7.678 2.929-10.607 0l-15.91-15.91 61.412-146.265z" fill="#e0343f"/><path d="m247.156 180.582c-21.672-11.236-62.3 4.275-88.502 30.476l-.035.035c-2.929 2.929-2.929 7.678 0 10.607l100.763 100.763 90.114-90.114z" fill="#ff4040"/><path d="m455.64 168.632-71.206 71.206c-14.609 14.609-36.112 19.566-56.151 13.725l63.717-148.57z" fill="#ffc766"/><path d="m315.251 112.488c-23.101-11.547-72.217 14.192-90.474 32.449l-66.122 66.122c17.367-17.367 44.47-21.093 67.288-9.263l91.202 47.306c3.621 1.881 7.354 3.366 11.137 4.462l90.616-90.616z" fill="#ffdc96"/><path d="m423.82 115.599 31.82 53.033c-15.365 15.365-37.547 21.001-57.954 15.528z" fill="#e0343f"/><path d="m445.033 136.812-47.348 47.348c-3.854-1.025-7.637-2.461-11.307-4.292l-92.341-46.167c-23.101-11.547-51.004-7.022-69.261 11.236l114.191-114.191z" fill="#ff4040"/><path d="m496.901 16.714c.492-4.397-.929-8.963-4.294-12.328l-36.967 164.246 10.244 10.244c4.435 4.435 12.032 1.79 12.754-4.441z" fill="#7e4158"/><path d="m494.823 14.637c.98-3.909.308-7.726-2.217-10.25-3.365-3.365-7.931-4.787-12.319-4.285-.007-.007-115.333 13.345-157.737 18.255-6.231.721-8.87 8.317-4.434 12.753l137.524 137.522z" fill="#b53a4c"/></g></svg>