<?xml version="1.0" encoding="iso-8859-1"?>
<!-- Generator: Adobe Illustrator 19.0.0, SVG Export Plug-In . SVG Version: 6.00 Build 0)  -->
<svg version="1.1" id="Layer_1" xmlns="http://www.w3.org/2000/svg" xmlns:xlink="http://www.w3.org/1999/xlink" x="0px" y="0px"
	 viewBox="0 0 505 505" style="enable-background:new 0 0 505 505;" xml:space="preserve">
<path style="fill:#FD8469;" d="M505,252.5c0,90.9-48.1,170.6-120.1,215c-9.7,6-19.8,11.4-30.3,16c-31.2,13.8-65.7,21.5-102,21.5
	s-70.8-7.7-102-21.5c-10.5-4.6-20.6-10-30.3-16C48.1,423.1,0,343.4,0,252.5C0,113,113.1,0,252.5,0C392,0,505,113,505,252.5z"/>
<path style="fill:#FFFFFF;" d="M402.7,125.3v254.3c0,5.8-4.7,10.6-10.6,10.6H112.8c-5.8,0-10.6-4.7-10.6-10.6V125.3
	c0-5.8,4.7-10.6,10.6-10.6h279.3C398,114.8,402.7,119.5,402.7,125.3z"/>
<path style="fill:#E6E9EE;" d="M308.5,173.5h-112c-1.7,0-3.1-1.4-3.1-3.1V150c0-1.7,1.4-3.1,3.1-3.1h112c1.7,0,3.1,1.4,3.1,3.1v20.4
	C311.6,172.1,310.2,173.5,308.5,173.5z"/>
<g>
	<rect x="240.8" y="115.5" style="fill:#F9B54C;" width="23.5" height="274.8"/>
	<rect x="102.3" y="241.1" style="fill:#F9B54C;" width="300.4" height="23.5"/>
</g>
<g>
	<path style="fill:#FFD05B;" d="M345.1,252c0,15-2.8,27.2-28.9,27.2c-26,0-65.4-12.2-65.4-27.2c0-15,39.4-27.2,65.4-27.2
		C342.3,224.8,345.1,237,345.1,252z"/>
	<path style="fill:#FFD05B;" d="M159.9,252c0,15,2.8,27.2,28.9,27.2c26,0,65.4-12.2,65.4-27.2c0-15-39.4-27.2-65.4-27.2
		C162.7,224.8,159.9,237,159.9,252z"/>
</g>
<g>
	<path style="fill:#F9B54C;" d="M328.3,226c6.8,1.5,7,11.2,0.2,12.9c-2.8,0.7-5.9,1.4-9.5,2.1c-20.4,4-49.1,6.9-63.2,5.8
		c-1.4-0.1-2-1.8-1.1-2.8c10.5-11.1,40.5-19.1,61.6-19.1C321,224.8,324.9,225.2,328.3,226z"/>
	<path style="fill:#F9B54C;" d="M176.7,226c-6.8,1.5-7,11.2-0.2,12.9c2.8,0.7,5.9,1.4,9.5,2.1c20.4,4,49.1,6.9,63.2,5.8
		c1.4-0.1,2-1.8,1.1-2.8c-10.5-11.1-40.5-19.1-61.6-19.1C184,224.8,180.1,225.2,176.7,226z"/>
</g>
<path style="fill:#E6E9EE;" d="M265.4,272.5h-25.8c-2.1,0-3.8-1.7-3.8-3.8v-33.3c0-2.1,1.7-3.8,3.8-3.8h25.8c2.1,0,3.8,1.7,3.8,3.8
	v33.3C269.2,270.8,267.5,272.5,265.4,272.5z"/>
<g>
</g>
<g>
</g>
<g>
</g>
<g>
</g>
<g>
</g>
<g>
</g>
<g>
</g>
<g>
</g>
<g>
</g>
<g>
</g>
<g>
</g>
<g>
</g>
<g>
</g>
<g>
</g>
<g>
</g>
</svg>
