<svg xmlns="http://www.w3.org/2000/svg" xmlns:xlink="http://www.w3.org/1999/xlink" viewBox="0 0 256 256"><defs><style>.cls-1{isolation:isolate;}.cls-2,.cls-25{opacity:0.47;}.cls-3{fill:url(#linear-gradient);}.cls-4{fill:#683f28;}.cls-5{fill:url(#radial-gradient);}.cls-6{opacity:0.56;}.cls-18,.cls-19,.cls-20,.cls-21,.cls-22,.cls-23,.cls-24,.cls-25,.cls-26,.cls-27,.cls-28,.cls-29,.cls-30,.cls-31,.cls-40,.cls-6{mix-blend-mode:multiply;}.cls-7{fill:url(#radial-gradient-2);}.cls-10,.cls-11,.cls-12,.cls-13,.cls-14,.cls-15,.cls-16,.cls-17,.cls-8,.cls-9{fill:#f6cf9e;}.cls-8{opacity:0.74;}.cls-9{opacity:0.79;}.cls-10{opacity:0.67;}.cls-11{opacity:0.75;}.cls-12{opacity:0.39;}.cls-13{opacity:0.38;}.cls-14{opacity:0.69;}.cls-15,.cls-22{opacity:0.46;}.cls-16,.cls-20{opacity:0.49;}.cls-17{opacity:0.41;}.cls-18,.cls-19,.cls-20,.cls-21,.cls-22,.cls-23,.cls-24,.cls-25,.cls-26,.cls-27,.cls-28,.cls-29{fill:#5d4228;}.cls-18{opacity:0.62;}.cls-19{opacity:0.34;}.cls-21{opacity:0.58;}.cls-23{opacity:0.45;}.cls-24{opacity:0.64;}.cls-26{opacity:0.6;}.cls-27{opacity:0.63;}.cls-28{opacity:0.59;}.cls-29{opacity:0.61;}.cls-30{opacity:0.32;}.cls-31{opacity:0.44;}.cls-32{fill:url(#linear-gradient-2);}.cls-33{fill:url(#linear-gradient-3);}.cls-34{fill:url(#linear-gradient-4);}.cls-35{fill:url(#linear-gradient-5);}.cls-36{fill:url(#linear-gradient-6);}.cls-37{fill:url(#linear-gradient-7);}.cls-38{fill:url(#linear-gradient-8);}.cls-39{fill:url(#linear-gradient-9);}.cls-40{opacity:0.55;}.cls-41{fill:#420000;}.cls-42{fill:url(#linear-gradient-10);}.cls-43{fill:url(#linear-gradient-11);}.cls-44{fill:url(#linear-gradient-12);}.cls-45{fill:url(#linear-gradient-13);}.cls-46{fill:url(#linear-gradient-14);}.cls-47{fill:url(#linear-gradient-15);}.cls-48{fill:url(#linear-gradient-16);}.cls-49{fill:url(#linear-gradient-17);}.cls-50{fill:url(#linear-gradient-18);}.cls-51{fill:url(#linear-gradient-19);}.cls-52{fill:url(#linear-gradient-20);}.cls-53{fill:url(#linear-gradient-21);}.cls-54{fill:url(#linear-gradient-22);}.cls-55{fill:url(#linear-gradient-23);}.cls-56{fill:url(#linear-gradient-24);}.cls-57{fill:url(#linear-gradient-25);}.cls-58{fill:url(#linear-gradient-26);}</style><linearGradient id="linear-gradient" x1="216.69" y1="156.22" x2="247.43" y2="156.22" gradientUnits="userSpaceOnUse"><stop offset="0.01" stop-color="#92603d"/><stop offset="0.49" stop-color="#95633f"/><stop offset="0.89" stop-color="#9f6e47"/><stop offset="1" stop-color="#a3724a"/></linearGradient><radialGradient id="radial-gradient" cx="128.51" cy="128.51" r="115.73" gradientUnits="userSpaceOnUse"><stop offset="0" stop-color="#b1815b"/><stop offset="0.23" stop-color="#b0805a"/><stop offset="0.52" stop-color="#a47550"/><stop offset="1" stop-color="#885b38"/></radialGradient><radialGradient id="radial-gradient-2" cx="138.44" cy="115.07" r="139.35" gradientUnits="userSpaceOnUse"><stop offset="0.01" stop-color="#c09268"/><stop offset="1" stop-color="#ac7b51"/></radialGradient><linearGradient id="linear-gradient-2" x1="10.88" y1="55.12" x2="55.53" y2="55.12" gradientUnits="userSpaceOnUse"><stop offset="0" stop-color="#683f28"/><stop offset="0.49" stop-color="#a8774e"/><stop offset="1" stop-color="#72482e"/></linearGradient><linearGradient id="linear-gradient-3" x1="3.88" y1="128.24" x2="253.01" y2="128.24" gradientUnits="userSpaceOnUse"><stop offset="0" stop-color="#683f28"/><stop offset="0.63" stop-color="#936542"/><stop offset="1" stop-color="#72482e"/></linearGradient><linearGradient id="linear-gradient-4" x1="0.86" y1="128" x2="254.73" y2="128" gradientUnits="userSpaceOnUse"><stop offset="0.01" stop-color="#d6a76d"/><stop offset="0.51" stop-color="#e8bd88"/><stop offset="1" stop-color="#f6d09f"/></linearGradient><linearGradient id="linear-gradient-5" y1="76.08" x2="52.06" y2="76.08" gradientUnits="userSpaceOnUse"><stop offset="0" stop-color="#92603d"/><stop offset="0.58" stop-color="#b98c63"/><stop offset="1" stop-color="#f6d09f"/></linearGradient><linearGradient id="linear-gradient-6" x1="9.57" y1="113.83" x2="247.69" y2="113.83" gradientUnits="userSpaceOnUse"><stop offset="0.01" stop-color="#92603d"/><stop offset="0.33" stop-color="#95633f"/><stop offset="0.6" stop-color="#9f6e47"/><stop offset="0.84" stop-color="#b07f54"/><stop offset="1" stop-color="#be8e5f"/></linearGradient><linearGradient id="linear-gradient-7" x1="20.03" y1="200.99" x2="222.4" y2="200.99" xlink:href="#linear-gradient-6"/><linearGradient id="linear-gradient-8" x1="8.11" y1="128.16" x2="250.93" y2="128.16" gradientUnits="userSpaceOnUse"><stop offset="0.02" stop-color="#d4a46a"/><stop offset="1" stop-color="#f6d09f"/></linearGradient><linearGradient id="linear-gradient-9" x1="12.94" y1="91.81" x2="38.92" y2="219.94" gradientUnits="userSpaceOnUse"><stop offset="0.01" stop-color="#d5a66c"/><stop offset="0.37" stop-color="#e6bb86"/><stop offset="0.74" stop-color="#f2ca98"/><stop offset="1" stop-color="#f6d09f"/></linearGradient><linearGradient id="linear-gradient-10" x1="27.99" y1="197.14" x2="44.03" y2="182.91" gradientUnits="userSpaceOnUse"><stop offset="0" stop-color="#ff4451"/><stop offset="0.63" stop-color="#ff4753"/><stop offset="0.72" stop-color="#ff4947"/><stop offset="0.73" stop-color="#f34342"/><stop offset="0.76" stop-color="#d43435"/><stop offset="0.79" stop-color="#bb272b"/><stop offset="0.82" stop-color="#a81e23"/><stop offset="0.86" stop-color="#9a171d"/><stop offset="0.91" stop-color="#92131a"/><stop offset="1" stop-color="#901219"/></linearGradient><linearGradient id="linear-gradient-11" x1="31.32" y1="201.95" x2="47.35" y2="187.74" xlink:href="#linear-gradient-10"/><linearGradient id="linear-gradient-12" x1="3675.02" y1="-3085.16" x2="3688.55" y2="-3093.39" gradientTransform="matrix(-0.85, 0.52, 0.52, 0.85, 4999.16, 851.55)" gradientUnits="userSpaceOnUse"><stop offset="0" stop-color="#ff4451"/><stop offset="0.57" stop-color="#ff4753"/><stop offset="0.64" stop-color="#ff4947"/><stop offset="0.66" stop-color="#f34342"/><stop offset="0.69" stop-color="#d43435"/><stop offset="0.73" stop-color="#bb272b"/><stop offset="0.77" stop-color="#a81e23"/><stop offset="0.82" stop-color="#9a171d"/><stop offset="0.88" stop-color="#92131a"/><stop offset="1" stop-color="#901219"/></linearGradient><linearGradient id="linear-gradient-13" x1="3678.5" y1="-3080.14" x2="3692.14" y2="-3088.44" xlink:href="#linear-gradient-12"/><linearGradient id="linear-gradient-14" x1="4314.51" y1="443.87" x2="4327.5" y2="435.4" gradientTransform="matrix(-0.72, -0.69, -0.69, 0.72, 3581.79, 2921.15)" gradientUnits="userSpaceOnUse"><stop offset="0" stop-color="#ff4451"/><stop offset="0.55" stop-color="#ff4753"/><stop offset="0.55" stop-color="#ff4947"/><stop offset="0.57" stop-color="#f34342"/><stop offset="0.61" stop-color="#d43435"/><stop offset="0.66" stop-color="#bb272b"/><stop offset="0.71" stop-color="#a81e23"/><stop offset="0.78" stop-color="#9a171d"/><stop offset="0.85" stop-color="#92131a"/><stop offset="1" stop-color="#901219"/></linearGradient><linearGradient id="linear-gradient-15" x1="4318.01" y1="449.43" x2="4331.37" y2="440.73" xlink:href="#linear-gradient-14"/><linearGradient id="linear-gradient-16" x1="3389.32" y1="392.97" x2="3403.44" y2="383.34" gradientTransform="translate(2987.05 -1906.41) rotate(139.27)" gradientUnits="userSpaceOnUse"><stop offset="0" stop-color="#ff4451"/><stop offset="0.41" stop-color="#ff4753"/><stop offset="0.49" stop-color="#ff4947"/><stop offset="0.52" stop-color="#e73d3d"/><stop offset="0.56" stop-color="#cc3032"/><stop offset="0.6" stop-color="#b62529"/><stop offset="0.65" stop-color="#a51c22"/><stop offset="0.7" stop-color="#99161d"/><stop offset="0.79" stop-color="#92131a"/><stop offset="1" stop-color="#901219"/></linearGradient><linearGradient id="linear-gradient-17" x1="3392.8" y1="397.99" x2="3407.03" y2="388.29" xlink:href="#linear-gradient-16"/><linearGradient id="linear-gradient-18" x1="50.9" y1="41.79" x2="11.42" y2="85.29" gradientUnits="userSpaceOnUse"><stop offset="0.01" stop-color="#daac74"/><stop offset="0.37" stop-color="#e9c08b"/><stop offset="0.71" stop-color="#f3cc9a"/><stop offset="1" stop-color="#f6d09f"/></linearGradient><linearGradient id="linear-gradient-19" x1="901.48" y1="1338.85" x2="918.43" y2="1323.81" gradientTransform="translate(804.64 -1351.73) rotate(63.01)" xlink:href="#linear-gradient-10"/><linearGradient id="linear-gradient-20" x1="905.01" y1="1343.94" x2="921.94" y2="1328.92" gradientTransform="translate(804.64 -1351.73) rotate(63.01)" xlink:href="#linear-gradient-10"/><linearGradient id="linear-gradient-21" x1="169.91" y1="71.11" x2="245.86" y2="71.11" gradientUnits="userSpaceOnUse"><stop offset="0.01" stop-color="#ddb581"/><stop offset="0.18" stop-color="#e7cc9f"/><stop offset="0.38" stop-color="#f0e0bb"/><stop offset="0.58" stop-color="#f7eece"/><stop offset="0.79" stop-color="#fbf7da"/><stop offset="1" stop-color="#fcfade"/></linearGradient><linearGradient id="linear-gradient-22" x1="175.68" y1="186.4" x2="244.33" y2="186.4" xlink:href="#linear-gradient-21"/><linearGradient id="linear-gradient-23" x1="26.24" y1="74.67" x2="11.96" y2="154.11" xlink:href="#linear-gradient-21"/><linearGradient id="linear-gradient-24" x1="57.43" y1="24.26" x2="135.95" y2="2.97" xlink:href="#linear-gradient-21"/><linearGradient id="linear-gradient-25" x1="46.19" y1="40.37" x2="133.02" y2="16.82" xlink:href="#linear-gradient-21"/><linearGradient id="linear-gradient-26" x1="22.2" y1="42.66" x2="57.4" y2="33.12" xlink:href="#linear-gradient-21"/></defs><g class="cls-1"><g id="Layer_1" data-name="Layer 1"><path class="cls-2" d="M63.28,228.67c30.68,21.88,75,24.61,115.74,8.21s57.11-49.22,63.49-70.48,12.15-46.18,3.34-75.64-43.13-58.63-65.31-71.69S118,.53,91.84,9,44.75,37,44.75,37,20.45,62.51,11.33,86.2,1,120.83,7.08,147.26,32.6,206.8,63.28,228.67Zm157-135.2,4.32,3.64-1.82,5.34-4.32-3.63ZM53.7,170.68,49.38,167l1.82-5.34,4.32,3.63Zm8-23.38-4.32-3.64,1.82-5.35L63.48,142C63.27,142.55,62.09,146,61.66,147.3ZM72.6,186.59,68.27,183l1.82-5.35c1.17,1,4.15,3.5,4.33,3.64Zm8-23.38-4.32-3.64,1.82-5.35,4.32,3.64Zm11,39.3-4.33-3.65,1.71-5,.11-.33,4.33,3.65Zm-7.31-66.32,1-3.08s.43-1.29.77-2.27l4.32,3.64-1.82,5.35Zm15.28,42.94-4.34-3.65L97,170.13l4.34,3.65C101,174.6,99.48,179.08,99.47,179.13Zm10.91,39.28-4.32-3.64.24-.7s1.11-3.25,1.58-4.65l4.32,3.64C112,213.77,110.86,217,110.38,218.41Zm-7.3-66.31.24-.7s1.11-3.25,1.58-4.65l4.35,3.66-1.82,5.34Zm8-23.39c.11-.31.22-.64.22-.64l1.6-4.71,4.36,3.67c-.23.66-1.42,4.17-1.83,5.35Zm7.3,66.31L114,191.39c.17-.51.42-1.23.42-1.23l1.4-4.12,4.32,3.64Zm10.94,39.29c-1.18-1-4.27-3.59-4.32-3.63l0-.08,1.8-5.27L131.1,229ZM122,168l1.82-5.35,4.32,3.64c-.11.31-1.33,3.92-1.82,5.35Zm8-23.38,1.82-5.35,4.32,3.64-1.82,5.35C133.28,147.44,130.45,145.06,129.94,144.62Zm7.3,66.31-4.33-3.64,1.08-3.15s.42-1.23.74-2.2c1.18,1,4.27,3.6,4.33,3.64C138.83,206.24,137.64,209.74,137.24,210.93Zm.65-89.69c.27-.78,1.34-3.94,1.34-3.94s.25-.72.48-1.41l4.33,3.64c-.27.78-1.59,4.66-1.82,5.35Zm7.3,66.31-4.32-3.64,1.82-5.35h0L147,182.2C146.77,182.92,145.54,186.53,145.19,187.55Zm10.94,39.29-4.32-3.64,1.82-5.35,4.32,3.64Zm-7.3-66.31,1-3,.8-2.34,4.32,3.64-1.82,5.35Zm8-23.38c.23-.67.79-2.34.79-2.34s.63-1.86,1-3l4.32,3.64-1.82,5.35Zm7.3,66.31-4.32-3.64c.25-.73,1-3.11,1-3.11s.43-1.27.77-2.24l4.32,3.64C165.63,198.92,164.17,203.22,164.09,203.46Zm8-23.38-4.33-3.64,1.82-5.35,4.33,3.64ZM183,219.37c-.57-.49-3.69-3.12-4.32-3.64l1.82-5.35L184.8,214Zm8-23.39-4.32-3.64,1.82-5.34,4.32,3.63C192.54,191.29,191.35,194.79,190.94,196Zm8-23.38L194.58,169l1.82-5.35,4.32,3.64Zm13.41-55.75c.12.1,3.67,3.08,4.32,3.64-.09.27-1.33,3.93-1.82,5.35-.72-.62-3.71-3.13-4.32-3.64Zm-5.45,32.37-4.33-3.64c.25-.71,1.35-4,1.82-5.35l4.33,3.64C208.44,144.58,207.22,148.15,206.86,149.22Zm-5.48-71.66,4.32,3.64-1.82,5.35-4.32-3.64C199.8,82.2,200.9,78.94,201.38,77.56Zm-8.45,24.83.49-1.45,4.32,3.64c-.28.82-1.78,5.22-1.82,5.35l-4.32-3.64Zm-5,30.92-4.32-3.64c.25-.72,1-2.93,1-2.93s.47-1.4.82-2.42l4.32,3.64C189.73,128.12,188.46,131.86,188,133.31Zm-5.85-70.56s.19-.55.37-1.1l4.32,3.64L185,70.64,180.66,67Zm-.29,88.6c-.24.72-1.47,4.32-1.82,5.34l-4.32-3.64,1.82-5.34Zm-7.5-65.71s.11-.32.2-.61l4.33,3.64c-.25.71-1.35,4-1.82,5.35l-4.33-3.64C173,89.58,174.32,85.64,174.32,85.64Zm-5.25,31.76-4.32-3.64,1.82-5.34,4.32,3.63Zm-5.48-71.66,4.32,3.64-1.82,5.35-4.32-3.64ZM155.3,70.08l.33-1L160,72.77l-1.82,5.34-4.32-3.64Zm-5.13,31.42-4.32-3.64,1.25-3.67.57-1.68L152,96.15C151.82,96.66,150.62,100.17,150.17,101.5Zm-5.48-71.66,4.38,3.68-1.82,5.35-4.38-3.68Zm-7.95,23.38,4.37,3.68-1.82,5.35c-1-.86-3.88-3.27-4.38-3.68C135.16,57.86,136.26,54.6,136.74,53.22Zm-8-31.54c-.19.55-.24.71-.42,1.24-.45-.39-.63-.53-1.19-1Zm.06,54.92,4.36,3.68-1.82,5.34L127,82ZM123.36,109,119,105.33l1.82-5.35,4.36,3.67ZM117.8,37.42l0-.11L122.16,41l-1.82,5.35L116,42.66Zm-8.86,26.05s.57-1.67.94-2.78l4.33,3.64c-.11.3-1.35,3.94-1.83,5.35L108.06,66C108.3,65.35,108.94,63.47,108.94,63.47Zm-4.51,29.59-4.33-3.64c.25-.7,1.35-4,1.83-5.34l4.32,3.63C106,88.54,104.43,93,104.43,93.06Zm-2-65.57c-.38,1.1-.68,2-1,2.9l-2.33-2C100.24,28.1,101.35,27.79,102.44,27.49Zm-6,89-4.32-3.63c0-.16.11-.33.11-.33l1.71-5,4.32,3.64ZM91,44.79l4.32,3.63c-.09.28-1.34,3.94-1.82,5.35l-4.32-3.64ZM81.64,72.26,83,68.17l4.32,3.64-1.82,5.34-4.32-3.63C81.38,73,81.64,72.26,81.64,72.26ZM74.93,36.87c-.08.26-.29.86-.33,1L74,37.32ZM73.69,95.6l1.38-4,4.33,3.64c-.25.71-1.35,4-1.83,5.35L73.25,96.9C73.43,96.38,73.69,95.6,73.69,95.6Zm-4.07,28.32-4.33-3.64c.25-.71,1.35-4,1.83-5.35l4.32,3.64C71.41,118.66,70.11,122.46,69.62,123.92ZM62.5,57.06s1.15-3.38,1.64-4.8l4.32,3.64-1.82,5.35-4.32-3.64ZM56.18,75.64l4.32,3.64c-.11.33-1.34,4-1.82,5.35L54.36,81Zm-9.59,28.19L48.22,99l4.32,3.64c-.1.31-1.34,3.94-1.82,5.35l-4.32-3.64C46.49,104.1,46.59,103.83,46.59,103.83Zm-11.78,51-4.33-3.64,1.18-3.44s.35-1,.65-1.91l4.32,3.64Zm7.95-23.39-4.32-3.64,1.82-5.34L44.59,126C44.34,126.75,43.24,130,42.76,131.39Z"/><path class="cls-3" d="M246.06,112.08,235.3,143.7l8.82,6.29C248.77,136.27,247.64,121.49,246.06,112.08Zm-29.37,86.29c.28.65.57,1.32.87,2a361.8,361.8,0,0,0,20.49-36l-7.8-5.8Z"/><path class="cls-4" d="M73.25,28a97,97,0,0,0-17.41,12C34.88,58,35.48,61.62,23.64,87.14S8.45,130,10.57,144.25c1.73,11.56,17,41.16,34.18,60.15,4,4.46,10.37,6.54,14.13,9.72,19.74,16.71,42.52,27,67.13,29.77s45-.61,64.4-18.23,29.47-25.52,37.37-40.7,19.44-37.67,20.05-55.6-2.13-26.43-12.46-43.74S204.08,45.52,188,32.46s-29.77-18.84-29.77-18.84-14-5.47-38.27,0c-17.31,3.9-31.84,6.56-46.34,14.24L79,32.36,76.6,39.25,71,34.56,73,28.91Zm-7.83,23L71,55.74c-1.17,3.43-2,5.85-2.35,6.89l-5.57-4.69C63.37,57.08,64.84,52.76,65.42,51.05Zm-8,23.38L63,79.12,60.68,86l-5.56-4.69C55.41,80.46,56.88,76.14,57.46,74.43Zm-39.6,65.95-1.21-1.22.61-8.51,3,2.66Zm8.28-23.09L21,113l2.28-7.52,4.86,4.18Zm6.61-33.65,3.57,3.12-2.66,6.83L29.56,90Zm4.06,72.52-5.57-4.69,2.35-6.89,5.57,4.69Zm8-23.38-5.57-4.69,2.35-6.89,5.56,4.69C47,126.14,45.61,130.32,44.77,132.78Zm4.73-35,5.57,4.69-2.34,6.89-5.57-4.69C47.45,103.84,48.92,99.52,49.5,97.82Zm6.21,74.25-5.57-4.69c.29-.87,1.76-5.19,2.34-6.89l5.57,4.69C57.76,166,56.28,170.37,55.71,172.07ZM58.09,144l2.35-6.89L66,141.8c-.3.86-1.77,5.18-2.35,6.89ZM67,210.78l-5.47-5.62,1.9-5.62,5.77,4.86ZM74.6,188,69,183.29c1-2.88,1.89-5.56,2.35-6.89L77,181.09Zm11.46,38.75-6.22-3.88,2.58-7.29L88,220.19ZM77,159.91c.22-.66,1.26-3.7,2.34-6.9l5.57,4.69c-.08.25-1.5,4.43-2.34,6.9Zm16.51,44-5.58-4.69,2.35-6.9,5.58,4.7C95.78,197.23,94.29,201.6,93.5,203.89ZM85,136.52l2.34-6.89,5.57,4.69c-.89,2.61-2.17,6.37-2.34,6.89Zm8-23.38c.3-.86,1.77-5.19,2.35-6.89l5.57,4.69c-.09.25-1.51,4.43-2.35,6.89Zm8.57,67.38-5.59-4.71c.3-.86,1.77-5.19,2.35-6.89l5.59,4.71Zm10.92,39.27-5.57-4.69c.29-.86,1.77-5.19,2.34-6.89l5.57,4.69C113.85,215.51,112.57,219.27,112.39,219.79Zm-8.55-67.36c.3-.86,1.77-5.19,2.35-6.89l5.59,4.71c-.08.25-1.51,4.43-2.35,6.89Zm8-23.38c.29-.87,1.76-5.19,2.34-6.89,1.39,1.16,4.94,4.16,5.61,4.71-.89,2.61-2.18,6.37-2.35,6.89Zm8.55,67.36-5.57-4.69c.08-.25,1.5-4.43,2.34-6.89l5.57,4.69C122.61,189.77,121.18,194,120.35,196.41Zm-.59-90.74c.29-.87,1.76-5.19,2.34-6.89l5.61,4.72c-.09.25-1.51,4.43-2.35,6.89Zm5.32,55.78,5.57,4.69L128.3,173l-5.57-4.69ZM133.33,87l-5.62-4.72c1.14-3.36,2.07-6.06,2.35-6.9l5.61,4.73C134.78,82.73,133.5,86.49,133.33,87Zm5.28,55.74c-.09.25-1.51,4.43-2.35,6.9L130.69,145l2.35-6.89Zm-7.33,92.95L125.71,231l2.35-6.89,5.57,4.69Zm8-23.38-5.57-4.69c1.17-3.44,2-5.94,2.35-6.89l5.57,4.69C141.29,206.29,139.82,210.62,139.24,212.32Zm-.59-90.74c.3-.87,1.77-5.19,2.35-6.9l5.57,4.69-2.35,6.89Zm8.55,67.36-5.57-4.69c.29-.87,1.76-5.19,2.34-6.89l5.57,4.68C149.25,182.91,147.78,187.23,147.2,188.94Zm10.93,39.29-5.56-4.69c.29-.87,1.76-5.19,2.34-6.9l5.57,4.69C160.19,222.2,158.71,226.52,158.13,228.23Zm-8.54-67.36,2.34-6.9,5.57,4.69c-.29.87-1.76,5.19-2.34,6.89Zm7.95-23.39c.3-.86,1.77-5.19,2.35-6.89l5.57,4.69-2.35,6.89Zm8.55,67.36-5.57-4.69,2.35-6.89,5.57,4.69Zm8-23.38-5.57-4.69c.3-.86,1.77-5.19,2.35-6.89l5.57,4.69C176.31,174.82,174.89,179,174.05,181.46ZM185,220.75l-5.57-4.69c.19-.57,1.18-3.47,2.34-6.89l5.57,4.69C187,214.73,185.57,219.05,185,220.75Zm-8.55-67.36c.29-.87,1.76-5.19,2.34-6.89l5.57,4.69L182,158.08Zm16.5,44-5.56-4.69c.29-.87,1.76-5.19,2.34-6.89l5.57,4.69Zm8-23.38-5.57-4.69c.09-.25,1.51-4.43,2.35-6.89l5.57,4.69C203,168,201.48,172.28,200.9,174Zm18,15.62L214,185.16l2.53-6.79,6,4.46Zm11-21.26-7.79-6.48,2.43-7.09,8.3,6.78Zm2.84-36.76,8.3,6.89L239,146l-8.91-7.59ZM221.55,92.26,227.12,97c-.29.87-1.76,5.19-2.34,6.89l-5.57-4.69Zm-8,23.38,5.57,4.69c-.29.87-1.76,5.19-2.34,6.89l-5.57-4.69C211.54,121.67,213,117.35,213.59,115.64Zm-4.73,35-5.57-4.69,2.35-6.9,5.57,4.69C210.91,144.58,209.44,148.9,208.86,150.61Zm-6.2-74.26L208.23,81l-2.35,6.89-5.57-4.69C200.61,82.38,202.08,78.06,202.66,76.35Zm-8,23.38,5.57,4.69c-1.15,3.38-2.05,6-2.35,6.9l-5.57-4.69C192.65,105.76,194.12,101.44,194.7,99.73Zm-4.73,35L184.4,130c.29-.87,1.76-5.19,2.34-6.89l5.57,4.69Zm-6.21-74.26,5.57,4.69C189,66,187.57,70.32,187,72l-5.57-4.69C182.49,64.19,183.52,61.16,183.76,60.44Zm-7.95,23.39,5.57,4.69c-.3.86-1.77,5.19-2.35,6.89l-5.57-4.69Zm-4.74,35-5.57-4.69c1.1-3.22,2.09-6.14,2.35-6.89l5.57,4.69C172.26,115.31,171.37,117.9,171.07,118.79Zm-6.2-74.25,5.57,4.69c-.3.86-1.77,5.19-2.35,6.89l-5.57-4.69Zm-8,23.38,5.57,4.69c-1.12,3.28-2.08,6.11-2.34,6.89l-5.57-4.69C155.73,71.38,156.56,69,156.91,67.92Zm-4.73,35-5.57-4.69L149,91.3,154.52,96C154.23,96.86,152.76,101.18,152.18,102.88ZM146,28.63l5.62,4.74c-.95,2.81-2.15,6.31-2.35,6.89l-5.62-4.74C143.92,34.65,145.4,30.33,146,28.63ZM138,52l5.62,4.73c-.09.25-1.51,4.43-2.35,6.89l-5.62-4.73C135.8,58.54,137,55.12,138,52ZM126.86,13.36l.22-.64,5.57,4.69c-.29.87-1.77,5.19-2.35,6.89l-5.56-4.69ZM119.12,36.1l5.57,4.69-2.34,6.89L116.78,43C117.67,40.39,119,36.62,119.12,36.1Zm-8,23.39,5.56,4.68c-.08.25-1.5,4.43-2.34,6.9l-5.57-4.69C108.9,66.13,110.33,62,111.17,59.49Zm-4.74,35-5.57-4.69,2.35-6.89,5.57,4.69Zm-6.2-74.25,5.57,4.68c-.3.87-1.77,5.19-2.35,6.9l-5.57-4.69Zm-8,23.38,5.57,4.69-2.35,6.89-5.56-4.69C90.22,49.6,91.69,45.28,92.27,43.58ZM84.31,67l5.57,4.69c-.29.87-1.76,5.19-2.34,6.89L82,73.85C82.1,73.45,83.21,70.21,84.31,67Zm-8,23.38L81.92,95c-.29.87-1.76,5.19-2.34,6.89-1.38-1.15-4.87-4.1-5.57-4.69ZM74,118.41c-.3.87-1.77,5.19-2.35,6.9l-5.57-4.69c.2-.59,1.2-3.51,2.35-6.9Z"/><path class="cls-5" d="M146.61,11.09c-3,.16-6.76.44-11.08.88L65.15,218.79a91.75,91.75,0,0,0,12.14,9L151,11.21A28,28,0,0,0,146.61,11.09ZM82.93,23.7,31.11,175.94c3,4.62,6.39,9.75,10.13,15L100,18.21A151.18,151.18,0,0,0,82.93,23.7ZM226.22,71.57a82.65,82.65,0,0,0-9.57-12.25l-63.06,185.3A51.92,51.92,0,0,0,171,238.11l56.15-165C226.85,72.62,226.53,72.1,226.22,71.57ZM179.64,25.23,106.25,240.87a127.79,127.79,0,0,0,14,3.42l71.15-209C187.24,31.58,183.19,28.17,179.64,25.23ZM109.89,15.9,47.48,199.27c3.49,4.48,7.14,8.85,10.86,12.82l67.71-199C121,13.83,115.5,14.74,109.89,15.9ZM66.57,32a91.55,91.55,0,0,0-15,12.45l-37,108.82q1.15,2.66,2.5,5.53l3-1.22s1.92,3.49,5.2,8.93L72.15,28.67Q69.22,30.23,66.57,32ZM233,82.78,182.46,231.21l4.47-2.79a89.35,89.35,0,0,0,16.31-13.56L242.49,99.54C239.8,94.32,236.54,88.73,233,82.78ZM198.43,41.44,129,245.53a79.44,79.44,0,0,0,11.12.38c1.42-.06,2.76-.13,4-.22L209.94,52.33C206.28,48.69,202.36,45,198.43,41.44Zm-39-28.16L84.9,232.19a124.7,124.7,0,0,0,13.2,5.9L172.17,20.46A51.66,51.66,0,0,0,159.48,13.28Z"/><path class="cls-6" d="M78.7,152.26l26,21.87,5.5-16.14-26-21.87Zm117-102.76-26-21.86-5.5,16.14,26,21.86ZM142,64.49l-26-21.9-5.49,16.14,26,21.9ZM126.1,111.24l-26-21.89-5.5,16.15,26,21.88Zm53.67-15-26-21.86-5.49,16.15,26,21.86ZM132.4,137.31l26,21.86,5.5-16.14-26-21.86Zm37.79,31.82,26,21.85,5.5-16.14-26-21.86ZM233,82.78c.17.28.34.56.5.84l.61-1.8L207.52,59.46,202,75.6l26,21.86ZM62.78,199l26,21.86,5.5-16.14-26-21.87Zm9.58-72.87-26-21.86-5.49,16.15,26,21.85ZM88.28,79.39l-26-21.85-5.5,16.14,26,21.86Zm-53.71,15L24,85.47l-.41.87-.86,1.81h0c-1.8,3.8-3.54,7.84-5.17,12l-.19.49,11.68,9.84ZM186.93,228.42l-4.47,2.79,3.27-9.6-26-21.86-5.5,16.14,23,19.39.46-.28c2.19-1.34,4.54-2.81,7.25-4.51l2.31-1.44c1.05-.66,2.14-1.39,3.24-2.17l.78-.55-.59-.5C189.48,226.76,188.2,227.62,186.93,228.42Zm-46.84,17.49a79.44,79.44,0,0,1-11.12-.38l3.06-9-26-21.85-5.49,16.14,16,13.47.18,0a96.07,96.07,0,0,0,23.37,2.3l3.69-.17-.84-.71ZM243.7,150.09,229.39,138l-5.5,16.14,13.55,11.4.41-.86c1.85-3.85,3.6-7.75,5.2-11.61l1.07-2.69ZM208,200.94l4.87,4.1.47-.6c2.9-3.65,5.77-7.59,8.54-11.71l.37-.56-8.76-7.37ZM25.23,166.5c-.17-.28-.33-.56-.5-.83l-.35,1L51,189.07l5.5-16.15-26-21.85Zm79-133.87L89.74,20.46l-.4.13a114.77,114.77,0,0,0-15.16,6.19l-1,.5L98.7,48.77Zm81.91,89.73,26,21.86,5.49-16.14-26-21.86ZM158,17.73l-8.79-7.4h-.26c-.79,0-1.58,0-2.34,0-3.9.21-10.21.68-18.1,1.7l-1.68.21,25.67,21.61ZM116.49,184.08l26,21.85,5.49-16.14-26-21.86ZM8.58,132.62l-.08,1.49c0,.52,0,1,0,1.5,0,3.66,1.81,9.7,5.38,17.95l.77,1.76.35-1c-.14-.34-.29-.68-.44-1l4.14-12.15Zm97,12.17,26,21.85L137,150.5l-26-21.86Zm9.58-72.87-26-21.86L83.68,66.21l26,21.85Zm37.79,31.82L127,81.88,121.47,98l26,21.86ZM100,18.21l-.42,1.23,26,21.86,5.5-16.14-13.6-11.45-.34.06c-6.27,1.1-12.27,2.4-17.85,3.87L97.88,18l.7.58ZM168.84,57l-26-21.85-5.5,16.14,26,21.86ZM67.76,113l26,21.86,5.5-16.15-26-21.85ZM206.62,88.79l-26-21.86-5.49,16.14,26,21.86Zm-47.37,41.05,26,21.86,5.5-16.15-26-21.86ZM77.34,40.11l-10.73-9-.46.31a91.73,91.73,0,0,0-11.66,9.17l-.61.57,18,15.13Zm66,136.49,26,21.86,5.49-16.14-26-21.86Zm37.79,31.82L197,221.8l.48-.43a118.9,118.9,0,0,0,10.27-10.3l.5-.57-21.65-18.23ZM197,161.65l29.08,24.49.45-.74c2.53-4.11,5-8.41,7.28-12.76l.28-.53-31.59-26.6Zm-64.12,45.57-5.5,16.15L154,245.74l.43-1.27-.83.15,5.29-15.54ZM218.45,98.75,213,114.89l33.57,28.26.3-1.11a113.43,113.43,0,0,0,3.2-16.27l.05-.4Zm-157-11.88L35.08,64.68l-.45.74c-2.36,3.89-4.69,8.12-7.11,12.93l-.27.52L55.93,103Zm28.2,104.68,26,21.86,5.5-16.15-26-21.85ZM14.44,108.79A153.25,153.25,0,0,0,10.06,124l-.1.43L40,149.78l5.49-16.15L14.78,107.76Zm37.41,51,26,21.85,5.49-16.14-26-21.86Z"/><path class="cls-7" d="M34.32,95.1l-10-8.45-.86,1.82c-1.83,3.86-3.56,7.9-5.15,12l11.06,9.3ZM125.81,112l-26-21.85-5,14.63,26,21.86Zm-84.64,7.73,26,21.86,5-14.64-26-21.85ZM163.6,143.78l-26-21.86-5,14.64,26,21.86ZM99,119.44,73,97.58l-5,14.64,26,21.86Zm37.79,31.81-26-21.85-5,14.63,26,21.86Zm-15-54,26,21.86,5-14.64-26-21.86Zm15.92-46.76,26,21.85,5-14.64-26-21.85Zm57.79-.26-26-21.86-5,14.64,26,21.86ZM179.52,97l-26-21.85-5,14.64,26,21.85ZM45.26,134.39,15.14,109a150.37,150.37,0,0,0-4.35,15.17L40.27,149ZM83.93,65.45l26,21.86,5-14.64-26-21.85ZM61.17,87.62,35.26,65.81c-2.66,4.39-5,8.73-7.08,12.87l28,23.58Zm96.47-69.19-8.75-7.37q-1.12,0-2.28,0c-4.51.24-10.81.76-18.05,1.69l24.1,20.29ZM9.2,135.61c0,3.79,2,10,5.32,17.65l3.88-11.4-9.16-7.71C9.21,134.66,9.2,135.14,9.2,135.61ZM110.79,58l26,21.86,5-14.64-26-21.86Zm-53.71,15L83,94.79l5-14.64-26-21.86Zm-6.85-24.6-1.3-1.09a113.31,113.31,0,0,0-9,11.3L45.25,63Zm26.86-7.47L66.56,32A89.68,89.68,0,0,0,55,41.09L72.1,55.5Zm26.85-7.48L89.58,21.29a114.43,114.43,0,0,0-15.07,6.15L99,48ZM233.22,82.07l-26-21.86-5,14.64,26,21.85Zm-51.84,125.6L197,220.82a118.87,118.87,0,0,0,10.2-10.24L186.36,193Zm-53.7,14.94,26,21.86,5-14.64-26-21.85Zm26.85-7.47,22.84,19.23c2.81-1.72,5.94-3.69,9.56-6,1.06-.67,2.13-1.38,3.2-2.14L159.51,200.5ZM63,198.27l26,21.86,5-14.64L68,183.64Zm112.39-116,26,21.86,5-14.64-26-21.86Zm-74.6,147.77,16.07,13.53a95.13,95.13,0,0,0,23.19,2.29l1.8-.08-36.08-30.38Zm107.41-29.9,4.5,3.79c2.92-3.68,5.77-7.59,8.51-11.67l-8-6.76Zm10-100.69-5,14.64,32.91,27.7a112.82,112.82,0,0,0,3.17-16.16Zm6,53.93,13,11c1.85-3.84,3.58-7.71,5.18-11.57.3-.73.59-1.45.87-2.18l-14.1-11.86ZM197.3,160.9,225.94,185c2.54-4.13,5-8.39,7.26-12.72l-30.92-26Zm-49.62,29.64-26-21.85-5,14.63,26,21.86ZM83,166.2l-26-21.85L52.1,159l26,21.86Zm26.86-7.47-26-21.86-5,14.64,26,21.86Zm-84.65,7.73,26,21.85,5-14.63-26-21.86ZM120.83,198l-26-21.86-5,14.64,26,21.86Zm53.71-15-26-21.86-5,14.64,26,21.86ZM130.79,25.91,117.24,14.5c-5.75,1-11.78,2.27-17.79,3.86l26.36,22.19Zm28.72,103.18,26,21.85,5-14.64-26-21.85Zm41.88,46.5-26-21.85-5,14.64,26,21.85Zm15.91-46.76-26-21.86-5,14.64,26,21.86Z"/><path class="cls-8" d="M138.3,131.51s-.1-.77,10.54,8.18,11.32,10.17,11.32,10.17Z"/><path class="cls-9" d="M168.9,124.07s0-.72,9.07,7,9.66,8.81,9.66,8.81Z"/><path class="cls-10" d="M218.79,105.61s-.07-.75,10.08,7.81,10.8,9.74,10.8,9.74Z"/><path class="cls-10" d="M225.7,119s.06-.64,6.78,5.12,7,6.69,7,6.69Z"/><path class="cls-10" d="M147.41,169.33s-.09-.77,10.54,8.18,11.32,10.17,11.32,10.17Z"/><path class="cls-10" d="M70.2,188.33s0-.7,8.6,6.6,9.12,8.37,9.12,8.37Z"/><path class="cls-10" d="M75,203.61s.08-.63,6.37,4.78,6.57,6.3,6.57,6.3Z"/><path class="cls-10" d="M123.15,174.34s-.15-.64,9.95,7.8,10.82,9.53,10.82,9.53Z"/><path class="cls-10" d="M152.46,165.84s-.12-.63,9.38,7.32,10.16,9,10.16,9Z"/><path class="cls-10" d="M108.83,136.22s.1-.61,5.93,4.43,6.08,5.9,6.08,5.9Z"/><path class="cls-10" d="M84.07,146.39s.1-.61,5.94,4.43,6.07,5.9,6.07,5.9Z"/><path class="cls-10" d="M99.79,102.27s.06-.64,6.94,5.25,7.22,6.83,7.22,6.83Z"/><path class="cls-11" d="M126.79,88.36s-.11-.78,10.88,8.45,11.71,10.49,11.71,10.49Z"/><path class="cls-10" d="M202.3,153.33s-.05-.73,9.59,7.41S222.14,170,222.14,170Z"/><path class="cls-10" d="M91.63,56.69s0-.69,8.31,6.37,8.78,8.1,8.78,8.1Z"/><path class="cls-10" d="M130.11,44.45s-.37.29,2.44-8.77,3.31-9.84,3.31-9.84Z"/><path class="cls-10" d="M154.71,41.94s-.36.29,2.45-8.76,3.3-9.84,3.3-9.84Z"/><path class="cls-12" d="M69.57,109.26s.05-.65,6.94,5.25,7.22,6.83,7.22,6.83Z"/><path class="cls-12" d="M98.52,188.74s0-.7,8.53,6.54,9,8.3,9,8.3Z"/><path class="cls-10" d="M88.54,114.06s.17-.55,4.18,3,4.07,4.27,4.07,4.27Z"/><path class="cls-13" d="M73.83,72.08s0-.47,5.07,3.83,5.26,5,5.26,5Z"/><path class="cls-14" d="M145.07,42.91s.06-.6,6.44,4.87,6.69,6.33,6.69,6.33Z"/><path class="cls-14" d="M55.16,37s.05-.59,6.43,4.87,6.69,6.34,6.69,6.34Z"/><path class="cls-14" d="M81,27.73s0-.65,8,6.1,8.42,7.74,8.42,7.74Z"/><path class="cls-14" d="M171.2,37.14s-.06-.69,9.2,7.11,9.84,8.9,9.84,8.9Z"/><path class="cls-14" d="M153,55.06s.14-.53,4.4,3.21,4.37,4.44,4.37,4.44Z"/><path class="cls-14" d="M181.68,72.38s.14-.53,4.4,3.21S190.45,80,190.45,80Z"/><path class="cls-14" d="M179.1,78.6s.08-.57,5.81,4.37,6,5.75,6,5.75Z"/><path class="cls-10" d="M100.79,93.28s-.05-.36,5,3.9,5.39,4.83,5.39,4.83Z"/><path class="cls-15" d="M199.4,181.39q-1.47-1.26-3.33-2.82c-10.63-8.94-10.54-8.18-10.54-8.18l13.7,11.49Z"/><path class="cls-10" d="M138.47,103.88l11.18,9.33.17-.52C138.3,103.11,138.47,103.88,138.47,103.88Z"/><path class="cls-10" d="M161.61,122.76l-.11.34,3.67,3.06A32.51,32.51,0,0,0,161.61,122.76Z"/><path class="cls-10" d="M176.11,106.19c-2.22-2-5.35-4.68-9.75-8.38-14.19-11.92-14.05-10.92-14.05-10.92l23.63,19.8Z"/><path class="cls-10" d="M140.38,69.4l.19-.56c-2.08-1.82-4.78-4.14-8.31-7.1-14.19-11.93-14-10.93-14-10.93Z"/><path class="cls-10" d="M113.6,49.39l-.15.43L122,57l4.81,3.75c-1.48-1.31-8.26-7.21-11.19-9.67C114.92,50.48,114.23,49.91,113.6,49.39Z"/><path class="cls-10" d="M215.11,135.43c-1.34-1.18-3-2.65-5.19-4.46-9.65-8.14-9.59-7.41-9.59-7.41L215,135.88Z"/><path class="cls-10" d="M190.1,109.9l22.39,18.77s-.94-1.61-15.14-13.54c-2.91-2.45-5.22-4.35-7-5.83Z"/><path class="cls-10" d="M86.8,57l-.15.46,15,12.68s-.57-1.12-9.91-9C89.68,59.36,88.06,58,86.8,57Z"/><path class="cls-14" d="M75,46.58c-1-.88-2.19-1.91-3.64-3.14-7.93-6.72-7.92-6.08-7.92-6.08L74.84,47Z"/><path class="cls-10" d="M204.72,94.06l-3.56-3c-11-9.23-10.88-8.45-10.88-8.45l14.27,12Z"/><path class="cls-10" d="M121.54,178.56c-1-.86-1.89-1.59-2.64-2.2l-.13.38,10.28,8.66S128.62,184.54,121.54,178.56Z"/><path class="cls-10" d="M171,193.16c-.95-.81-2.06-1.76-3.37-2.86-8.1-6.82-8-6.24-8-6.24l11.27,9.46Z"/><path class="cls-10" d="M132.78,162.64c-1.21-1.07-2.82-2.45-4.94-4.24-8.11-6.81-8-6.23-8-6.23L132.67,163Z"/><path class="cls-10" d="M109,161c-1.48-1.29-3.35-2.9-5.72-4.9-10.48-8.82-10.4-8.06-10.4-8.06l16,13.41Z"/><path class="cls-10" d="M157.72,231.94c-1.31-1.14-2.89-2.49-4.78-4.08-10.64-9-10.54-8.18-10.54-8.18l15.16,12.72Z"/><path class="cls-10" d="M45.33,108l-.17.48,15,12.6s-.63-1.17-10.6-9.57C47.87,110.11,46.48,109,45.33,108Z"/><path class="cls-10" d="M60,90.63c-1-.93-2.33-2.11-4.09-3.62C49,81.12,49,81.76,49,81.76l10.89,9.3Z"/><path class="cls-12" d="M80.67,173.16c-1.33-1.22-3.24-2.9-6-5.22-8.54-7.24-8.53-6.54-8.53-6.54l14.37,12.15Z"/><path class="cls-10" d="M178,227.85c-10.62-8.94-10.53-8.17-10.53-8.17l10.06,8.44Z"/><path class="cls-10" d="M130.65,213.46l-.18.51,12.38,10.39s-.69-1.23-11.33-10.17Z"/><path class="cls-10" d="M157.81,205.48l-.18.52,12.1,10.15S169,214.93,158.41,206Z"/><path class="cls-10" d="M55.05,177.05l-.53-.45C43.88,167.65,44,168.42,44,168.42l10.9,9.14Z"/><path class="cls-10" d="M171.48,186l1.47,1.23.09-.3C171.46,185.74,171.48,186,171.48,186Z"/><path class="cls-10" d="M185,196.62l-.17.5,8.57,7.19S192.79,203.32,185,196.62Z"/><path class="cls-10" d="M225.33,150.12l11.29,9.49.18-.51-1.4-1.18C225.25,149.37,225.33,150.12,225.33,150.12Z"/><path class="cls-10" d="M229.43,150.12l8.1,6.81.18-.52C229.36,149.46,229.43,150.12,229.43,150.12Z"/><path class="cls-14" d="M102.18,37.72l-1.63-1.41c-6.38-5.47-6.43-4.87-6.43-4.87l7.9,6.75Z"/><path class="cls-14" d="M165.66,39.24l-.12.36L178,50.08s-.49-.91-8.23-7.44C168.05,41.18,166.7,40.08,165.66,39.24Z"/><path class="cls-14" d="M127.15,36.52l-2-1.73c-6.39-5.46-6.44-4.87-6.44-4.87L127,37Z"/><path class="cls-16" d="M169.27,67.49c-3.15,9.8-2.52,9.55-2.52,9.55l6.43-20.13S172.41,57.69,169.27,67.49Z"/><path class="cls-16" d="M137.12,91.4l3.25-10.57s-.61,1-3.61,10.27Z"/><path class="cls-16" d="M99.17,82.53S98,84.66,90.25,108.82c-.28.9-.56,1.76-.82,2.59l.44.38Z"/><path class="cls-16" d="M107.86,128.39l3.22-10-.31-.26C107.42,129,107.86,128.39,107.86,128.39Z"/><path class="cls-16" d="M126,142.18l.42.35,5.67-18.5S131.15,125.66,126,142.18Z"/><path class="cls-16" d="M204.08,108.62l6.78-21.21s-.81.83-4.12,11.15S204.08,108.62,204.08,108.62Z"/><path class="cls-16" d="M169.64,84.05c-.48,1.52-.85,2.72-1.14,3.69l.31.26,3.94-12.34S172.14,76.28,169.64,84.05Z"/><path class="cls-16" d="M134.89,44.36s-.63,1.37-4.09,11.64l.27.23Z"/><path class="cls-16" d="M62,118.4l.44.37L70.92,92.1S69.7,94.22,62,118.39Z"/><path class="cls-16" d="M57.53,114.64l.28.23L63,98.45S62.27,99.77,57.53,114.64Z"/><path class="cls-16" d="M71.32,89.84l1.21-3.91-.31-.26C71,90.07,71.32,89.84,71.32,89.84Z"/><path class="cls-16" d="M126,50.3a12.71,12.71,0,0,0-.52,1.24l.11.09Z"/><path class="cls-16" d="M99.79,60l.44.37,7.59-24.56s-1,1.66-7,20.75Z"/><path class="cls-16" d="M155.64,125.23c-1.21,3.92-2.14,7-2.86,9.44l.4.34,9.43-30.53S161.56,106.14,155.64,125.23Z"/><path class="cls-16" d="M76.7,70.62l.44.37,6.3-20.39S82.42,52.21,76.7,70.62Z"/><path class="cls-16" d="M159.09,170.06,166,147.49s-1.06,1.89-7.36,22.2Z"/><path class="cls-16" d="M132.21,177.51l6.68-21.82s-1,1.85-7.12,21.46Z"/><path class="cls-16" d="M76.11,58.8l5.75-18.6s-.5.78-3.3,9.84S76.11,58.8,76.11,58.8Z"/><path class="cls-16" d="M196.56,201.61l.26.22,8.8-27.84s-.86,1.65-6.72,20.16C198,197.1,197.2,199.56,196.56,201.61Z"/><path class="cls-17" d="M94,145.34l.43.37L101.08,124S100.05,125.86,94,145.34Z"/><path class="cls-16" d="M55.14,141.75l2.58-8.12-.37-.31C54.7,142.17,55.14,141.75,55.14,141.75Z"/><path class="cls-16" d="M120.6,66.25c-.57,1.8-1.19,3.8-1.88,6-6.23,20.21-5.48,19.55-5.48,19.55L121,66.59Z"/><path class="cls-16" d="M40.28,105.17c-2.8,9-2.44,8.77-2.44,8.77l5.75-18.61S43.09,96.11,40.28,105.17Z"/><path class="cls-16" d="M125.92,70.73C124.27,75.79,122.31,81.81,120,89c-1.77,5.48-3.28,10.2-4.57,14.26l.4.34,10.47-32.52Z"/><path class="cls-16" d="M183.18,107.8s-.81.83-4.13,11.15c-.87,2.73-1.47,4.72-1.88,6.17l.37.32Z"/><path class="cls-16" d="M127.59,122.36l4.93-16-.43-.36C126.92,122.94,127.59,122.36,127.59,122.36Z"/><path class="cls-16" d="M152.25,117.17,158.36,98l-.23-.2c-.62,1.54-1.63,4.31-3.22,9.26C151.59,117.42,152.25,117.17,152.25,117.17Z"/><path class="cls-16" d="M182,123.29l8.3-26.4s-.86,1.07-4.91,13.92S182,123.29,182,123.29Z"/><path class="cls-16" d="M147.17,76.15c-3.15,9.79-2.52,9.55-2.52,9.55l6.43-20.13S150.31,66.35,147.17,76.15Z"/><path class="cls-16" d="M29.61,121.21l.3.26L36,101.82s-.75,1.18-5,14.75C30.47,118.35,30,119.88,29.61,121.21Z"/><path class="cls-16" d="M104.43,184.21l.86-2.72a27.28,27.28,0,0,0-1,2.6Z"/><path class="cls-16" d="M214.5,150.07c-.6,1.91-1.14,3.6-1.61,5.13l.27.22,8.07-25.51S220.37,131.56,214.5,150.07Z"/><path class="cls-16" d="M81.5,195l.21.17,8.66-27.22s-.77,1.33-5.61,16.54C83.16,189.5,82.14,192.81,81.5,195Z"/><path class="cls-16" d="M41.91,161.66l.26.21,7.42-23.32s-.77,1.34-5.61,16.54C43.14,157.72,42.46,159.88,41.91,161.66Z"/><path class="cls-16" d="M83.39,132.19l1.76-5.55-.32-.27C83,132.52,83.39,132.19,83.39,132.19Z"/><path class="cls-16" d="M215.88,157.71l3.53-11.17s-.56,1.06-3.78,11Z"/><path class="cls-16" d="M173.38,206.68c-.5,1.59-1,3-1.37,4.35l.28.23,7.82-24.74S179.24,188.17,173.38,206.68Z"/><path class="cls-16" d="M99.43,198.83c-4.57,14.38-4.07,13.9-4.07,13.9l4.35-13.67Z"/><path class="cls-16" d="M100.48,208.85c-4.84,15.2-4.32,14.7-4.32,14.7l6.89-21.67-.25-.21C102.15,203.63,101.39,206,100.48,208.85Z"/><path class="cls-16" d="M207.38,184.58l3.79-12-.27-.23C206.94,185.08,207.38,184.58,207.38,184.58Z"/><path class="cls-16" d="M160.35,37.58s-.5.78-3.31,9.84c0,.16-.1.31-.14.47l.21.18Z"/><path class="cls-16" d="M51.07,76.47c-.23.75-.44,1.44-.65,2.11l.32.26L56,61.73S55.28,62.9,51.07,76.47Z"/><path class="cls-16" d="M61.17,173.76l1.8-5.63-.33-.27C60.83,174.1,61.17,173.76,61.17,173.76Z"/><path class="cls-16" d="M67.24,152.9l.45.37L77,124.11S75.74,126.23,68,150.4C67.76,151.27,67.5,152.1,67.24,152.9Z"/><path class="cls-16" d="M121.45,223.55l7.33-22.8s-.65.95-4.23,12S121.45,223.55,121.45,223.55Z"/><path class="cls-16" d="M195.05,62.38s-.77.78-3.91,10.58c-.36,1.11-.67,2.1-.94,3l.41.34Z"/><path class="cls-16" d="M150.74,197.31,154.5,185l-.41-.34C150.19,197.85,150.74,197.31,150.74,197.31Z"/><path class="cls-16" d="M123.63,205.51l4-13-.42-.35C123.05,206.08,123.63,205.51,123.63,205.51Z"/><path class="cls-17" d="M85.81,173.84l4-13.16-.42-.35C85.23,174.41,85.81,173.84,85.81,173.84Z"/><path class="cls-16" d="M121.37,157.14c-5.24,17.36-4.58,16.7-4.58,16.7l5-16.34Z"/><path class="cls-16" d="M149.47,217.17l7.33-22.8s-.65.95-4.23,12S149.47,217.17,149.47,217.17Z"/><path class="cls-16" d="M196.74,130.35c-.52,1.33-2.11,5.74-6.5,19.61-2,6.19-3.2,10.24-4,12.89l.21.18,10.32-32.65Z"/><path class="cls-16" d="M175.9,190.74l4.5-14-.27-.22c-.34,1-.71,2.17-1.13,3.46C175.42,191.08,175.9,190.74,175.9,190.74Z"/><path class="cls-16" d="M206.88,120.06l5.94-19.39s-.94,1.69-6.36,19Z"/><path class="cls-16" d="M197.56,150.49,202.3,135l-.43-.37C196.92,151.12,197.56,150.49,197.56,150.49Z"/><path class="cls-16" d="M185.23,182.08c-5.87,18.51-5.3,17.88-5.3,17.88l5.89-18.64-.28-.24C185.44,181.41,185.33,181.74,185.23,182.08Z"/><path class="cls-16" d="M190.52,166.45l1.43-4.53s-.28.53-1.59,4.39Z"/><path class="cls-18" d="M134.67,130.81a101.38,101.38,0,0,1,9.39,7.4c6.24,5.34,9.77,8.73,9.77,8.73Z"/><path class="cls-19" d="M115.07,138.4a102.07,102.07,0,0,1,9.4,7.4c6.24,5.35,9.77,8.73,9.77,8.73Z"/><path class="cls-19" d="M96.16,101.57s4,2.73,12,9.56,12.62,11.1,12.62,11.1Z"/><path class="cls-20" d="M70.8,106.43s4,2.73,12,9.56,12.61,11.1,12.61,11.1Z"/><path class="cls-21" d="M103.22,101a100.34,100.34,0,0,1,9.4,7.4c6.24,5.34,9.77,8.73,9.77,8.73Z"/><path class="cls-21" d="M45.81,113.11a102.07,102.07,0,0,1,9.4,7.4c6.24,5.35,9.77,8.73,9.77,8.73Z"/><path class="cls-21" d="M38.75,76.05a102.07,102.07,0,0,1,9.4,7.4c6.24,5.35,9.77,8.73,9.77,8.73Z"/><path class="cls-21" d="M45.76,118.69a111.59,111.59,0,0,1,9.86,7.78c6.55,5.61,10.27,9.15,10.27,9.15Z"/><path class="cls-19" d="M65.71,68.23a102.07,102.07,0,0,1,9.4,7.4c6.23,5.34,9.77,8.73,9.77,8.73Z"/><path class="cls-22" d="M85.76,62.36a127.64,127.64,0,0,1,10.56,8.36c7,6,11,9.79,11,9.79Z"/><path class="cls-19" d="M136,126.53l15.82,13.31s-4.46-4.27-12.34-11c-1.19-1-2.29-1.94-3.3-2.78Z"/><path class="cls-19" d="M172.28,163.5l12.86,10.82s-3.62-3.47-10-9c-1-.83-1.86-1.58-2.68-2.26Z"/><path class="cls-21" d="M116.66,58.55c-1.78-1.52-3.34-2.81-4.69-3.91l-.13.37L128.43,69S124.15,65,116.66,58.55Z"/><path class="cls-21" d="M138.59,74.51a79,79,0,0,0-8.15-6.36l8,6.76Z"/><path class="cls-21" d="M124,90.33l-.05.18,4.45,3.73S126.9,92.85,124,90.33Z"/><path class="cls-21" d="M96.69,67.62l15.46,13,.13-.4-.19-.16C101.73,71.24,96.69,67.62,96.69,67.62Z"/><path class="cls-21" d="M150.39,111l.11-.32c-4.4-3.54-6.57-5.1-6.57-5.1Z"/><path class="cls-21" d="M162.36,120.57l-.13.37,13.44,11.27S170.85,127.83,162.36,120.57Z"/><path class="cls-18" d="M160.31,85.79c-3.4-2.9-6.11-5.09-8.14-6.69l-.1.29L173.65,97.5S168.79,93,160.31,85.79Z"/><path class="cls-18" d="M236.14,149.89c-3-2.59-4.14-3.28-5.95-4.72l-1.43-1,19.33,16.23S243.74,156.36,236.14,149.89Z"/><path class="cls-21" d="M147.49,54.58c-4-3.38-7-5.78-9-7.35l-.08.24,21.93,18.42S155.66,61.54,147.49,54.58Z"/><path class="cls-21" d="M166.63,63.52c-2-1.81-4.56-4.07-7.62-6.69a133.29,133.29,0,0,0-12.28-9.67l19.8,16.66Z"/><path class="cls-22" d="M178.15,73.94l-.14.4,12.58,10.57s-4-3.78-11-9.78C179.07,74.71,178.6,74.32,178.15,73.94Z"/><path class="cls-21" d="M176.84,104.13c-1.15-1-2.52-2.23-4.07-3.57a80.18,80.18,0,0,0-8.33-6.51l12.31,10.37Z"/><path class="cls-22" d="M94.27,60.62c-2.84-2.42-5.11-4.25-6.8-5.57l-.1.29L105.3,70.41S101.3,66.63,94.27,60.62Z"/><path class="cls-22" d="M132.62,90.62c-2.9-2.48-5.21-4.34-6.91-5.66l-.1.28,18,15.17S139.65,96.63,132.62,90.62Z"/><path class="cls-18" d="M186.82,146.9c-1.63-1.47-3.85-3.45-6.61-5.81a101.38,101.38,0,0,0-9.39-7.4l15.93,13.41Z"/><path class="cls-18" d="M203.07,157.88c-1.39-1.2-2.63-2.23-3.71-3.11l-.13.38,13.61,11.46S209.31,163.22,203.07,157.88Z"/><path class="cls-21" d="M73.87,49.86c-2-1.8-4.59-4-7.58-6.55C57.75,36,53.54,33.11,53.54,33.11l20.25,17Z"/><path class="cls-20" d="M226,148.05l0,.06,1.46,1.22Z"/><path class="cls-20" d="M190.63,118.5l23.49,19.68.11-.33c-1.77-1.52-3.7-3.17-5.79-4.93C196.42,122.75,190.63,118.5,190.63,118.5Z"/><path class="cls-18" d="M135.09,155.84l0-.09-1-.72Z"/><path class="cls-18" d="M147.79,166l-.72-.61-.14.4,15.29,12.83S157,173.77,147.79,166Z"/><path class="cls-18" d="M181.36,163.4c-3-2.5-5.4-4.52-7.39-6.12l-.11.34L195.79,176S190.52,171.18,181.36,163.4Z"/><path class="cls-20" d="M106.28,169.42l.17-.5C92.72,157.36,86.09,152.5,86.09,152.5Z"/><path class="cls-20" d="M118.24,179l-.12.36,13.1,11S126.58,186.16,118.24,179Z"/><path class="cls-21" d="M53.51,154.3l-.14.41,12.52,10.53s-3.72-3.54-10.27-9.15Z"/><path class="cls-21" d="M57.63,97.66l-1.51-1.3a100.34,100.34,0,0,0-9.4-7.4L57.5,98Z"/><path class="cls-19" d="M160.76,204.83c-.81-.69-1.58-1.35-2.33-2l-.22.65L176.5,218.9S170.81,213.45,160.76,204.83Z"/><path class="cls-23" d="M104.39,220l-.11.32,14.62,12.24S113.67,228,104.39,220Z"/><path class="cls-23" d="M92.44,210.42l.13-.4c-12-10-17.75-14.34-17.75-14.34Z"/><path class="cls-20" d="M55.79,148.44l-.16.47L73.86,164.2S67.28,158.23,55.79,148.44Z"/><path class="cls-20" d="M43.79,139l.15-.42c-6.3-5.1-9.39-7.32-9.39-7.32Z"/><path class="cls-20" d="M82.6,141l-.12.34L97.12,153.6S91.85,148.89,82.6,141Z"/><path class="cls-20" d="M70.64,131.42l.12-.35c-6.36-5.2-9.46-7.47-9.46-7.47Z"/><path class="cls-20" d="M91,186.18l-.15.44,14.52,12.25s-3.51-3.47-9.79-8.89C93.85,188.45,92.32,187.2,91,186.18Z"/><path class="cls-20" d="M120.14,200.78c-2.14-1.87-4.68-4.08-7.6-6.57-9.76-8.32-14.6-11.63-14.6-11.63L120,201.13Z"/><path class="cls-23" d="M129.52,216.78l-.13.36,18.44,15.44S141.17,226.68,129.52,216.78Z"/><path class="cls-23" d="M117.55,207.23l.13-.39c-9.4-7.77-13.92-11.16-13.92-11.16Z"/><path class="cls-23" d="M53.51,181.59l.13-.4C41,170.59,35,166.06,35,166.06Z"/><path class="cls-23" d="M65.45,191.2l-.1.31L79,203S74.16,198.64,65.45,191.2Z"/><path class="cls-19" d="M184,199.57l-.2.6,13.41,11.29S192.42,206.91,184,199.57Z"/><path class="cls-18" d="M245.83,132.89c-2.94-2.59-6.56-5.72-10.78-9.31-5-4.3-6.85-5.44-9.85-7.81l-2.36-1.69,22.86,19.19Z"/><path class="cls-21" d="M101.14,40.78l-4.32-3.7c-8.54-7.27-12.75-10.19-12.75-10.19l17,14.23Z"/><path class="cls-21" d="M178.21,47c-5.64-4.79-9.59-7.92-11.9-9.69l-.06.17,25.9,21.73,0-.06C190,57.27,185.21,53,178.21,47Z"/><path class="cls-21" d="M128.06,33.86l.14-.4C117.94,24.86,113,21.23,113,21.23Z"/><path class="cls-21" d="M140,43.51l-.09.28,9.19,7.7S145.85,48.58,140,43.51Z"/><path class="cls-24" d="M56.06,51.22a89.3,89.3,0,0,1-3.37,11C50,69.7,48.18,74,48.18,74Z"/><path class="cls-25" d="M113.31,101.43c.74-2.06,1.56-4.34,2.43-6.81,4.51-12.86,6-18.92,6-18.92L113,101.15Z"/><path class="cls-25" d="M96.52,147.47l.31.25c.94-2.58,2-5.56,3.19-8.9,4.51-12.86,6-18.92,6-18.92Z"/><path class="cls-25" d="M161.79,172.34l.25-1-.31.9Z"/><path class="cls-25" d="M140.05,93.87c1.41-4.57,1.94-6.78,1.94-6.78l-2.24,6.53Z"/><path class="cls-25" d="M100.47,150.8l.34.28c1.79-5.67,2.45-8.4,2.45-8.4Z"/><path class="cls-26" d="M146.1,147.87l-10.55,30.7s3-7.53,7.53-20.39c1.4-4,2.5-7.31,3.36-10Z"/><path class="cls-25" d="M149.78,151l-5.57,16.21s2.31-5.8,5.93-15.9Z"/><path class="cls-25" d="M150.51,77.9l-6.58,19.24.38.31C148.72,84.17,150.51,77.9,150.51,77.9Z"/><path class="cls-25" d="M107.53,182s3-7.53,7.52-20.38q1.52-4.31,2.59-7.6l-.38-.33Z"/><path class="cls-25" d="M55.58,113l0,0c.8-2,3.52-9.06,7.28-19.77,1.78-5.06,3.08-9.06,4-12.06l-.3-.25Z"/><path class="cls-25" d="M137.73,27.87l-7.87,22.81s1.85-4.34,4.51-11.79A90,90,0,0,0,137.73,27.87Z"/><path class="cls-25" d="M174.26,141.51,163.8,172s3-7.53,7.53-20.39c1.35-3.86,2.43-7.11,3.28-9.77Z"/><path class="cls-25" d="M225.24,124.26l-11,32.06.1.09c1.26-3.28,3.53-9.34,6.43-17.59,2.28-6.49,3.78-11.24,4.71-14.36Z"/><path class="cls-25" d="M170.68,138.49l-8,23.44s3.12-8.38,8.34-23.17Z"/><path class="cls-25" d="M93,74.34,82.33,105.43l.23.2c1.21-3.25,2.73-7.42,4.47-12.38C91.55,80.39,93,74.34,93,74.34Z"/><path class="cls-25" d="M151,126.39s3-7.52,7.53-20.38q1.17-3.33,2.07-6.05l-.4-.34Z"/><path class="cls-25" d="M155.14,136.65c1.88-5.93,2.57-8.78,2.57-8.78l-2.92,8.49Z"/><path class="cls-21" d="M134.73,108.22l-6.24,18.17s2.61-6.54,6.63-17.84Z"/><path class="cls-25" d="M86.27,108.76l.4.33.36-1c4.52-12.86,6-18.92,6-18.92Z"/><path class="cls-21" d="M139.27,112.29l.06-.19-.4-.34-11,32.09.11.09C130.3,137.81,134.2,126.92,139.27,112.29Z"/><path class="cls-27" d="M111.39,190.07c3.11-9.27,4.17-13.67,4.17-13.67L111,189.73Z"/><path class="cls-25" d="M72,156.92c3.26-9.65,4.37-14.24,4.37-14.24l-4.77,13.89Z"/><path class="cls-25" d="M88.91,43.58,79,72.52l.27.24c1.06-2.88,2.3-6.32,3.69-10.27C87.45,49.64,88.91,43.58,88.91,43.58Z"/><path class="cls-25" d="M44,163.43l.08.06c1.18-3.06,3.58-9.4,6.71-18.3,2.1-6,3.54-10.49,4.48-13.61l-.25-.21Z"/><path class="cls-25" d="M110.5,43.36c1.82-5.18,3.14-9.25,4.07-12.27l-.29-.25-11,32.06,0,0C104.18,60.65,106.85,53.74,110.5,43.36Z"/><path class="cls-25" d="M200,198.84s3-7.53,7.52-20.38c.91-2.59,1.69-4.9,2.37-6.94l-.39-.33Z"/><path class="cls-25" d="M140.21,33.6c1.31-3.66,2.21-6.52,2.83-8.63l-.29-.24-7.88,22.84S137.06,42.43,140.21,33.6Z"/><path class="cls-25" d="M62.88,182s1.51-3.78,4-10.56l-.28-.24Z"/><path class="cls-27" d="M102.06,215.7s1.59-4,4.2-11.12l-.29-.25Z"/><path class="cls-25" d="M195.47,71.61c4.52-12.86,6-18.92,6-18.92l-8.71,25.37.33.29C193.81,76.3,194.62,74.05,195.47,71.61Z"/><path class="cls-25" d="M35.88,108.21s1.85-4.34,4.51-11.79c.82-2.31,1.46-4.25,2-5.82l-.3-.25Z"/><path class="cls-27" d="M148.54,210.69s3-7.53,7.52-20.39c.38-1.06.73-2.08,1.06-3.06l-.41-.34Z"/><path class="cls-28" d="M123.25,225.27s3-7.53,7.52-20.38c1-2.86,1.86-5.39,2.58-7.58L133,197Z"/><path class="cls-25" d="M89.76,182s2.37-5.93,6.06-16.27l-.36-.31Z"/><path class="cls-25" d="M79.51,128.44s.69-1.73,1.9-4.94l-.16-.14Z"/><path class="cls-25" d="M175.68,123.86l.4.34c6.25-18,9.49-28.59,10.63-32.38l-.06,0Z"/><path class="cls-25" d="M191.85,96.15,188,107.49s1.59-4,4.19-11.09Z"/><path class="cls-25" d="M201.45,68.18l-4.58,13.36.4.34C200.39,72.6,201.45,68.18,201.45,68.18Z"/><path class="cls-29" d="M189.55,159.2s3-7.53,7.52-20.38q1.23-3.52,2.17-6.36l-.39-.34Z"/><path class="cls-25" d="M173.83,209.55s3-7.53,7.52-20.38c1.24-3.52,2.24-6.53,3.05-9l-.36-.31Z"/><path class="cls-30" d="M116.74,183.32l.62.52,5-14.63-.62-.52Zm32.45-93,5-14.63-.61-.52-5,14.64ZM79,151.51l.62.52,5-14.64-.61-.52ZM41.17,119.69l.61.52,5-14.64-.61-.51ZM111.4,58.5l5-14.64-.61-.52-5,14.64ZM99.85,90.11l-5,14.63.62.52,5-14.63Zm33.42,47,5-14.64-.62-.52-5,14.64Zm-32.44,93,.61.52,5-14.64-.61-.52ZM63,198.27l.61.52,5-14.64-.62-.51ZM25.25,166.46l.62.52,5-14.64-.62-.52ZM170.09,28.91l-.62-.52-5,14.64.62.52Zm-108,29.38-5,14.64.62.52,5-14.64Zm145.82,2.44-.62-.52-5,14.64.61.52Zm16.27,92.7.62.52,5-14.64-.62-.52Zm-69.62,61.71.62.52,5-14.64-.62-.52Zm53.71-14.95.61.52,5-14.64-.61-.52Zm-37.79-31.81.61.51,5-14.63-.62-.52ZM187,122.13l5-14.64-.62-.52-5,14.64Z"/><path class="cls-31" d="M142.7,205.18l5-14.64-.92-.78-5,14.64Zm-37.79-31.81,5-14.64L109,158l-5,14.63Zm91.5,16.86,5-14.64-.93-.78-5,14.64Zm20.89-61.4-.92-.78-5,14.64.92.78ZM195.43,50.25l-.93-.78-5,14.64.93.78ZM158.62,158.42l5-14.64-.93-.78-5,14.64ZM179.52,97l-.93-.78-5,14.64.92.78ZM141.73,65.2l-.88-.74-5,14.63.89.75Zm-74.6,76.35,5-14.64-.93-.78-5,14.64Zm-16.85,46,.93.78,5-14.63-.92-.78Zm37.8,31.83.92.77,5-14.64-.92-.77ZM13.86,151.71l.66,1.55,3.88-11.4-.92-.78ZM157.64,18.43l-.86-.72-5,14.63.87.73ZM50.23,48.33l-.92-.78-5,14.64.92.78ZM34.32,95.1l-.93-.78-5,14.63.93.78Zm69.62-61.72L103,32.6,98,47.24,99,48ZM88,80.15l-.92-.78L82.11,94l.93.78Zm32.81,46.45,5-14.64-.89-.75-5,14.64Zm112-43.43-.76-1.27-4.78,14,.93.78ZM131.77,165.89l5-14.64-.67-.56-5,14.64ZM94,134.08l5-14.64-.67-.57-5,14.64Zm91.49,16.86,5-14.64-.67-.56-5,14.64Zm-37.79-31.81,5-14.64-.66-.56-5,14.63ZM153,243.91l.07.05.82-.15,4.76-14-.67-.56Zm16.58-46.2,5-14.64-.67-.57-5,14.64ZM78.06,180.84l5-14.64-.67-.56-5,14.64Zm-32.8-46.45-.67-.57-5,14.64.67.56ZM61.17,87.62l-.67-.56-5,14.64.67.56ZM77.09,40.86l-.67-.57-5,14.64.66.57Zm38.76,171.8,5-14.64-.67-.57-5,14.64ZM168.58,57.72l-.67-.56-5,14.64.67.56Zm37.79,31.82L205.7,89l-5,14.63.67.57Zm-91.5-16.87-.66-.56-5,14.64.67.56Zm15.92-46.76-.67-.56-5,14.63.67.57Z"/><path class="cls-26" d="M216.43,65.26c-18.77-22.71-44.38-46-62.58-50S100.94,17.56,85,24.38s-39.83,29-39.83,29L26.69,86.83,15.31,124.88s-2,6.18-.2,15.06c1.9,9.69,7.75,22.56,13.65,32.78a280.09,280.09,0,0,0,25.17,36l4.74-4.59A84.21,84.21,0,0,0,73.35,216c28.16,17.6,50.06,21.29,70,21.86s38-11.77,44.81-17.45c3.63-3,16.56-15,16.56-15s2-2.41,5.54-6.3c3.39-3.31,7.12-7.67,7.6-8.88,8.53-10.66,16.59-26.32,21.93-45.45C249.43,110.11,235.21,88,216.43,65.26Zm-7,120.41c-19.93,36.93-43.94,43.42-49.07,44.71-23.61,6-67.28-1.81-88-20.27s-36.68-44.74-36.68-44.74l-1.56-1.11-5.05-4.84c-1.71-3.35-.63-43.29.46-50.29C33.62,82.7,49.3,61.07,59.26,49.72c7.28-8.31,16.31-11.8,45-20.87a83.75,83.75,0,0,1,51.92.71c12.13,4,39.93,23.07,58,53.32C224.29,100,229.61,148.32,209.46,185.67Z"/><path class="cls-32" d="M52.65,20.91l2,1.92.92,5.6a247,247,0,0,0-22,28c-9.57,14.58-19,34.32-19,34.32l-3.64-1.21s10.17-24.3,17.77-37.22,20.41-32.9,20.41-32.9Z"/><path class="cls-33" d="M160.35,12.58s20.74,11.85,46.25,37.36,38.73,51.49,40.33,62.43,1.14,16.17,0,23.69-7.07,27.11-13.67,39-35.09,54.22-62.88,63.79-43.74,6.38-60.6,2.5-39.87-17.77-56.28-33-28-27.34-37.59-50.81-5.46-35.76,3-57.18S33.23,64.3,46.21,49s27.34-22.33,49-29.16,52.85-9.34,57.64-8.89,3.41-1.59,3.41-1.59a96.93,96.93,0,0,0-38.73-4.33C96.11,7.11,73.32,16.45,63.76,22.6S42.34,43.11,36,52,17.28,85,13.86,89.36,7,98.47,5.43,106.44s-5.24,36,10,63.11,27.11,47.39,45.79,59.69,43.51,23.24,69.49,22.55,44.19-8.65,62.65-18.68S226.88,207.6,235.54,191s15.94-39.42,17.31-58.33-5.92-55.36-21.64-72.9S195.89,24.2,180.63,17.82s-19.14-7.75-19.14-7.75Z"/><path class="cls-34" d="M54.5,22.57s-28.1,40-33.94,51.16a169.29,169.29,0,0,0-8,17.51c-2.35,6.08-5,12-6.27,19.2-1.65,9.32-1.21,23.8,1.56,33,11.28,37.45,29.4,60.43,47.16,77.66s57.05,33.18,91.25,27.61,67.33-28.37,78.46-44.27,28.29-51.14,26.1-86.67c-2-32.2-16.4-50.45-32.72-67.07s-43.85-35.8-61.92-40c-24.42-5.7-37.87-5-54.57-1.28S62.85,22.57,48,39,15.4,91.49,15.4,91.49L13,90.3s4.39-8.74,10.73-20.07C32.36,54.8,45,34.51,58.74,24.42,82.6,6.93,115.69.63,137.17,3.28a137.89,137.89,0,0,1,41.41,11.64c15.62,7.31,31.78,18.94,46,34.18,28.36,30.48,30.88,53.33,30.07,82.41-.85,30.35-16.67,62.83-27,75.56s-36.85,36.05-75,43.74S85,246.94,67.74,235.55,42.31,217.06,24.55,190,1.48,140.27,1,124.36,2,103.15,12.88,81.42,52.11,20.18,52.11,20.18Z"/><path class="cls-35" d="M15.4,77.15c10.87-21.74,36.66-57,36.66-57s-.28-.26-3-.73a13.48,13.48,0,0,0-4.17-.2s-19.22,34.2-25,45.33C17.8,68.47,8.2,84.57,5.32,92A77,77,0,0,0,.75,107.53a49.53,49.53,0,0,0-.6,12.52C.25,123.43,2,133,2,133S.65,114,3,105.64s10.23-24,10.23-24Z"/><path class="cls-36" d="M22.4,88.2,10.54,127.92s-2,6.46-.21,15.73c2,10.13,8.07,23.56,14.22,34.24a292.29,292.29,0,0,0,26.24,37.57l4.44-4.23L37.45,190.11S23,171.61,17.66,153.88c-3-10-1.28-22.51,0-29.8C21.22,103.93,28,91.46,28,91.46s9.79-22.23,20.16-34.09C55.78,48.69,64,38.94,94,29.75c37.84-11.62,52.63-10.92,63.3-7.36,12.64,4.21,44.46,33.66,65.36,63.9C234.87,104,240.12,114,241.54,123c.55,3.48-.12,8.44-.45,12.23-1.18,13.64-23.33,56.76-29.26,66.24l-5.93,9.49s28.46-26.09,38.54-62.25-4.75-59.29-24.31-83-46.25-48-65.22-52.17S99.77,15.87,83.17,23s-41.5,30.24-41.5,30.24Z"/><path class="cls-37" d="M21.71,156.05l-1.68.63s21.64,48,51,66.4,52.17,22.24,72.92,22.83,35.87-11.56,43-17.49,31-29.64,31-29.64,9-22,1.34-11.33c-24.46,34-44.44,43.72-57,46.9-24.6,6.22-69.07.89-90.71-18.38s-44.47-54.84-44.47-54.84Z"/><path class="cls-38" d="M165.25,18.32c-6.43-4-12.62-4.79-16.77-5.43-3.93-.59-13.61-.57-29,2.7C102.3,19.25,90.14,20.46,69.91,32,47,45.18,30,71,21.63,96.39s-13,39-8.43,51.14c6.67,17.59,15.62,32.67,22.69,43.55C40,197.33,45,203.42,52.78,213.8L50.5,216a130.42,130.42,0,0,1-17.73-22.05C21.08,175.53,9.16,150.75,8.23,140.3c-1.59-17.89,11.88-53.12,24-75.52,2.9-5.36,10-16.63,20.61-25.34C78,18.83,103,15.57,118.37,12.26c9.3-2,25.95-3.47,30.29-3,3.35.35,11.57,1.71,18.15,5.68,16,9.64,39.11,28.21,54.33,47.65,21.47,27.44,32.14,46.84,29.36,67.52s-14.72,60.52-49.14,89.81A188.14,188.14,0,0,1,180.08,236c-13.73,8.61-26.35,11.85-38.81,11-7-.46-31.12-1.8-47.35-9.34-25.92-12-33.57-19.79-48.95-35-6.64-6.57-26.73-44.82-26.73-44.82l3.47-1.84s24.07,41,27.09,43.54C56.67,206.17,68.5,222,87.47,231a132.06,132.06,0,0,0,52.25,12.45,65.94,65.94,0,0,0,32.68-7.56c20.28-10.34,32.89-26.69,37-30.58,6.37-6,21.75-25.3,31.09-52.07,7-20,6.83-37.07,1.47-49.2s-15.73-33.24-42.77-58.29C184.46,32.09,173,23.14,165.25,18.32Z"/><path class="cls-39" d="M13,147.53c-4.59-12.11.08-25.69,8.43-51.14.17-.53.35-1.07.54-1.61l-2.87-1.11C12.53,110.72,7,129.33,8,140.3c.92,10.45,12.84,35.23,24.53,53.62A130.42,130.42,0,0,0,50.28,216l2.29-2.17c-7.82-10.38-12.83-16.47-16.89-22.72C28.6,180.2,19.65,165.12,13,147.53Z"/><g class="cls-40"><path class="cls-41" d="M26.52,193.32s11.33-8.25,13.32-8.81a9.72,9.72,0,0,1,4.82.12l2.85,3.94s-3.38-1-5.79.28-12.49,8.42-12.49,8.42Z"/><path class="cls-41" d="M29.6,198.06s11.33-8.25,13.32-8.81a11.06,11.06,0,0,1,4.88,0l3,3.83s-3.56-.71-6,.54S32.3,202,32.3,202Z"/></g><path class="cls-42" d="M25.1,192.45S37,183.83,39,183.24a10.17,10.17,0,0,1,5,.13l3,4.11s-3.54-1-6.06.3-13.07,8.81-13.07,8.81Z"/><path class="cls-43" d="M28.47,197.31s11.69-8.53,13.77-9.11a11.66,11.66,0,0,1,5.11,0l3.1,4s-3.72-.74-6.24.57-12.92,8.7-12.92,8.7Z"/><g class="cls-40"><path class="cls-41" d="M254.92,123.87s-7.59-.94-9.64-.37a10.1,10.1,0,0,0-4.18,2.69l-.4,5s2.46-2.66,5.25-2.84a70.4,70.4,0,0,1,8.71.47Z"/><path class="cls-41" d="M254.75,129.69s-7.59-.94-9.64-.37a11.36,11.36,0,0,0-4.31,2.58l-.56,5s2.75-2.53,5.54-2.72a72.38,72.38,0,0,1,8.71.47Z"/></g><path class="cls-44" d="M256,122.25s-8.38-1-10.55-.41a10.64,10.64,0,0,0-4.43,2.85L240.6,130s2.6-2.82,5.56-3a81,81,0,0,1,9.56.51Z"/><path class="cls-45" d="M255.63,128.4s-8.19-1-10.36-.4a12.1,12.1,0,0,0-4.57,2.74l-.59,5.26s2.91-2.68,5.87-2.88a77.84,77.84,0,0,1,9.38.5Z"/><g class="cls-40"><path class="cls-41" d="M168,247.12s-1.21-7.93-2.37-9.83a10.44,10.44,0,0,0-3.91-3.45l-5.14,1s3.38,1.71,4.37,4.48a75.76,75.76,0,0,1,2,8.92Z"/><path class="cls-41" d="M162.05,248.61s-1.22-7.93-2.38-9.83a11.93,11.93,0,0,0-3.84-3.62l-5.16.85s3.33,2.05,4.32,4.82a73.27,73.27,0,0,1,2,8.92Z"/></g><path class="cls-46" d="M169.73,246.9s-.89-7.49-2.11-9.58a11.41,11.41,0,0,0-4.19-3.83l-5.61,1s3.65,1.93,4.67,5a66.68,66.68,0,0,1,1.84,9Z"/><path class="cls-47" d="M163.33,248.63s-1-7.72-2.18-9.81a13,13,0,0,0-4.1-4l-5.64.83S155,237.94,156,241a67.92,67.92,0,0,1,1.85,9.1Z"/><g class="cls-40"><path class="cls-41" d="M164.27,9.18S162.4,18.26,161.22,20a9.9,9.9,0,0,1-3.84,3.15L152.52,22s3.28-1.51,4.32-4.11a102.61,102.61,0,0,0,2.67-10Z"/><path class="cls-41" d="M158.69,7.55s-1.88,9.08-3.05,10.85a11.35,11.35,0,0,1-3.79,3.31l-4.89-1s3.26-1.83,4.3-4.43,2.66-10,2.66-10Z"/></g><path class="cls-48" d="M166.15,8.65s-2.05,9.86-3.29,11.74a10.64,10.64,0,0,1-4.08,3.33l-5.15-1.22s3.48-1.61,4.58-4.36S161.1,7.3,161.1,7.3Z"/><path class="cls-49" d="M160.18,7.1s-2,9.68-3.24,11.56a12.12,12.12,0,0,1-4,3.5l-5.18-1.05s3.45-1.95,4.55-4.7,2.84-10.65,2.84-10.65Z"/><path class="cls-50" d="M82.4,11.5A106,106,0,0,0,58.74,24.38c-9.42,6.91-17.66,18.14-25.23,29.8A384.48,384.48,0,0,0,13,90.25l2.39,1.2S33.16,55.4,48,39C57.88,28,71,20.16,83.5,15Z"/><g class="cls-40"><path class="cls-41" d="M24.27,56.24s12.5,6.42,14,8a10.21,10.21,0,0,1,2.2,4.6l-2.34,4.57s-.71-3.65-3-5.32-13.23-7.43-13.23-7.43Z"/><path class="cls-41" d="M21.53,61.41s12.26,6.42,13.73,8A11.68,11.68,0,0,1,37.64,74l-2.19,4.63s-1-3.69-3.37-5.36-13-7.43-13-7.43Z"/></g><path class="cls-51" d="M23.71,54.19s13.8,7,15.35,8.69a10.8,10.8,0,0,1,2.3,4.81l-2.45,4.78s-.74-3.81-3.18-5.56-14.56-8.08-14.56-8.08Z"/><path class="cls-52" d="M20.75,59.69s13.64,6.92,15.18,8.6a12.33,12.33,0,0,1,2.49,4.79l-2.29,4.84s-1.08-3.86-3.53-5.6-14.39-8-14.39-8Z"/><path class="cls-53" d="M169.91,21.67S200,45.22,212.13,59s25.06,34.63,29.17,43.89a55.9,55.9,0,0,1,4.55,17.62s.76-16.1-15-38.58-22.06-28.34-29.46-35.23A275.31,275.31,0,0,0,169.91,21.67Z"/><path class="cls-54" d="M244.33,138.63a190,190,0,0,1-8.5,26.12c-3.62,8.8-9,18.6-13.37,24.31-4.53,5.95-10.3,13.13-15.64,19-7.74,8.48-15,15.09-20,18.69-8.51,6.07-11.09,7.44-11.09,7.44s22.33-12.91,36.76-30.23,18.22-25.52,23.54-36.45S244.33,138.63,244.33,138.63Z"/><path class="cls-55" d="M29.1,77.72s-11.39,29.62-13.82,39.19-4.1,18.23-3,25.52a44.53,44.53,0,0,0,4.41,13.36A35.42,35.42,0,0,1,11,132.1c1.82-13.52,6.23-26.43,10.48-37.37A157.21,157.21,0,0,1,29.1,77.72Z"/><path class="cls-56" d="M74.87,18.79a126.84,126.84,0,0,0-12.5,7.59s8.08-4.44,15.49-7.9a166.86,166.86,0,0,1,18.68-7.29c11.35-3.64,22.53-4.1,29.07-4.25s8.5-.1,8.5-.1S115,4.31,95.43,10.59A134.5,134.5,0,0,0,74.87,18.79Z"/><path class="cls-57" d="M69.41,32.05a104.35,104.35,0,0,0-17,13.37A159.89,159.89,0,0,1,67.28,34.18,116.43,116.43,0,0,1,88.19,23.34c14.13-5.27,40.86-9.41,40.86-9.41s-27.19,3.34-41.16,8.81A164,164,0,0,0,69.41,32.05Z"/><path class="cls-58" d="M52.19,20.23l.61.68s-10.18,14-15.95,22-9.11,12.91-9.11,12.91S44,31.24,47,26.69,51.58,20,51.58,20Z"/></g></g></svg>