<?xml version="1.0"?>
<svg xmlns="http://www.w3.org/2000/svg" xmlns:xlink="http://www.w3.org/1999/xlink" xmlns:svgjs="http://svgjs.com/svgjs" version="1.1" width="512" height="512" x="0" y="0" viewBox="0 0 512 512" style="enable-background:new 0 0 512 512" xml:space="preserve" class=""><g>
<g xmlns="http://www.w3.org/2000/svg">
	<path style="" d="M373.258,68.495C338.157,46.502,297.611,34.877,256,34.877c-41.61,0-82.157,11.625-117.258,33.618   c-34.127,21.384-61.793,51.639-80.004,87.493l29.772,15.121c15.468-30.453,38.969-56.152,67.964-74.319   c10.986-6.883,22.606-12.561,34.667-16.996c-14.08,26.322-25.069,52.787-32.79,79.042l32.035,9.421   c9.621-32.717,24.859-65.952,45.325-98.889c1.195-0.129,2.396-0.227,3.595-0.334v94.516h33.391V69.034   c1.199,0.107,2.4,0.205,3.595,0.334c20.468,32.939,35.705,66.174,45.325,98.889l32.035-9.421   c-7.721-26.254-18.71-52.719-32.79-79.042c12.061,4.435,23.682,10.113,34.668,16.996c28.994,18.167,52.494,43.866,67.962,74.319   l29.772-15.122C435.05,120.134,407.386,89.879,373.258,68.495z" fill="#272970" data-original="#ade6ea" class=""/>
	<path style="" d="M423.49,340.893c-15.467,30.452-38.969,56.15-67.962,74.317   c-10.987,6.884-22.608,12.561-34.669,16.997c14.238-26.618,25.317-53.383,33.054-79.934l-32.059-9.342   c-9.61,32.985-24.929,66.493-45.564,99.701c-1.195,0.129-2.395,0.227-3.594,0.333v-94.512h-33.391v94.512   c-1.199-0.107-2.399-0.205-3.594-0.333c-20.634-33.207-35.951-66.715-45.564-99.701l-32.058,9.342   c7.737,26.552,18.816,53.316,33.054,79.934c-12.062-4.435-23.683-10.113-34.67-16.997c-28.994-18.167-52.494-43.865-67.964-74.317   l-29.771,15.122c18.212,35.853,45.877,66.108,80.004,87.491c35.1,21.993,75.647,33.617,117.257,33.617   s82.157-11.625,117.257-33.617c34.128-21.383,61.793-51.637,80.004-87.491L423.49,340.893z" fill="#272970" data-original="#ade6ea" class=""/>
</g>
<g xmlns="http://www.w3.org/2000/svg">
	<path style="" d="M272.696,69.034c1.199,0.107,2.4,0.205,3.595,0.334c20.468,32.939,35.705,66.174,45.325,98.889   l32.035-9.421c-7.721-26.254-18.71-52.719-32.79-79.042c12.061,4.435,23.682,10.113,34.668,16.996   c28.994,18.167,52.494,43.866,67.962,74.319l29.772-15.122c-18.212-35.854-45.876-66.109-80.004-87.492   C338.157,46.502,297.611,34.877,256,34.877v128.674h16.696V69.034z" fill="#272970" data-original="#76c0c4" class=""/>
	<path style="" d="M355.527,415.211c-10.987,6.884-22.608,12.561-34.669,16.997   c14.238-26.618,25.317-53.383,33.054-79.934l-32.059-9.342c-9.61,32.985-24.929,66.493-45.564,99.701   c-1.195,0.129-2.395,0.227-3.594,0.333v-94.512H256v128.669c41.61,0,82.157-11.625,117.257-33.617   c34.128-21.383,61.793-51.637,80.004-87.491l-29.772-15.122C408.022,371.346,384.521,397.044,355.527,415.211z" fill="#272970" data-original="#76c0c4" class=""/>
</g>
<path xmlns="http://www.w3.org/2000/svg" style="" d="M512,365.146H0v-218.29h512V365.146z" fill="#f27323" data-original="#f1d849" class=""/>
<path xmlns="http://www.w3.org/2000/svg" style="" d="M512,365.146H256.557v-218.29H512V365.146z" fill="#f27323" data-original="#e8a944" class=""/>
<g xmlns="http://www.w3.org/2000/svg">
	<path style="" d="M126.568,256.461v35.723h-19.961v-72.675h15.559l29.173,36.952v-36.952h19.96v72.675h-15.865   L126.568,256.461z" fill="#ffffff" data-original="#f7f7f8" class=""/>
	<path style="" d="M235.58,274.783v17.401h-51.794v-72.675h50.873v17.401h-30.913v10.236h26.409v16.173h-26.409v11.464   H235.58z" fill="#ffffff" data-original="#f7f7f8" class=""/>
</g>
<g xmlns="http://www.w3.org/2000/svg">
	<path style="" d="M268.129,219.509h18.323l6.347,22.417l6.449-22.417h18.323l-11.976,34.699l5.22,15.15l15.661-49.849   h21.701l-28.455,72.675h-16.582l-10.339-26l-10.237,26h-16.582l-28.456-72.675h21.598l15.764,49.849l5.015-15.15L268.129,219.509z" fill="#ffffff" data-original="#e9e9ea" class=""/>
	<path style="" d="M395.055,243.256c0,0-10.542-6.654-19.243-6.654c-3.481,0-5.833,1.024-5.833,3.583   c0,3.787,5.117,4.606,13.51,7.267c13.41,4.197,21.906,8.905,21.906,22.519c0,17.504-14.125,23.134-27.637,23.134   c-10.544,0-22.929-3.378-31.629-8.496l8.598-17.503c0,0,12.181,7.984,23.338,7.984c4.299,0,5.833-1.229,5.833-3.173   c0-4.197-7.472-5.118-16.173-8.086c-12.794-4.3-18.425-9.725-18.425-20.37c0-16.071,12.794-24.566,27.126-24.566   c10.542,0,20.676,4.606,27.227,7.881L395.055,243.256z" fill="#ffffff" data-original="#e9e9ea" class=""/>
</g>
<g xmlns="http://www.w3.org/2000/svg">
</g>
<g xmlns="http://www.w3.org/2000/svg">
</g>
<g xmlns="http://www.w3.org/2000/svg">
</g>
<g xmlns="http://www.w3.org/2000/svg">
</g>
<g xmlns="http://www.w3.org/2000/svg">
</g>
<g xmlns="http://www.w3.org/2000/svg">
</g>
<g xmlns="http://www.w3.org/2000/svg">
</g>
<g xmlns="http://www.w3.org/2000/svg">
</g>
<g xmlns="http://www.w3.org/2000/svg">
</g>
<g xmlns="http://www.w3.org/2000/svg">
</g>
<g xmlns="http://www.w3.org/2000/svg">
</g>
<g xmlns="http://www.w3.org/2000/svg">
</g>
<g xmlns="http://www.w3.org/2000/svg">
</g>
<g xmlns="http://www.w3.org/2000/svg">
</g>
<g xmlns="http://www.w3.org/2000/svg">
</g>
</g></svg>
