<?xml version="1.0" encoding="iso-8859-1"?>
<!-- Generator: Adobe Illustrator 19.0.0, SVG Export Plug-In . SVG Version: 6.00 Build 0)  -->
<svg version="1.1" id="Layer_1" xmlns="http://www.w3.org/2000/svg" xmlns:xlink="http://www.w3.org/1999/xlink" x="0px" y="0px"
	 viewBox="0 0 505 505" style="enable-background:new 0 0 505 505;" xml:space="preserve">
<circle style="fill:#324A5E;" cx="252.5" cy="252.5" r="252.5"/>
<circle style="fill:#4CDBC4;" cx="252.5" cy="239.1" r="139.3"/>
<path style="fill:#2C9984;" d="M342.8,345.2c30-25.6,49.1-63.6,49.1-106.1c0-12.6-1.7-24.8-4.8-36.4c-76.6,68.3-192.4,68.3-269,0
	c-3.1,11.6-4.8,23.8-4.8,36.4c0,42.5,19.1,80.6,49.1,106.1C221,363.2,284,363.2,342.8,345.2z"/>
<path style="fill:#E6E9EE;" d="M391,227c-77.9,73.1-199.2,73.1-277,0c-23.9,25.4-47.8,50.9-71.7,76.3c118.2,111,302.2,111,420.4,0
	C438.8,277.8,414.9,252.4,391,227z"/>
<g>
	<path style="fill:#F1543F;" d="M237.4,276c0,0-26.8,30.4-12.4,67.5l8.8-8.8l9.4,8.8c0,0-11.1-41.1,8-60"/>
	<path style="fill:#F1543F;" d="M267.6,276c0,0,26.8,30.4,12.4,67.5l-8.8-8.8l-9.4,8.8c0,0,11.1-41.1-8-60"/>
</g>
<g>
	<path style="fill:#FF7058;" d="M302.9,264.3c-1.1,12.6,19.5,33.3-22.8,22.8c-12.2-3-27.5-10.2-27.5-22.8
		c0-12.6,15.3-19.9,27.5-22.8C322.5,231.4,303.6,255.4,302.9,264.3z"/>
	<path style="fill:#FF7058;" d="M202.1,264.3c1.1,12.6-19.5,33.3,22.8,22.8c12.2-3,27.5-10.2,27.5-22.8c0-12.6-15.3-19.9-27.5-22.8
		C182.5,231.4,201.4,255.4,202.1,264.3z"/>
</g>
<circle style="fill:#F1543F;" cx="252.5" cy="264.5" r="19.1"/>
<g>
</g>
<g>
</g>
<g>
</g>
<g>
</g>
<g>
</g>
<g>
</g>
<g>
</g>
<g>
</g>
<g>
</g>
<g>
</g>
<g>
</g>
<g>
</g>
<g>
</g>
<g>
</g>
<g>
</g>
</svg>
