<?xml version="1.0"?>
<svg xmlns="http://www.w3.org/2000/svg" xmlns:xlink="http://www.w3.org/1999/xlink" xmlns:svgjs="http://svgjs.com/svgjs" version="1.1" width="512" height="512" x="0" y="0" viewBox="0 0 32 32" style="enable-background:new 0 0 512 512" xml:space="preserve" class=""><g><path xmlns="http://www.w3.org/2000/svg" d="m26 32h-20c-3.314 0-6-2.686-6-6v-20c0-3.314 2.686-6 6-6h20c3.314 0 6 2.686 6 6v20c0 3.314-2.686 6-6 6z" fill="#32ba7c" data-original="#ffe6e2" style="" class=""/><path xmlns="http://www.w3.org/2000/svg" d="m13.833 19.575v3.092c0 .216.139.408.344.475.051.017.104.025.156.025.156 0 .307-.074.403-.204l1.808-2.462z" fill="#ffffff" data-original="#fd907e" style="" class=""/><path xmlns="http://www.w3.org/2000/svg" d="m23.79 7.926c-.153-.109-.355-.123-.521-.036l-15 7.833c-.177.092-.282.282-.267.481.015.2.148.37.337.436l4.17 1.425 8.88-7.593-6.872 8.279 6.988 2.388c.053.018.107.027.162.027.091 0 .181-.025.26-.073.127-.077.213-.207.234-.354l1.833-12.333c.028-.185-.051-.371-.204-.48z" fill="#ffffff" data-original="#fc573b" style="" class=""/></g></svg>
