<svg id="color_line" height="512" viewBox="0 0 74 74" width="512" xmlns="http://www.w3.org/2000/svg" data-name="color line"><path d="m63.24 3.625-20.453 4.809 20.091 16.199z" fill="#fe7058"/><path d="m28.691 19.038h29.666v18.089h-29.666z" fill="#eeefee" transform="matrix(.628 -.778 .778 .628 -5.656 44.338)"/><path d="m59.571 22.589-2.171 2.687a4.056 4.056 0 0 0 -1.832-1.2c-2.3-.757-2.693.459-4.991-.288s-1.9-1.972-4.2-2.719-2.693.459-5-.293a5.361 5.361 0 0 1 -2.415-1.455l2.258-2.791a6.464 6.464 0 0 0 1.361.6c2.3.747 2.7-.464 4.991.288s1.909 1.967 4.2 2.719 2.7-.464 4.991.288c1.618.517 1.931 1.523 2.808 2.164z" fill="#fe7058"/><path d="m53.4 30.244-2.162 2.681a4.056 4.056 0 0 0 -1.832-1.2c-2.3-.751-2.7.464-4.991-.288s-1.9-1.972-4.2-2.719-2.7.464-5-.293a5.381 5.381 0 0 1 -2.42-1.449l2.257-2.8a6.086 6.086 0 0 0 1.361.6c2.293.752 2.693-.459 4.991.288s1.9 1.972 4.2 2.719 2.693-.459 4.991.288c1.614.529 1.932 1.529 2.805 2.173z" fill="#fe7058"/><path d="m47.232 37.894-2.167 2.686a4.056 4.056 0 0 0 -1.832-1.2c-2.3-.757-2.693.459-4.991-.288s-1.9-1.972-4.2-2.719c-1.894-.625-2.5.088-3.932-.057l-2.935-2.366 1.708-2.118a6.463 6.463 0 0 0 1.361.6c2.3.747 2.7-.464 4.991.288s1.909 1.967 4.2 2.719 2.7-.464 4.991.288c1.615.519 1.929 1.525 2.806 2.167z" fill="#fe7058"/><path d="m63.24 3.62-.36 21.01-2.83-2.28.32-18.05z" fill="#ea6453"/><path d="m45.06 40.58-3.81 4.73-1.98-1.6 3.58-4.44a3.172 3.172 0 0 1 .38.11 3.963 3.963 0 0 1 1.83 1.2z" fill="#d5d6db"/><path d="m51.23 32.93-4 4.96c-.67-.49-1.01-1.2-1.86-1.74l3.65-4.53a3.184 3.184 0 0 1 .38.11 3.964 3.964 0 0 1 1.83 1.2z" fill="#d5d6db"/><path d="m57.4 25.28-4 4.96c-.67-.49-1.01-1.2-1.86-1.74l3.65-4.53a3.184 3.184 0 0 1 .38.11 3.964 3.964 0 0 1 1.83 1.2z" fill="#d5d6db"/><path d="m59.57 22.59-2.17 2.69a3.964 3.964 0 0 0 -1.83-1.2 3.184 3.184 0 0 0 -.38-.11l2.52-3.12c.85.54 1.19 1.25 1.86 1.74z" fill="#ea6453"/><path d="m53.4 30.235-2.17 2.69a3.964 3.964 0 0 0 -1.83-1.2 3.184 3.184 0 0 0 -.38-.11l2.52-3.12c.849.54 1.189 1.25 1.86 1.74z" fill="#ea6453"/><path d="m47.232 37.89-2.17 2.69a3.964 3.964 0 0 0 -1.83-1.2 3.184 3.184 0 0 0 -.38-.11l2.52-3.12c.85.54 1.19 1.25 1.86 1.74z" fill="#ea6453"/><path d="m20.807 53.421 12.022-14.91 2.766 2.23-12.022 14.91a1.776 1.776 0 0 1 -2.5.268 1.776 1.776 0 0 1 -.266-2.498z" fill="#bbbbcd"/><g fill="#323c6b"><path d="m22.186 56.813a2.277 2.277 0 0 1 -1.768-3.706l12.022-14.907a.5.5 0 0 1 .7-.075l2.766 2.23a.5.5 0 0 1 .075.7l-12.019 14.91a2.262 2.262 0 0 1 -1.529.834 2.334 2.334 0 0 1 -.247.014zm-1.378-3.392.389.314a1.276 1.276 0 1 0 1.987 1.6l11.708-14.519-1.987-1.6-11.705 14.519z"/><path d="m14.855 43.913a.5.5 0 0 1 -.389-.814l1.76-2.183a7.141 7.141 0 0 1 5.7-2.652 6.109 6.109 0 0 0 4.9-2.28l1.131-1.4a.5.5 0 1 1 .778.628l-1.131 1.4a7.159 7.159 0 0 1 -5.7 2.652 6.17 6.17 0 0 0 -4.9 2.28l-1.76 2.183a.5.5 0 0 1 -.389.186z"/><path d="m11.057 48.625a.5.5 0 0 1 -.389-.814l1.438-1.784a.5.5 0 1 1 .778.628l-1.438 1.784a.5.5 0 0 1 -.389.186z"/><path d="m15.5 49.931a.5.5 0 0 1 -.5-.447l-.244-2.278a.5.5 0 0 1 .994-.106l.25 2.277a.5.5 0 0 1 -.444.55z"/><path d="m19.567 47.712a.5.5 0 0 1 -.313-.111l-1.784-1.438a.5.5 0 0 1 .628-.778l1.784 1.438a.5.5 0 0 1 -.314.889z"/><path d="m18.6 43.512a.5.5 0 0 1 -.053-1l2.278-.244a.5.5 0 0 1 .55.444.5.5 0 0 1 -.444.55l-2.278.244z"/><path d="m14.455 40.173a.5.5 0 0 1 -.5-.447l-.245-2.278a.5.5 0 1 1 .994-.106l.245 2.278a.5.5 0 0 1 -.444.55z"/><path d="m11.928 41.552a.5.5 0 0 1 -.313-.111l-1.784-1.441a.5.5 0 1 1 .628-.778l1.784 1.438a.5.5 0 0 1 -.314.889z"/><path d="m8.837 44.558a.5.5 0 0 1 -.053-1l2.278-.244a.5.5 0 1 1 .106.994l-2.278.244z"/><path d="m28.795 66.107a.5.5 0 0 1 -.389-.814l1.76-2.182a6.17 6.17 0 0 0 1.189-5.272 7.174 7.174 0 0 1 1.383-6.132l6.484-8.042a.5.5 0 1 1 .778.628l-6.484 8.042a6.167 6.167 0 0 0 -1.189 5.272 7.177 7.177 0 0 1 -1.383 6.132l-1.76 2.182a.5.5 0 0 1 -.389.186z"/><path d="m25 70.819a.5.5 0 0 1 -.393-.819l1.438-1.784a.5.5 0 1 1 .778.628l-1.438 1.784a.5.5 0 0 1 -.385.191z"/><path d="m22.777 66.752a.5.5 0 0 1 -.053-1l2.276-.241a.5.5 0 1 1 .106.994l-2.278.244z"/><path d="m25.867 63.746a.5.5 0 0 1 -.313-.111l-1.784-1.435a.5.5 0 0 1 .628-.778l1.784 1.438a.5.5 0 0 1 -.314.889z"/><path d="m28.394 62.367a.5.5 0 0 1 -.5-.447l-.244-2.278a.5.5 0 0 1 .994-.106l.244 2.278a.5.5 0 0 1 -.444.55z"/><path d="m32.535 65.706a.5.5 0 0 1 -.053-1l2.278-.245a.5.5 0 0 1 .106.994l-2.278.245z"/><path d="m33.506 69.906a.5.5 0 0 1 -.313-.111l-1.784-1.438a.5.5 0 0 1 .628-.778l1.784 1.438a.5.5 0 0 1 -.314.889z"/><path d="m29.44 72.125a.5.5 0 0 1 -.5-.447l-.24-2.278a.5.5 0 0 1 .994-.106l.245 2.278a.5.5 0 0 1 -.444.55z"/><path d="m41.254 45.806a.5.5 0 0 1 -.313-.111l-14.082-11.354a.5.5 0 0 1 -.075-.7l18.616-23.097a.5.5 0 0 1 .7-.075l14.089 11.354a.5.5 0 0 1 .075.7l-18.62 23.097a.5.5 0 0 1 -.39.186zm-13.378-11.929 13.304 10.723 17.992-22.313-13.3-10.726z"/><path d="m57.4 25.776a.5.5 0 0 1 -.366-.159 3.576 3.576 0 0 0 -1.621-1.064 3.966 3.966 0 0 0 -2.26-.129 5.37 5.37 0 0 1 -5.035-1.647 4.425 4.425 0 0 0 -4.158-1.361 5 5 0 0 1 -2.737-.162 5.7 5.7 0 0 1 -2.473-1.454l-.12-.11a.5.5 0 0 1 -.052-.683l2.253-2.794a.5.5 0 0 1 .649-.113 6.091 6.091 0 0 0 1.256.547 4 4 0 0 0 2.255.125 5.411 5.411 0 0 1 5.047 1.652 4.379 4.379 0 0 0 4.146 1.354 4.986 4.986 0 0 1 2.736.164 4.7 4.7 0 0 1 2.252 1.565 4.7 4.7 0 0 0 .693.675.5.5 0 0 1 .094.717l-2.165 2.691a.5.5 0 0 1 -.371.186zm-3.3-2.457a5.119 5.119 0 0 1 1.626.284 4.431 4.431 0 0 1 1.633.929l1.514-1.878c-.161-.155-.306-.317-.448-.476a3.758 3.758 0 0 0 -1.813-1.278 3.981 3.981 0 0 0 -2.258-.128 5.375 5.375 0 0 1 -5.034-1.645 4.419 4.419 0 0 0 -4.16-1.362 5.005 5.005 0 0 1 -2.734-.159 8.23 8.23 0 0 1 -1.079-.432l-1.7 2.1a4.667 4.667 0 0 0 1.891 1.026 4 4 0 0 0 2.258.126 5.421 5.421 0 0 1 5.045 1.651 4.375 4.375 0 0 0 4.146 1.357 6.237 6.237 0 0 1 1.113-.115z"/><path d="m51.237 33.425a.5.5 0 0 1 -.366-.159 3.581 3.581 0 0 0 -1.621-1.066 4 4 0 0 0 -2.26-.126 5.4 5.4 0 0 1 -5.04-1.651 4.4 4.4 0 0 0 -4.15-1.354 4.994 4.994 0 0 1 -2.74-.166 5.747 5.747 0 0 1 -2.5-1.458l-.1-.1a.5.5 0 0 1 -.052-.683l2.257-2.8a.5.5 0 0 1 .649-.113 5.668 5.668 0 0 0 1.251.545 4 4 0 0 0 2.261.129 5.377 5.377 0 0 1 5.038 1.649 4.413 4.413 0 0 0 4.155 1.358 5.013 5.013 0 0 1 2.734.16 4.74 4.74 0 0 1 2.256 1.575 4.8 4.8 0 0 0 .688.673.5.5 0 0 1 .091.715l-2.162 2.681a.5.5 0 0 1 -.371.186zm-3.3-2.454a5.156 5.156 0 0 1 1.621.28 4.429 4.429 0 0 1 1.634.929l1.511-1.875c-.159-.154-.3-.314-.442-.47a3.793 3.793 0 0 0 -1.821-1.292 4.005 4.005 0 0 0 -2.255-.125 5.41 5.41 0 0 1 -5.042-1.649 4.383 4.383 0 0 0 -4.151-1.358 5 5 0 0 1 -2.736-.164 7.341 7.341 0 0 1 -1.079-.429l-1.7 2.106a4.728 4.728 0 0 0 1.89 1.026 3.986 3.986 0 0 0 2.259.13 5.393 5.393 0 0 1 5.041 1.648 4.4 4.4 0 0 0 4.15 1.36 6.27 6.27 0 0 1 1.123-.116z"/><path d="m45.065 41.081a.5.5 0 0 1 -.366-.159 3.582 3.582 0 0 0 -1.622-1.064 3.971 3.971 0 0 0 -2.26-.129 5.369 5.369 0 0 1 -5.034-1.647 4.434 4.434 0 0 0 -4.164-1.362 5.321 5.321 0 0 1 -1.563.1.5.5 0 0 1 -.264-.108l-2.935-2.366a.5.5 0 0 1 -.075-.7l1.708-2.118a.5.5 0 0 1 .649-.113 6.081 6.081 0 0 0 1.257.547 4 4 0 0 0 2.255.125 5.416 5.416 0 0 1 5.049 1.644 4.378 4.378 0 0 0 4.146 1.354 4.986 4.986 0 0 1 2.736.164 4.7 4.7 0 0 1 2.252 1.566 4.665 4.665 0 0 0 .692.675.5.5 0 0 1 .094.717l-2.166 2.687a.5.5 0 0 1 -.371.186zm-3.3-2.457a5.119 5.119 0 0 1 1.626.284 4.417 4.417 0 0 1 1.634.929l1.514-1.878c-.161-.155-.306-.317-.447-.475a3.762 3.762 0 0 0 -1.82-1.284 3.977 3.977 0 0 0 -2.258-.128 5.376 5.376 0 0 1 -5.034-1.645 4.418 4.418 0 0 0 -4.16-1.362 5.016 5.016 0 0 1 -2.734-.16 8.186 8.186 0 0 1 -1.08-.432l-1.131 1.4 2.425 1.96a4.711 4.711 0 0 0 1.15-.1 5.431 5.431 0 0 1 5.05 1.652 4.375 4.375 0 0 0 4.146 1.357 6.283 6.283 0 0 1 1.118-.118z"/><path d="m62.878 25.133a.5.5 0 0 1 -.314-.111l-20.09-16.2a.5.5 0 0 1 .2-.876l20.452-4.808a.5.5 0 0 1 .614.5l-.362 21.008a.5.5 0 0 1 -.288.444.507.507 0 0 1 -.212.043zm-18.978-16.446 18.5 14.913.333-19.343z"/><path d="m56.038 32.25a.5.5 0 0 1 -.389-.814l.538-.667a.5.5 0 1 1 .778.628l-.538.667a.5.5 0 0 1 -.389.186z"/><path d="m49.269 40.646a.5.5 0 0 1 -.389-.814l5.2-6.45a.5.5 0 1 1 .778.628l-5.2 6.45a.5.5 0 0 1 -.389.186z"/><path d="m47.458 4.754a.5.5 0 0 1 -.114-.987l9.063-2.131a.5.5 0 0 1 .229.974l-9.063 2.131a.511.511 0 0 1 -.115.013z"/><path d="m44 5.567a.5.5 0 0 1 -.114-.987l1.208-.28a.5.5 0 0 1 .229.974l-1.208.284a.511.511 0 0 1 -.115.009z"/></g><path d="m58.8 18.155a.646.646 0 0 1 -.419-.155l-5.586-4.665a.65.65 0 1 1 .833-1l5.586 4.665a.65.65 0 0 1 -.417 1.149z" fill="#fff"/><path d="m51.263 11.863a.646.646 0 0 1 -.416-.151l-.561-.468a.65.65 0 1 1 .833-1l.561.468a.65.65 0 0 1 -.417 1.149z" fill="#fff"/></svg>