<?xml version="1.0"?>
<svg xmlns="http://www.w3.org/2000/svg" xmlns:xlink="http://www.w3.org/1999/xlink" xmlns:svgjs="http://svgjs.com/svgjs" version="1.1" width="512" height="512" x="0" y="0" viewBox="0 0 481.556 481.556" style="enable-background:new 0 0 512 512" xml:space="preserve" class=""><g>
<g xmlns="http://www.w3.org/2000/svg">
	<g>
		<path d="M154.91,251.264c3.136-35.807,19.999-68.242,47.484-91.27c24.145-20.25,54.784-31.408,86.335-31.408    c39.922,0,77.51,17.508,103.104,48.02c29.693,35.398,38.772,82.979,25.359,126.225l28.888,30.435    c10.97-5.185,18.614-16.25,18.614-29.189V88.192c0-14.877-12.057-26.934-26.935-26.934H276.138    c-18.598,0-33.68-15.084-33.68-33.681c0-14.878-12.057-26.935-26.951-26.935H87.534c-14.862,0-26.919,12.057-26.919,26.935    c0,18.597-15.083,33.681-33.68,33.681C12.058,61.258,0,73.315,0,88.192v215.885c0,17.872,14.501,32.356,32.356,32.356H176.28    C159.842,311.327,152.229,281.665,154.91,251.264z" fill="#ffffff" data-original="#000000" style=""/>
	</g>
	<g>
		<path d="M470.006,411.672l-75.02-77.162c-6.288,9.377-13.805,18.155-22.757,25.847c-8.968,7.723-18.74,13.821-28.953,18.597    l64.948,85.785c6.778,8.966,16.991,14.75,28.18,15.947c11.207,1.184,22.412-2.285,30.938-9.628    c8.543-7.328,13.665-17.873,14.17-29.125C482.047,430.696,477.838,419.743,470.006,411.672z" fill="#ffffff" data-original="#000000" style=""/>
	</g>
	<g>
		<path d="M368.162,196.402c-37.288-43.403-102.947-48.368-146.35-11.095c-43.358,37.289-48.352,102.93-11.064,146.335    c37.304,43.372,102.915,48.353,146.318,11.063C400.455,305.448,405.419,239.79,368.162,196.402z M237.225,308.883    c-24.744-28.809-21.434-72.355,7.344-97.1c28.827-24.728,72.372-21.434,97.116,7.361c24.728,28.777,21.418,72.355-7.361,97.083    C305.499,340.971,261.984,337.678,237.225,308.883z" fill="#ffffff" data-original="#000000" style=""/>
	</g>
	<g>
		<path d="M267.312,224.156c-3.483-0.755-7.187-0.142-10.119,2.364c-20.677,17.762-23.024,49.047-5.279,69.724    c2.506,2.899,6.099,4.083,9.661,3.815c2.38-0.158,4.808-0.883,6.762-2.586c4.885-4.177,5.421-11.522,1.26-16.391    c-9.425-10.953-8.179-27.518,2.79-36.91c4.869-4.209,5.421-11.554,1.26-16.406C271.945,225.763,269.66,224.707,267.312,224.156z" fill="#ffffff" data-original="#000000" style=""/>
	</g>
</g>
<g xmlns="http://www.w3.org/2000/svg">
</g>
<g xmlns="http://www.w3.org/2000/svg">
</g>
<g xmlns="http://www.w3.org/2000/svg">
</g>
<g xmlns="http://www.w3.org/2000/svg">
</g>
<g xmlns="http://www.w3.org/2000/svg">
</g>
<g xmlns="http://www.w3.org/2000/svg">
</g>
<g xmlns="http://www.w3.org/2000/svg">
</g>
<g xmlns="http://www.w3.org/2000/svg">
</g>
<g xmlns="http://www.w3.org/2000/svg">
</g>
<g xmlns="http://www.w3.org/2000/svg">
</g>
<g xmlns="http://www.w3.org/2000/svg">
</g>
<g xmlns="http://www.w3.org/2000/svg">
</g>
<g xmlns="http://www.w3.org/2000/svg">
</g>
<g xmlns="http://www.w3.org/2000/svg">
</g>
<g xmlns="http://www.w3.org/2000/svg">
</g>
</g></svg>
