<?xml version="1.0" encoding="iso-8859-1"?>
<!-- Generator: Adobe Illustrator 19.0.0, SVG Export Plug-In . SVG Version: 6.00 Build 0)  -->
<svg version="1.1" id="Layer_1" xmlns="http://www.w3.org/2000/svg" xmlns:xlink="http://www.w3.org/1999/xlink" x="0px" y="0px"
	 viewBox="0 0 505 505" style="enable-background:new 0 0 505 505;" xml:space="preserve">
<circle style="fill:#324A5E;" cx="252.5" cy="252.5" r="252.5"/>
<g>
	<path style="fill:#FF7058;" d="M435.1,278.2L254,97.1c-5.9-5.9-15.6-5.9-21.5,0l-11.2,11.2c-23.9-20.2-59.7-19.1-82.3,3.5
		s-23.7,58.4-3.5,82.3l-11.2,11.2c-5.9,5.9-5.9,15.6,0,21.5l181.1,181.1c5.9,5.9,15.6,5.9,21.5,0L435,299.8
		C441,293.8,441,284.2,435.1,278.2z M153.5,148c-6-6-6-15.7,0-21.7s15.7-6,21.7,0s6,15.7,0,21.7S159.5,154,153.5,148z"/>
	<path style="fill:#FF7058;" d="M153.3,126.4c-8.5-1.4-17-1.2-25.4,0.5c-1.6,3.1-2.9,6.3-4,9.6c7.4-2.2,15.9-3.4,25.2-2.2
		C149.8,131.4,151.1,128.7,153.3,126.4z"/>
</g>
<g>
	<path style="fill:#FFFFFF;" d="M127.3,181.4c-1.5-3.1-2.7-6.3-3.7-9.5c-21.9,33.9-34.7,39-39.3,39.5c-2.3,0.3-4.1-0.3-5.6-1.8
		c-3.2-3.2-5-10.3-4.9-19.4c0.1-10.6,9.7-28.9,27.3-42.1c5.1-3.8,13-8.7,22.9-11.7c7.4-2.2,15.9-3.4,25.2-2.2
		c2.7,0.3,5.5,0.8,8.3,1.6c-0.1,0.1-0.2,0.2-0.2,0.3c-2.1,2.5-4.5,4.8-7.1,7c0.7,1.7,1.8,3.4,3.3,4.8c0.6,0.6,1.3,1.2,2,1.7
		c3-2.5,5.8-5.2,8.3-8.3c1.2-1.4,2.3-3,2.7-5c0.5-2.3-0.2-4.4-1.9-6.1c-0.8-0.8-1.7-1.4-2.4-1.8l-0.4-0.2l-0.5-0.1
		c-2.6-0.7-5.3-1.3-7.9-1.8c-8.5-1.4-17-1.2-25.4,0.5c-11.1,2.2-21.9,7.1-31.9,14.6c-17.9,13.4-30.5,33.4-30.6,48.7
		c-0.1,11.7,2.4,20.4,7.3,25.4c3.3,3.3,7.6,4.8,12.5,4.2C96.8,218.3,111.2,205.2,127.3,181.4z"/>
	<path style="fill:#FFFFFF;" d="M324,262.9c-3.9,3.9-8.5,5.8-13.9,5.7c-5.4-0.1-10.2-2.2-14.4-6.4c-4.2-4.2-6.3-9-6.3-14.4
		c-0.1-5.4,1.8-10.1,5.7-13.9c3.8-3.8,8.5-5.7,13.9-5.7c5.4,0.1,10.2,2.2,14.4,6.4c4.2,4.2,6.3,9,6.3,14.4
		C329.8,254.3,327.9,259,324,262.9z M377.3,285.1l-118,19.5l-16.9-16.9l118.1-19.4L377.3,285.1z M303.1,248.9
		c-0.1,1.6,0.4,3,1.6,4.2s2.6,1.7,4.3,1.6c1.7-0.1,3.2-0.9,4.7-2.3c1.4-1.4,2.2-3,2.4-4.8c0.2-1.7-0.3-3.2-1.5-4.3
		c-1.1-1.1-2.6-1.6-4.3-1.5c-1.7,0.2-3.3,1-4.8,2.4C304,245.7,303.2,247.3,303.1,248.9z M322.5,341.8c-3.9,3.9-8.5,5.8-13.9,5.7
		c-5.4-0.1-10.2-2.2-14.4-6.4c-4.2-4.2-6.3-9-6.3-14.4c-0.1-5.4,1.8-10.1,5.7-13.9c3.8-3.8,8.5-5.7,13.9-5.7
		c5.4,0.1,10.2,2.2,14.4,6.3c4.2,4.2,6.3,9,6.3,14.4C328.3,333.3,326.4,338,322.5,341.8z M301.6,327.9c-0.1,1.6,0.4,3.1,1.6,4.2
		c1.2,1.2,2.6,1.7,4.3,1.6c1.7-0.1,3.2-0.9,4.7-2.3c1.4-1.4,2.2-3,2.4-4.8c0.2-1.7-0.3-3.2-1.5-4.3c-1.1-1.1-2.6-1.6-4.3-1.5
		c-1.7,0.2-3.3,1-4.8,2.4C302.5,324.7,301.7,326.2,301.6,327.9z"/>
</g>
<g>
</g>
<g>
</g>
<g>
</g>
<g>
</g>
<g>
</g>
<g>
</g>
<g>
</g>
<g>
</g>
<g>
</g>
<g>
</g>
<g>
</g>
<g>
</g>
<g>
</g>
<g>
</g>
<g>
</g>
</svg>
