<svg id="Capa_1" enable-background="new 0 0 512 512" height="512" viewBox="0 0 512 512" width="512" xmlns="http://www.w3.org/2000/svg" xmlns:xlink="http://www.w3.org/1999/xlink"><linearGradient id="SVGID_1_" gradientUnits="userSpaceOnUse" x1="256" x2="256" y1="512" y2="0"><stop offset="0" stop-color="#ffedad"/><stop offset="1" stop-color="#ffffe5"/></linearGradient><linearGradient id="SVGID_2_" gradientUnits="userSpaceOnUse" x1="256" x2="256" y1="407" y2="105"><stop offset="0" stop-color="#feba00"/><stop offset="1" stop-color="#fd5900"/></linearGradient><g><g><circle cx="256" cy="256" fill="url(#SVGID_1_)" r="256"/></g><g id="Rank_2_"><g><g><path d="m221.095 178.479-5.213 30.273c-.573 3.331.789 6.705 3.522 8.691 2.75 1.995 6.367 2.264 9.359.685l27.202-14.269 27.185 14.321c2.987 1.573 6.609 1.319 9.351-.668 2.741-1.986 4.112-5.352 3.539-8.683l-5.161-30.291 22.015-21.417c2.42-2.359 3.296-5.89 2.255-9.099-1.041-3.218-3.817-5.569-7.165-6.055l-30.394-4.45-13.566-27.558c-1.492-3.036-4.589-4.961-7.972-4.961-3.374 0-6.462 1.917-7.963 4.944l-13.618 27.532-30.412 4.398c-3.348.477-6.133 2.819-7.182 6.037-1.041 3.209-.173 6.74 2.247 9.108zm177.023 139.697h-79.941v-62.176c0-4.91-3.973-8.882-8.882-8.882h-106.589c-4.91 0-8.882 3.973-8.882 8.882v26.647h-79.941c-4.91 0-8.882 3.973-8.882 8.882v106.588c0 4.91 3.973 8.882 8.882 8.882h284.235c4.91 0 8.882-3.973 8.882-8.882v-71.059c0-4.909-3.973-8.882-8.882-8.882zm-124.353 35.53h-35.529c-4.91 0-8.882-3.973-8.882-8.883 0-4.909 3.973-8.882 8.882-8.882h8.882v-22.97l-2.602 2.603c-3.47 3.47-9.091 3.47-12.56 0s-3.47-9.091 0-12.56l17.765-17.765c2.55-2.541 6.349-3.313 9.68-1.925 3.322 1.371 5.482 4.615 5.482 8.206v44.412h8.882c4.91 0 8.882 3.973 8.882 8.882s-3.973 8.882-8.882 8.882z" fill="url(#SVGID_2_)"/></g></g></g></g></svg>