<svg enable-background="new 0 0 32 32" height="512" viewBox="0 0 32 32" width="512" xmlns="http://www.w3.org/2000/svg"><path d="m26 32h-20c-3.314 0-6-2.686-6-6v-20c0-3.314 2.686-6 6-6h20c3.314 0 6 2.686 6 6v20c0 3.314-2.686 6-6 6z" fill="#ffe6e2"/><path d="m14.667 12.668v-2.835c0-.201-.12-.382-.305-.461-.184-.078-.399-.038-.543.102l-5.667 5.5c-.097.095-.152.224-.152.359s.055.265.152.359l5.667 5.5c.145.14.359.179.543.102.185-.078.305-.26.305-.461v-2.833h.945c3.091 0 5.94 1.68 7.436 4.381l.014.025c.089.163.259.26.439.26.041 0 .083-.005.124-.016.22-.055.375-.255.375-.483 0-5.183-4.171-9.41-9.333-9.499z" fill="#fc573b"/></svg>