<svg id="Layer_1" enable-background="new 0 0 512 512" height="512" viewBox="0 0 512 512" width="512" xmlns="http://www.w3.org/2000/svg"><g><g><g><g id="XMLID_1073_"><g id="XMLID_1074_"><g id="XMLID_1075_"><g id="XMLID_1076_"><g id="XMLID_1077_"><g id="XMLID_1078_"><g id="XMLID_1091_"><g id="XMLID_1123_"><g id="XMLID_1126_"><g id="XMLID_1132_"><g id="XMLID_1133_"><g id="XMLID_1134_"><g id="XMLID_1135_"><g id="XMLID_1324_"><g id="XMLID_1325_"><circle cx="256" cy="256" fill="#e54b2c" r="256"/></g></g></g></g></g></g></g></g></g></g></g></g></g></g></g></g></g><path d="m512 256c0-35.705-7.319-69.698-20.523-100.573l-54.056-53.868-23.14-6.589-14.178-14.552-321.71 50.452 86.215 86.371-18.108 148.759-70.666 45.981 76.796 78.272c31.615 13.972 66.582 21.747 103.37 21.747 141.385 0 256-114.615 256-256z" fill="#c12d1a"/><path d="m130.006 130.006h251.987v251.987h-251.987z" fill="#fde997"/><path d="m256 130.01h125.99v251.98h-125.99z" fill="#fddb45"/><g><g><g><path d="m419.537 135.823h-327.074c-12.195 0-22.081-9.67-22.081-21.598 0-11.928 9.886-21.598 22.081-21.598h327.075c12.195 0 22.081 9.67 22.081 21.598-.001 11.928-9.887 21.598-22.082 21.598z" fill="#fcb42d"/></g><g><g><g><path d="m441.62 114.22c0 5.96-2.47 11.36-6.47 15.27-3.99 3.91-9.51 6.33-15.61 6.33h-163.54v-43.19h163.54c12.19 0 22.08 9.67 22.08 21.59z" fill="#f59b20"/></g></g></g><path d="m382.283 156.398h-252.566c-12.794 0-23.165-10.372-23.165-23.165v-38.016c0-12.794 10.371-23.165 23.165-23.165h252.566c12.794 0 23.165 10.371 23.165 23.165v38.015c0 12.794-10.371 23.166-23.165 23.166z" fill="#fff5cc"/><path d="m405.45 95.22v38.01c0 .88-.05 1.74-.15 2.59-1.28 11.58-11.1 20.58-23.02 20.58h-126.28v-84.35h126.28c11.92 0 21.74 9 23.02 20.58.1.85.15 1.71.15 2.59z" fill="#fde997"/></g><g><path d="m419.537 419.373h-327.074c-12.195 0-22.081-9.67-22.081-21.598 0-11.928 9.886-21.598 22.081-21.598h327.075c12.195 0 22.081 9.67 22.081 21.598-.001 11.928-9.887 21.598-22.082 21.598z" fill="#fcb42d"/></g><g><g><g><path d="m441.62 397.78c0 5.96-2.47 11.36-6.47 15.26-3.99 3.91-9.51 6.33-15.61 6.33h-163.54v-43.19h163.54c12.19 0 22.08 9.67 22.08 21.6z" fill="#f59b20"/></g></g></g><path d="m382.283 439.948h-252.566c-12.794 0-23.165-10.371-23.165-23.165v-38.015c0-12.794 10.371-23.165 23.165-23.165h252.566c12.794 0 23.165 10.372 23.165 23.165v38.015c0 12.794-10.371 23.165-23.165 23.165z" fill="#fff5cc"/><path d="m405.45 378.77v38.01c0 .88-.05 1.74-.15 2.59-1.28 11.58-11.1 20.58-23.02 20.58h-126.28v-84.35h126.28c11.92 0 21.74 9 23.02 20.58.1.85.15 1.71.15 2.59z" fill="#fde997"/></g><g><g><g><path d="m167.545 205.849h40.41v30h-40.41z" fill="#fcb42d"/></g></g><g><g><path d="m241.705 205.849h102.75v30h-102.75z" fill="#fcb42d"/></g></g><g><g><path d="m256 205.85h88.45v30h-88.45z" fill="#f59b20"/></g></g><g><g><path d="m304.045 276.152h40.41v30h-40.41z" fill="#f59b20"/></g></g><g><g><path d="m167.545 276.152h102.75v30h-102.75z" fill="#fcb42d"/></g></g><g><g><path d="m256 276.15h14.3v30h-14.3z" fill="#f59b20"/></g></g></g></g></svg>