<?xml version="1.0" encoding="iso-8859-1"?>
<!-- Generator: Adobe Illustrator 19.0.0, SVG Export Plug-In . SVG Version: 6.00 Build 0)  -->
<svg version="1.1" id="Layer_1" xmlns="http://www.w3.org/2000/svg" xmlns:xlink="http://www.w3.org/1999/xlink" x="0px" y="0px"
	 viewBox="0 0 505 505" style="enable-background:new 0 0 505 505;" xml:space="preserve">
<circle style="fill:#FFD05B;" cx="252.5" cy="252.5" r="252.5"/>
<path style="fill:#324A5E;" d="M365.2,435.7H139.8c-4.6,0-8.2-3.7-8.2-8.2V77.6c0-4.6,3.7-8.2,8.2-8.2h225.4c4.6,0,8.2,3.7,8.2,8.2
	v349.9C373.5,432,369.8,435.7,365.2,435.7z"/>
<rect x="150.1" y="111.1" style="fill:#54C0EB;" width="204.8" height="275.8"/>
<path style="fill:#2B3B4E;" d="M283.8,97.6h-62.6c-3.4,0-6.1-2.7-6.1-6.1l0,0c0-3.4,2.7-6.1,6.1-6.1h62.6c3.4,0,6.1,2.7,6.1,6.1l0,0
	C289.9,94.9,287.2,97.6,283.8,97.6z"/>
<circle style="fill:#ACB3BA;" cx="166.1" cy="90.1" r="7.5"/>
<circle style="fill:#2B3B4E;" cx="252.5" cy="411" r="13.7"/>
<polygon style="fill:#84DBFF;" points="150.1,111.1 354.9,111.1 150.1,386.9 "/>
<g>
</g>
<g>
</g>
<g>
</g>
<g>
</g>
<g>
</g>
<g>
</g>
<g>
</g>
<g>
</g>
<g>
</g>
<g>
</g>
<g>
</g>
<g>
</g>
<g>
</g>
<g>
</g>
<g>
</g>
</svg>
