<?xml version="1.0"?>
<svg xmlns="http://www.w3.org/2000/svg" xmlns:xlink="http://www.w3.org/1999/xlink" xmlns:svgjs="http://svgjs.com/svgjs" version="1.1" width="512" height="512" x="0" y="0" viewBox="0 0 511 511" style="enable-background:new 0 0 512 512" xml:space="preserve" class=""><g><g xmlns="http://www.w3.org/2000/svg"><path d="m.5 324.815v156.185l150 17.631v-173.816z" fill="#f27323" data-original="#00ed89" style="" class=""/><path d="m255.5 255.082h75v243.548h-75z" fill="#272970" data-original="#ffbf80" style="" class=""/><path d="m180.5 255.082h75v243.548h-75z" fill="#272970" data-original="#ffe666" style="" class=""/><path d="m360.5 151v347.631l150-17.631v-330z" fill="#d1281e" data-original="#00a98f" style="" class=""/><path d="m255.5 481h255v30h-255z" fill="#05303d" data-original="#05303d" style="" class=""/><path d="m.5 481h255v30h-255z" fill="#08475e" data-original="#08475e" style="" class=""/><path d="m464.5 0v90h-30v-40.14l-179 133.21v-37.4l155.44-115.67h-36.44v-30z" fill="#d1281e" data-original="#d00050" style="" class=""/><path d="m255.5 145.67v37.4l-55.95 41.64.08-104.98-181.51 127.54-17.24-24.54 228.8-160.78-.09 103z" fill="#d1281e" data-original="#ff4a4a" style="" class=""/></g></g></svg>
