<?xml version="1.0" encoding="iso-8859-1"?>
<!-- Generator: Adobe Illustrator 19.0.0, SVG Export Plug-In . SVG Version: 6.00 Build 0)  -->
<svg version="1.1" id="Capa_1" xmlns="http://www.w3.org/2000/svg" xmlns:xlink="http://www.w3.org/1999/xlink" x="0px" y="0px"
	 viewBox="0 0 384 384" style="enable-background:new 0 0 384 384;" xml:space="preserve">
<path style="fill:#FF7043;" d="M272,160.002H112H16c0-22.08,8.96-42.08,23.44-56.56S73.92,80.002,96,80.002h176v-56l96,96l-96,96
	V160.002z"/>
<path style="fill:#4DD0E1;" d="M112,224.002h160h96c0,22.08-8.96,42.08-23.44,56.56s-34.48,23.44-56.56,23.44H112v56l-96-96l96-96
	V224.002z"/>
<path style="fill:#012E52;" d="M379.312,108.69l-96-96c-4.576-4.584-11.456-5.952-17.44-3.472C259.896,11.698,256,17.53,256,24.002
	v40H96c-25.632,0-49.736,9.992-67.872,28.128S0,134.37,0,160.002c0,8.832,7.168,16,16,16h65.376L4.688,252.69
	c-6.248,6.248-6.248,16.376,0,22.624l96,96c3.056,3.064,7.152,4.688,11.312,4.688c2.056,0,4.144-0.4,6.12-1.216
	c5.984-2.48,9.88-8.312,9.88-14.784v-40h160c25.624,0,49.736-9.992,67.872-28.128S384,249.634,384,224.002c0-8.832-7.168-16-16-16
	h-65.376l76.688-76.688C385.56,125.066,385.56,114.938,379.312,108.69z M333.248,269.242c-12.096,12.096-28.168,18.76-45.248,18.76
	H112c-8.832,0-16,7.168-16,16v17.368l-57.368-57.368L96,206.634v49.368c0,8.832,7.168,16,16,16s16-7.168,16-16v-16h221.992
	C347.176,250.97,341.472,261.026,333.248,269.242z M128,208.002v-32h128v32H128z M288,177.37v-17.368v-32c0-8.832-7.168-16-16-16
	s-16,7.168-16,16v16H34.008c2.816-10.968,8.528-21.024,16.744-29.248C62.848,102.666,78.92,96.002,96,96.002h176
	c8.832,0,16-7.168,16-16V62.634l57.376,57.368L288,177.37z"/>
<g>
</g>
<g>
</g>
<g>
</g>
<g>
</g>
<g>
</g>
<g>
</g>
<g>
</g>
<g>
</g>
<g>
</g>
<g>
</g>
<g>
</g>
<g>
</g>
<g>
</g>
<g>
</g>
<g>
</g>
</svg>
