<?xml version="1.0" encoding="iso-8859-1"?>
<!-- Generator: Adobe Illustrator 19.0.0, SVG Export Plug-In . SVG Version: 6.00 Build 0)  -->
<svg version="1.1" id="Capa_1" xmlns="http://www.w3.org/2000/svg" xmlns:xlink="http://www.w3.org/1999/xlink" x="0px" y="0px"
	 viewBox="0 0 512 512" style="enable-background:new 0 0 512 512;" xml:space="preserve">
<path style="fill:#ED5565;" d="M497.778,91.022c4.693,0,8.533,3.84,8.533,8.533v85.333c0,4.693-3.84,8.533-8.533,8.533H14.222
	c-4.693,0-8.533-3.84-8.533-8.533V99.556c0-4.693,3.84-8.533,8.533-8.533h316.709c4.693,0,12.373,0,17.067,0L497.778,91.022
	L497.778,91.022z"/>
<path style="fill:#DA4453;" d="M483.556,193.422H28.444v310.044c0,4.693,3.84,8.533,8.533,8.533h438.044
	c4.693,0,8.533-3.84,8.533-8.533V193.422H483.556z"/>
<path style="fill:#E8AA3D;" d="M438.056,91.022H301.511c0-21.197-14.507-39.026-34.133-44.078C282.897,18.944,346.886,0,381.167,0
	C431.446,0,438.056,40.755,438.056,91.022z"/>
<path style="fill:#FFCE54;" d="M301.511,91.022h-91.022c0-21.208,14.507-39.026,34.144-44.078c3.63-0.933,7.441-1.433,11.367-1.433
	s7.748,0.501,11.378,1.433C287.004,51.997,301.511,69.826,301.511,91.022z"/>
<path style="fill:#F6BB42;" d="M244.633,46.945c-19.638,5.052-34.144,22.869-34.144,44.078H73.956C73.956,40.755,80.566,0,130.844,0
	C165.114,0,229.114,18.944,244.633,46.945z"/>
<g>
	<rect x="210.49" y="91.02" style="fill:#FFCE54;" width="91.02" height="102.4"/>
	<path style="fill:#FFCE54;" d="M256,227.556c69.12,0,125.156,56.036,125.156,125.156S325.12,477.867,256,477.867
		s-125.156-56.036-125.156-125.156S186.88,227.556,256,227.556z"/>
</g>
<path style="fill:#CE3A50;" d="M449.422,193.422V512h25.6c4.693,0,8.533-3.84,8.533-8.533V193.422H449.422z"/>
<path style="fill:#DA4453;" d="M497.778,91.022h-25.6v102.4h25.6c4.693,0,8.533-3.84,8.533-8.533V99.556
	C506.311,94.862,502.471,91.022,497.778,91.022z"/>
<rect x="28.444" y="193.42" style="fill:#CE3A50;" width="455.11" height="17.446"/>
<path style="fill:#ED5565;" d="M317.269,309.168c-16.918-16.919-44.35-16.919-61.269,0c-16.919-16.919-44.351-16.919-61.269,0
	c-16.919,16.919-16.919,44.351,0,61.269l54.859,54.82h0.01c1.564,1.776,3.848,2.902,6.4,2.902s4.837-1.126,6.4-2.902h0.01
	l54.859-54.82C334.188,353.519,334.188,326.087,317.269,309.168z"/>
<path style="fill:#DA4453;" d="M317.269,309.168c-12.897-12.898-31.9-15.951-47.702-9.184c4.927,2.11,9.544,5.163,13.566,9.184
	c16.919,16.919,16.919,44.351,0,61.269l-44.201,44.169l10.658,10.651h0.01c1.564,1.776,3.848,2.902,6.4,2.902s4.837-1.126,6.4-2.902
	h0.01l54.859-54.82C334.188,353.519,334.188,326.087,317.269,309.168z"/>
<g>
</g>
<g>
</g>
<g>
</g>
<g>
</g>
<g>
</g>
<g>
</g>
<g>
</g>
<g>
</g>
<g>
</g>
<g>
</g>
<g>
</g>
<g>
</g>
<g>
</g>
<g>
</g>
<g>
</g>
</svg>
