<?xml version="1.0" encoding="iso-8859-1"?>
<!-- Generator: Adobe Illustrator 19.0.0, SVG Export Plug-In . SVG Version: 6.00 Build 0)  -->
<svg version="1.1" id="Capa_1" xmlns="http://www.w3.org/2000/svg" xmlns:xlink="http://www.w3.org/1999/xlink" x="0px" y="0px"
	 viewBox="0 0 512 512" style="enable-background:new 0 0 512 512;" xml:space="preserve">
<path style="fill:#F0C419;" d="M379.586,0c-73.128,0-132.414,19.765-132.414,44.138v88.276v48.666
	c11.167,6.471,17.655,13.956,17.655,21.954v39.609v48.666v39.609c22.855,13.25,65.633,22.184,114.759,22.184
	c73.128,0,132.414-19.765,132.414-44.138V220.69v-88.276V44.138C512,19.765,452.714,0,379.586,0z"/>
<path style="fill:#687492;" d="M132.414,158.897C59.286,158.897,0,178.662,0,203.034v88.276v88.276v88.276
	C0,492.235,59.286,512,132.414,512s132.414-19.765,132.414-44.138v-88.276V291.31v-88.276
	C264.828,178.662,205.542,158.897,132.414,158.897z"/>
<g>
	<ellipse style="fill:#8697CB;" cx="132.414" cy="203.034" rx="132.414" ry="44.138"/>
	<path style="fill:#8697CB;" d="M132.414,335.448C59.286,335.448,0,315.683,0,291.31v88.276c0,24.373,59.286,44.138,132.414,44.138
		s132.414-19.765,132.414-44.138V291.31C264.828,315.683,205.542,335.448,132.414,335.448z"/>
</g>
<g>
	<path style="fill:#687492;" d="M132.414,423.724C59.286,423.724,0,403.959,0,379.586v88.276C0,492.235,59.286,512,132.414,512
		s132.414-19.765,132.414-44.138v-88.276C264.828,403.959,205.542,423.724,132.414,423.724z"/>
	<path style="fill:#687492;" d="M132.414,247.172C59.286,247.172,0,227.407,0,203.034v88.276c0,24.373,59.286,44.138,132.414,44.138
		s132.414-19.765,132.414-44.138v-88.276C264.828,227.407,205.542,247.172,132.414,247.172z"/>
</g>
<ellipse style="fill:#F0C419;" cx="379.586" cy="44.138" rx="132.414" ry="44.138"/>
<g>
	<path style="fill:#D7AB1C;" d="M379.586,88.276c-73.128,0-132.414-19.765-132.414-44.138v88.276
		c0,24.373,59.286,44.138,132.414,44.138S512,156.787,512,132.414V44.138C512,68.511,452.714,88.276,379.586,88.276z"/>
	<path style="fill:#D7AB1C;" d="M379.586,264.828c-49.126,0-91.904-8.934-114.759-22.184v48.666v39.609
		c22.855,13.25,65.633,22.184,114.759,22.184c73.128,0,132.414-19.765,132.414-44.138V220.69
		C512,245.063,452.714,264.828,379.586,264.828z"/>
</g>
<path style="fill:#F0C419;" d="M379.586,176.552c-73.128,0-132.414-19.765-132.414-44.138v48.666
	c11.167,6.471,17.655,13.956,17.655,21.954v39.609c22.855,13.25,65.633,22.184,114.759,22.184
	c73.128,0,132.414-19.765,132.414-44.138v-88.276C512,156.787,452.714,176.552,379.586,176.552z"/>
<polygon style="fill:#24AE5F;" points="70.621,88.276 194.207,88.276 194.207,35.31 70.621,35.31 70.621,0 0,61.793 70.621,123.586 
	"/>
<polygon style="fill:#E64C3C;" points="441.379,423.724 317.793,423.724 317.793,476.69 441.379,476.69 441.379,512 512,450.207 
	441.379,388.414 "/>
<g>
</g>
<g>
</g>
<g>
</g>
<g>
</g>
<g>
</g>
<g>
</g>
<g>
</g>
<g>
</g>
<g>
</g>
<g>
</g>
<g>
</g>
<g>
</g>
<g>
</g>
<g>
</g>
<g>
</g>
</svg>
