<svg xmlns="http://www.w3.org/2000/svg" xmlns:xlink="http://www.w3.org/1999/xlink" width="257.71" height="50" viewBox="0 0 257.71 50">
  <defs>
    <linearGradient id="linear-gradient" x1="0.026" y1="1.762" x2="1.027" y2="1.762" gradientUnits="objectBoundingBox">
      <stop offset="0" stop-color="#f05a28"/>
      <stop offset="1" stop-color="#f6921e"/>
    </linearGradient>
    <linearGradient id="linear-gradient-2" x1="1" y1="0.5" x2="0" y2="0.5" gradientUnits="objectBoundingBox">
      <stop offset="0" stop-color="#2b388f"/>
      <stop offset="1" stop-color="#262261"/>
    </linearGradient>
    <linearGradient id="linear-gradient-3" y1="0.5" x2="1" y2="0.5" gradientUnits="objectBoundingBox">
      <stop offset="0" stop-color="#ee4423"/>
      <stop offset="1" stop-color="#be151b"/>
    </linearGradient>
    <linearGradient id="linear-gradient-4" x1="0" y1="0.5" x2="1" y2="0.5" xlink:href="#linear-gradient"/>
    <linearGradient id="linear-gradient-5" x1="0.5" x2="0.5" y2="1" gradientUnits="objectBoundingBox">
      <stop offset="0" stop-color="#ec1c24"/>
      <stop offset="1" stop-color="#f05a28"/>
    </linearGradient>
  </defs>
  <g id="Group_3191" data-name="Group 3191" transform="translate(-173.481 -317.812)">
    <g id="Group_1" data-name="Group 1" transform="translate(173.481 317.812)">
      <path id="Path_1" data-name="Path 1" d="M196.827,338.06a12.4,12.4,0,0,1-5.717-1.15l-15.743-8.016,21.441-11.082L218.9,328.171l-16.755,8.7A12.255,12.255,0,0,1,196.827,338.06Z" transform="translate(-173.95 -317.812)" fill="url(#linear-gradient)"/>
      <path id="Path_2" data-name="Path 2" d="M196.591,372.2,175.4,358.769,173.481,335.5l.382.125a41.845,41.845,0,0,1,10.943,6.12c12.227,9.939,11.805,29.781,11.8,29.981Z" transform="translate(-173.481 -322.21)" fill="url(#linear-gradient-2)"/>
      <path id="Path_3" data-name="Path 3" d="M205.691,371.924l-.013-.483c-.006-.193-.386-19.52,10.878-29.969a51.319,51.319,0,0,1,10.647-6.946l.392-.174-.85,23.688Z" transform="translate(-181.485 -321.924)" fill="url(#linear-gradient-3)"/>
      <path id="Path_4" data-name="Path 4" d="M207.885,348.021a12.243,12.243,0,0,1-5.335,1.1,13.746,13.746,0,0,1-4.22-.632,30.465,30.465,0,0,1,4.953,12.967s.886-9.148,6.049-13.967Z" transform="translate(-179.659 -325.191)" fill="#293e87"/>
    </g>
    <g id="Group_6" data-name="Group 6" transform="translate(224.617 318.285)">
      <path id="Path_5" data-name="Path 5" d="M244.18,379.812l-2.639,2.662H356.858l2.663-2.662Z" transform="translate(-241.537 -333.699)" fill="url(#linear-gradient-4)"/>
      <g id="Group_4" data-name="Group 4">
        <path id="Path_6" data-name="Path 6" d="M265.608,346.6a18.119,18.119,0,0,1-.22,2.915,13.942,13.942,0,0,1-.679,2.55,8.651,8.651,0,0,1-2.725,3.8,9.974,9.974,0,0,1-3.024,1.608,11.515,11.515,0,0,1-1.844.362,20.128,20.128,0,0,1-2.441.126h-10.3l-.481-.3V347.644h-2.215l-.147-.15v-2.933l.181-.145H243.9v-9.675l.431-.3h10.235q5.624,0,8.334,2.977T265.608,346.6Zm-5.907-.409q0-4.1-1.079-5.539t-4.026-1.44h-5.182v5.2h8.275v3.228h-8.275v5.545H254.6q2.916,0,4-1.447Q259.7,350.32,259.7,346.195Z" transform="translate(-241.536 -322.42)" fill="url(#linear-gradient-5)"/>
        <path id="Path_7" data-name="Path 7" d="M284.118,357.979h-5.75V334.443h5.75Z" transform="translate(-250.693 -322.42)" fill="url(#linear-gradient-5)"/>
        <path id="Path_8" data-name="Path 8" d="M349.115,357.979h-5.42l.329-15.438-5.039,15.438h-5.578l-5.2-15.659.373,15.659h-5.575V334.443h7.315l5.024,15.2a3.664,3.664,0,0,0,.27.608.613.613,0,0,0,1-.012,4.3,4.3,0,0,0,.312-.644l5.023-15.149h7.16Z" transform="translate(-261.791 -322.42)" fill="url(#linear-gradient-5)"/>
        <path id="Path_9" data-name="Path 9" d="M391.744,357.979h-6.128l-9.042-16.037.191,16.037h-5.608V334.443h6.617l8.517,15.171-.183-15.171h5.635Z" transform="translate(-273.761 -322.42)" fill="url(#linear-gradient-5)"/>
        <path id="Path_10" data-name="Path 10" d="M464.437,355.039h-6.191l-2.063-5.4h-9.2l-2,5.4h-5.937l8.65-22.784a1.582,1.582,0,0,1,.449-.6,2.124,2.124,0,0,1,.914-.15h5.221a3.78,3.78,0,0,1,.964.15,1.653,1.653,0,0,1,.594.74Zm-10.13-10.272-2.022-6.759a1.145,1.145,0,0,0-.318-.525.655.655,0,0,0-.91-.034,1.5,1.5,0,0,0-.312.523l-1.924,6.795Zm4.6-22.15h3.474l-3.65,4.735h-3.12Z" transform="translate(-290.637 -319.48)" fill="url(#linear-gradient-5)"/>
        <path id="Path_11" data-name="Path 11" d="M495.752,357.979h-6.128l-9.042-16.037.184,16.037h-5.607V334.443h6.62l8.524,15.171-.19-15.171h5.639Z" transform="translate(-299.616 -322.42)" fill="url(#linear-gradient-5)"/>
        <path id="Path_12" data-name="Path 12" d="M452.709,328.107h3.7l2.771,3.717h-3.148l-1.482-2-1.561,2h-3.117Z" transform="translate(-293.329 -320.845)" fill="url(#linear-gradient-5)"/>
        <path id="Path_13" data-name="Path 13" d="M404,358V334.64h5.653v5.8a1.185,1.185,0,0,0,.356.875,1.423,1.423,0,0,0,.954.328h8.752a1.384,1.384,0,0,0,.93-.328,1.146,1.146,0,0,0,.38-.875v-5.8h5.656V358h-5.656V347.73a1.117,1.117,0,0,0-.38-.847,1.384,1.384,0,0,0-.93-.356h-8.752a1.4,1.4,0,0,0-.954.356,1.153,1.153,0,0,0-.356.847V358Z" transform="translate(-281.926 -322.469)" fill="url(#linear-gradient-5)"/>
        <path id="Path_14" data-name="Path 14" d="M301.8,325.451h3.7l2.775,3.716h-3.152l-1.479-2-1.561,2h-3.118Zm.79-3.71h2.422a2.076,2.076,0,0,0,.859-.141.484.484,0,0,0,.308-.472.608.608,0,0,0-.355-.606,3.351,3.351,0,0,0-1.285-.167H302.56l.014-1.913h2.806a5.4,5.4,0,0,1,1.511.156,1.744,1.744,0,0,1,.988.868,3.555,3.555,0,0,1,.21,1.663,2.831,2.831,0,0,1-.219,1.464,1.862,1.862,0,0,1-1.041.8,6.171,6.171,0,0,1-1.513.125h-.881l.015,1.038h-1.875Z" transform="translate(-255.814 -318.442)" fill="url(#linear-gradient-5)"/>
        <path id="Path_15" data-name="Path 15" d="M296.079,357.689a4.487,4.487,0,0,1-3.148-1.167,4.771,4.771,0,0,1-1.276-3.3V334.017h20.3v4.56H297.98a1.459,1.459,0,0,0-.953.352,2.388,2.388,0,0,0-.5,1.588c.011.375-.044,1.715.624,2.07a1.426,1.426,0,0,0,.83.166h13.977v4.709H297.98a1.585,1.585,0,0,0-1.1.354,3.878,3.878,0,0,0,.034,3.867,1.431,1.431,0,0,0,1.068.552h13.977v5.454Z" transform="translate(-253.996 -322.314)" fill="url(#linear-gradient-5)"/>
        <g id="Group_3" data-name="Group 3" transform="translate(197.721 4.265)">
          <circle id="Ellipse_1" data-name="Ellipse 1" cx="4.198" cy="4.198" r="4.198" fill="none" stroke="#f30" stroke-miterlimit="10" stroke-width="0.913"/>
          <g id="Group_2" data-name="Group 2" transform="translate(2.564 1.239)">
            <path id="Path_16" data-name="Path 16" d="M508.088,325.877a9.209,9.209,0,0,1,1.467-.11,2.461,2.461,0,0,1,1.64.426,1.345,1.345,0,0,1,.458,1.065,1.418,1.418,0,0,1-.963,1.333v.024a1.35,1.35,0,0,1,.742,1.025,10.543,10.543,0,0,0,.419,1.483h-1a7.481,7.481,0,0,1-.355-1.254c-.15-.694-.4-.915-.955-.931h-.488v2.185h-.963Zm.963,2.35h.576c.654,0,1.065-.347,1.065-.875,0-.584-.41-.852-1.041-.852a2.815,2.815,0,0,0-.6.047Z" transform="translate(-508.088 -325.767)" fill="#f30"/>
          </g>
        </g>
      </g>
      <g id="Group_5" data-name="Group 5" transform="translate(122.077 37.789)">
        <path id="Path_17" data-name="Path 17" d="M457.825,376.755a3.5,3.5,0,0,1-1.135,2.659A3.742,3.742,0,0,1,454,380.472h-6.887a3.755,3.755,0,0,1-2.7-1.057,3.519,3.519,0,0,1-1.124-2.659V372.45a3.529,3.529,0,0,1,1.124-2.648,3.761,3.761,0,0,1,2.7-1.068H454a3.748,3.748,0,0,1,2.692,1.068,3.512,3.512,0,0,1,1.135,2.648Zm-2.737-4.306q0-.978-1.09-.979h-6.887q-1.091,0-1.09.979v4.306q0,.979,1.09.979H454q1.09,0,1.09-.979Z" transform="translate(-413.768 -368.734)" fill="#073460"/>
        <path id="Path_18" data-name="Path 18" d="M478.543,376.845a3.7,3.7,0,0,1-.923,2.537,3.064,3.064,0,0,1-2.4,1.09h-7.743a3.066,3.066,0,0,1-2.414-1.08,3.712,3.712,0,0,1-.912-2.547v-8.111h2.737v8.111q0,.889.59.89h7.743q.578,0,.579-.89v-8.111h2.748Z" transform="translate(-418.955 -368.734)" fill="#073460"/>
        <path id="Path_19" data-name="Path 19" d="M436.457,375.476a4.729,4.729,0,0,0,0-5.584,2.961,2.961,0,0,0-2.414-1.157h-8.649l-2.722,2.72v.017h11.215q.745,0,.745,1.213t-.745,1.2h-11.22v2.74h.005v3.845h2.737v-3.845h3.872l3.415,3.845h3.738L433,376.622h1.046A2.972,2.972,0,0,0,436.457,375.476Z" transform="translate(-408.643 -368.734)" fill="#073460"/>
        <path id="Path_20" data-name="Path 20" d="M407.831,371.471h6.342l2.725-2.723v-.014h-9.067a3.761,3.761,0,0,0-2.7,1.068A3.529,3.529,0,0,0,404,372.45v4.306a3.519,3.519,0,0,0,1.124,2.659,3.755,3.755,0,0,0,2.7,1.057H416.9v-7.243h-3.479v0h-5.8l2.716,2.725h.122v0h3.7v1.78h-6.33q-1.091,0-1.09-.979V372.45Q406.74,371.471,407.831,371.471Z" transform="translate(-404.003 -368.734)" fill="#073460"/>
        <path id="Path_21" data-name="Path 21" d="M498.556,369.9a2.97,2.97,0,0,0-2.392-1.168h-8.628l-2.721,2.734v0h11.348q.589,0,.589,1.235,0,1.2-.589,1.2h-1.738v0h-9.607v.293h0v6.273h2.737v-3.83h1.7v0h6.909a2.979,2.979,0,0,0,2.392-1.157,4.639,4.639,0,0,0,0-5.585Z" transform="translate(-424.094 -368.734)" fill="#073460"/>
      </g>
    </g>
  </g>
</svg>
