<svg height="464pt" viewBox="0 -48 464 464" width="464pt" xmlns="http://www.w3.org/2000/svg"><path d="m112 56v-16h-22.113281c-10.960938 0-20.984375-6.195312-25.886719-16l-3.574219 7.152344c-2.710937 5.421875-8.253906 8.847656-14.3125 8.847656h-14.113281v16c0 22.089844 17.910156 40 40 40s40-17.910156 40-40zm0 0" fill="#ffdaaa"/><path d="m60.425781 31.152344 3.574219-7.152344c4.902344 9.804688 14.925781 16 25.886719 16h22.113281v-8c0-17.671875-14.328125-32-32-32h-16c-17.671875 0-32 14.328125-32 32v8h14.113281c6.058594 0 11.601563-3.425781 14.3125-8.847656zm0 0" fill="#787680"/><path d="m96 112-24 56v104h64c-.019531-12.058594 2.71875-23.960938 8-34.800781v-77.199219c0-26.507812-21.492188-48-48-48zm0 0" fill="#00ddc2"/><path d="m48 112c-26.507812 0-48 21.492188-48 48v104c0 4.417969 3.582031 8 8 8h64v-104zm0 0" fill="#00ccb3"/><path d="m96 112h-48l24 56zm0 0" fill="#ffc477"/><path d="m432 56v-16h-22.113281c-10.960938 0-20.984375-6.195312-25.886719-16l-3.574219 7.152344c-2.710937 5.421875-8.253906 8.847656-14.3125 8.847656h-14.113281v16c0 22.089844 17.910156 40 40 40s40-17.910156 40-40zm0 0" fill="#ffdaaa"/><path d="m380.425781 31.152344 3.574219-7.152344c4.902344 9.804688 14.925781 16 25.886719 16h22.113281v-8c0-17.671875-14.328125-32-32-32h-16c-17.671875 0-32 14.328125-32 32v8h14.113281c6.058594 0 11.601563-3.425781 14.3125-8.847656zm0 0" fill="#787680"/><path d="m368 112c-26.507812 0-48 21.492188-48 48v77.199219c5.28125 10.839843 8.019531 22.742187 8 34.800781h64v-104zm0 0" fill="#00ccb3"/><path d="m416 112-24 56v104h64c4.417969 0 8-3.582031 8-8v-104c0-26.507812-21.492188-48-48-48zm0 0" fill="#00ddc2"/><path d="m416 112h-48l24 56zm0 0" fill="#ffc477"/><path d="m280 128v-16h-48l-8-16-16 16h-24v16c0 26.507812 21.492188 48 48 48s48-21.492188 48-48zm0 0" fill="#ffdaaa"/><path d="m224 96 8 16h48c0-26.507812-21.492188-48-48-48s-48 21.492188-48 48h24zm0 0" fill="#787680"/><path d="m183.121094 199.121094c-17.078125 7.746094-30.917969 21.214844-39.121094 38.078125-5.28125 10.839843-8.019531 22.742187-8 34.800781v88c0 4.417969 3.582031 8 8 8h88v-120zm0 0" fill="#5aaae7"/><path d="m232 248 48.878906-48.878906c-10.324218-4.691406-21.535156-7.117188-32.878906-7.121094h-32c-11.347656-.003906-22.5625 2.417969-32.894531 7.105469zm0 0" fill="#ffc477"/><path d="m320 237.199219c-8.199219-16.867188-22.027344-30.339844-39.105469-38.09375l-48.894531 48.894531v120h88c4.417969 0 8-3.582031 8-8v-88c.019531-12.058594-2.71875-23.960938-8-34.800781zm0 0" fill="#3d9ae2"/><path d="m104 160h16v16h-16zm0 0" fill="#00a691"/><path d="m424 160h16v16h-16zm0 0" fill="#00a691"/><path d="m264 256h32v16h-32zm0 0" fill="#1a6fb0"/></svg>