<svg id="Capa_1" enable-background="new 0 0 512 512" height="512" viewBox="0 0 512 512" width="512" xmlns="http://www.w3.org/2000/svg"><g><path d="m134.954 468.211 37.221-92.873-37.221-129.646-119.501 30.905v160.709z" fill="#ffc263"/><path d="m33.209 230.239h101.745l10.302 46.358h-140.105c-2.845 0-5.151-2.306-5.151-5.151v-5.806c0-4.897 1.744-9.633 4.919-13.361l12.605-14.797c3.915-4.595 9.648-7.243 15.685-7.243z" fill="#736572"/><path d="m465.642 437.306-88.596 30.905-36.21-91.455 30.472-117.874 125.239 17.715z" fill="#ffc263"/><path d="m496.547 276.602v160.709l-14.806 6.177-16.099-6.182v-51.509l-14.964-28.846 14.964-28.845v-61.805z" fill="#ffaa5a"/><path d="m467.702 437.306h-100.958l10.302 30.905h85.505c2.845 0 5.151-2.306 5.151-5.151z" fill="#ffaa5a"/><path d="m496.547 437.311v25.755c0 2.843-2.308 5.151-5.151 5.151h-30.905c2.843 0 5.151-2.308 5.151-5.151v-25.755z" fill="#ef8d43"/><path d="m449.946 230.239h-72.9l-10.302 46.358h111.26c2.845 0 5.151-2.306 5.151-5.151v-5.806c0-4.897-1.744-9.633-4.919-13.361l-12.605-14.797c-3.915-4.595-9.648-7.243-15.685-7.243z" fill="#736572"/><path d="m512 265.641v5.81c0 2.843-2.308 5.151-5.151 5.151h-30.905c2.843 0 5.151-2.308 5.151-5.151v-5.81c0-4.893-1.741-9.632-4.924-13.361l-12.599-14.793c-3.915-4.595-9.653-7.242-15.69-7.242h30.905c6.037 0 11.775 2.648 15.69 7.242l12.599 14.793c3.183 3.729 4.924 8.468 4.924 13.361z" fill="#615260"/><path d="m377.046 160.525v307.686h-46.358l-74.688-15.453-74.688 15.453h-46.358v-308.775l121.046-97.092z" fill="#ffe077"/><path d="m299.783 468.211h-118.471v-20.604c0-5.69 4.612-10.302 10.302-10.302h100.958c5.69 0 10.302 4.612 10.302 10.302z" fill="#fcf1f2"/><path d="m330.688 447.612v20.604h-30.905v-20.604c0-5.697-4.615-10.302-10.302-10.302h30.905c5.687.001 10.302 4.605 10.302 10.302z" fill="#f4e5e0"/><path d="m256 328.106h-28.33c-17.069 0-30.905 13.837-30.905 30.905v78.294l59.235.006 33.481-80.359z" fill="#e29a6c"/><path d="m256 328.111v109.199h59.235v-78.294c0-17.07-13.835-30.905-30.905-30.905z" fill="#ce845c"/><path d="m281.239 266.296h-79.324c-11.379 0-20.604 9.225-20.604 20.604v5.151c0 2.845 2.306 5.151 5.151 5.151h110.229c2.845 0 5.151-2.306 5.151-5.151v-5.151c.001-11.38-9.224-20.604-20.603-20.604z" fill="#fcf1f2"/><path d="m330.688 286.904v5.151c0 2.843-2.308 5.151-5.151 5.151h-30.905c2.843 0 5.151-2.308 5.151-5.151v-5.151c0-11.383-9.22-20.604-20.604-20.604h30.905c11.384.001 20.604 9.221 20.604 20.604z" fill="#f4e5e0"/><path d="m15.453 437.306h119.501v30.905h-114.35c-2.845 0-5.151-2.306-5.151-5.151z" fill="#ffaa5a"/><path d="m51.509 322.955h47.388c2.845 0 5.151 2.306 5.151 5.151v57.69c0 2.845-2.306 5.151-5.151 5.151h-47.388c-2.845 0-5.151-2.306-5.151-5.151v-57.69c0-2.844 2.306-5.151 5.151-5.151z" fill="#fff"/><path d="m460.491 322.955h-47.388c-2.845 0-5.151 2.306-5.151 5.151v57.69c0 2.845 2.306 5.151 5.151 5.151h47.388c2.845 0 5.151-2.306 5.151-5.151v-57.69c0-2.844-2.306-5.151-5.151-5.151z" fill="#fff"/><path d="m391.792 190.21-135.792-111.012-142.785 116.729c-6.608 5.401-16.343 4.424-21.744-2.184-5.401-6.607-4.424-16.342 2.183-21.744l146.893-120.087 18.832-1.967 153.819 134.763z" fill="#736572"/><path d="m420.53 193.747c-3.06 3.729-7.5 5.666-11.971 5.666-3.441 0-6.902-1.144-9.777-3.482l-6.995-5.717c2.75-6.202 1.154-13.712-4.347-18.214l-146.893-120.088 5.676-4.636c5.687-4.656 13.866-4.656 19.553 0l152.57 124.724c6.604 5.398 7.582 15.134 2.184 21.747z" fill="#615260"/><path d="m240.547 227.434c-16.555-6.246-28.329-22.237-28.329-40.977 0-18.739 11.773-34.729 28.326-40.976 4.806-1.814 52.34 16.796 52.34 40.976-.001 24.18-47.532 42.79-52.337 40.977z" fill="#cbb0f2"/><path d="m299.783 186.462c0 12.094-4.904 23.035-12.826 30.957s-18.863 12.826-30.957 12.826c-5.439 0-10.652-.989-15.453-2.812 5.872-2.215 11.147-5.656 15.504-10.013 7.922-7.922 12.826-18.863 12.826-30.957s-4.904-23.035-12.826-30.967c-4.358-4.347-9.632-7.798-15.504-10.003 4.801-1.823 10.013-2.812 15.453-2.812 12.094 0 23.035 4.904 30.957 12.815 7.922 7.931 12.826 18.871 12.826 30.966z" fill="#b696ef"/><path d="m268.632 203.685c-1.617 0-3.245-.505-4.637-1.551l-12.638-9.501c-1.942-1.459-3.084-3.747-3.084-6.176v-16.496c0-4.267 3.459-7.726 7.726-7.726 4.268 0 7.726 3.459 7.726 7.726v12.638l9.554 7.184c3.41 2.564 4.097 7.408 1.533 10.818-1.516 2.019-3.834 3.084-6.18 3.084z" fill="#a18ae2"/></g></svg>