<?xml version="1.0" encoding="iso-8859-1"?>
<!-- Generator: Adobe Illustrator 19.0.0, SVG Export Plug-In . SVG Version: 6.00 Build 0)  -->
<svg version="1.1" id="Capa_1" xmlns="http://www.w3.org/2000/svg" xmlns:xlink="http://www.w3.org/1999/xlink" x="0px" y="0px"
	 viewBox="0 0 512 512" style="enable-background:new 0 0 512 512;" xml:space="preserve">
<path style="fill:#A6D2E3;" d="M459.589,134.416c0,6.562-0.486,13.031-1.405,19.345c-4.258,28.997-17.929,55.038-37.791,74.89
	c-24.181,24.192-57.529,39.196-94.224,39.196H160.516l-42.08,94.834c-11.006,24.812-48.104,16.958-48.104-10.2V251.871
	C28.552,229.271,0,185.021,0,134.416c0-36.685,15.005-70.043,39.196-94.224c8.639-8.639,18.456-16.111,29.173-22.145
	c19.273-10.851,41.47-17.051,65.052-17.051h192.747C399.549,0.996,459.589,61.035,459.589,134.416z"/>
<path style="fill:#C0DFEB;" d="M459.589,134.416c0,6.562-0.486,13.031-1.405,19.345c-41.759,36.034-96.146,57.818-155.638,57.818
	c-116.328,0-213.188-83.322-234.176-193.533c19.273-10.851,41.47-17.051,65.052-17.051h192.747
	C399.549,0.996,459.589,61.035,459.589,134.416z"/>
<circle style="fill:#D63030;" cx="377.569" cy="376.612" r="134.392"/>
<path style="fill:#F44545;" d="M492.481,446.324c-8.877,5.694-18.57,10.417-28.986,13.992
	c-70.208,24.099-146.648-13.279-170.747-83.477c-13.475-39.248-7.73-80.439,12.215-113.352c8.877-5.684,18.56-10.406,28.976-13.982
	c70.208-24.099,146.648,13.279,170.747,83.487C518.151,372.23,512.415,413.42,492.481,446.324z"/>
<g>
	<circle style="fill:#AF2727;" cx="348.138" cy="320.344" r="12.864"/>
	<circle style="fill:#AF2727;" cx="407" cy="320.344" r="12.864"/>
	<path style="fill:#AF2727;" d="M446.896,425.64c-4.281,0-7.75-3.47-7.75-7.75c0-33.952-27.621-61.573-61.574-61.573
		s-61.574,27.621-61.574,61.573c0,4.28-3.469,7.75-7.75,7.75c-4.281,0-7.75-3.47-7.75-7.75c0-42.499,34.576-77.074,77.075-77.074
		s77.075,34.575,77.075,77.074C454.646,422.17,451.177,425.64,446.896,425.64z"/>
</g>
<path style="fill:#E3A76F;" d="M339.972,131.764V72.395c0-10.427-3.482-20.089-9.342-27.86c-8.494-11.254-21.97-18.56-37.078-18.56
	h-91.465c-12.018,0-21.856,9.838-21.856,21.856v100.621c0,12.018,9.838,21.856,21.856,21.856h19.924
	c1.922,0,3.751,0.858,4.971,2.346l46.885,56.599c8.05,9.776,22.352,12.132,32.738,4.878c11.605-8.112,13.661-24.378,4.826-35.104
	l-15.036-18.25c-3.379-4.216-0.372-10.468,5.033-10.468c10.644,0,20.285-4.32,27.25-11.285
	C335.663,152.039,339.972,142.407,339.972,131.764z"/>
<path style="fill:#F2BB88;" d="M339.972,131.764V72.395c0-10.427-3.482-20.089-9.342-27.86
	c-63.677,8.939-113.497,61.042-118.933,125.774h10.313c1.922,0,3.751,0.858,4.971,2.346l46.885,56.599
	c8.05,9.776,22.352,12.132,32.738,4.878c11.605-8.112,13.661-24.378,4.826-35.104l-15.036-18.25
	c-3.379-4.216-0.372-10.468,5.033-10.468c10.644,0,20.285-4.32,27.25-11.285C335.663,152.039,339.972,142.407,339.972,131.764z"/>
<path style="fill:#06638D;" d="M180.233,47.188v104.92c0,8.928-7.306,16.235-16.235,16.235h-30.671
	c-7.575,0-13.713-6.149-13.713-13.723V44.677c0-7.575,6.138-13.713,13.713-13.713h30.671
	C172.927,30.964,180.233,38.27,180.233,47.188z"/>
<path style="fill:#1B87B3;" d="M180.233,47.188v93.336h-19.087c-7.575,0-13.713-6.138-13.713-13.713V30.964h16.565
	C172.927,30.964,180.233,38.27,180.233,47.188z"/>
<g>
</g>
<g>
</g>
<g>
</g>
<g>
</g>
<g>
</g>
<g>
</g>
<g>
</g>
<g>
</g>
<g>
</g>
<g>
</g>
<g>
</g>
<g>
</g>
<g>
</g>
<g>
</g>
<g>
</g>
</svg>
