<svg id="Capa_1" enable-background="new 0 0 512 512" height="512" viewBox="0 0 512 512" width="512" xmlns="http://www.w3.org/2000/svg"><g><g><path d="m344 462 9-451-301-11-28 449z" fill="#844f3e"/><path d="m183 341c51 0 90-23 90-67 0-60-73-77-73-77l48-56-25-12s-110 73-110 140c0 55 52 72 70 72z" fill="#edbc40"/><ellipse cx="191" cy="267.5" fill="#844f3e" rx="62" ry="52.5"/><g fill="#edbc40"><g><path d="m51 421 63 5-49-17-7-44z"/><path d="m63 407 7-17 27-10-9 25-22 6z"/></g><g><path d="m285 27 47 2 2 43-14-32z"/><path d="m320 38-20 4-8 20 25-7 6-14z"/></g></g></g><g><g><path d="m154 93 11 419 317-22-44-422z" fill="#9c6750"/><path d="m387 68 4 8 34 10 12 33 10 2-4-55z" fill="#edbc40"/><path d="m419 500 2-12 42-12 7-36 11-4 7 59z" fill="#edbc40"/><g fill="#844f3e"><path d="m408 94-228 20 14 370 254-22zm18 316-26 37-153 8-32-24-7-264 27-38 128-12 31 23z"/><path d="m246 208 107-15 8 35-115 12z"/></g></g><g><path d="m316 118-93 268 143 50 73-276z" fill="#f4efe3"/><path d="m323 137 97 31-64 241-114-35z" fill="#90802c"/><path d="m344 161-21 14-56 170 9 24 51 15 26-13 43-172-6-24z" fill="#c3aa37"/><g fill="#90802c"><path d="m368 271c0 13.255-16.327 22-34 22s-30-10.745-30-24 14.327-24 32-24 32 12.745 32 26z"/><path d="m344 226 11 4 17-37-24-7z"/><path d="m318 307 14 4-9 52-30-8z"/></g></g></g></g></svg>