<?xml version="1.0" encoding="utf-8"?>
<!-- Generator: Adobe Illustrator 21.0.0, SVG Export Plug-In . SVG Version: 6.00 Build 0)  -->
<svg xmlns="http://www.w3.org/2000/svg" xmlns:xlink="http://www.w3.org/1999/xlink" version="1.1" id="Layer_1" x="0px" y="0px" viewBox="0 0 256 256" style="enable-background:new 0 0 256 256;" xml:space="preserve" width="512" height="512">
<style type="text/css">
	.st0{fill:#B26E3B;}
	.st1{fill:#E9E9EA;}
	.st2{fill:#EA4647;}
	.st3{fill:#FFCD29;}
	.st4{fill:#898989;}
	.st5{fill:#231F20;}
	.st6{fill:#55ACD5;}
	.st7{fill:#6DCC6D;}
</style>
<g id="Layer_44">
	<path class="st0" d="M198.3,33.4h-31.6c2.8,3.2,2.6,8-0.6,10.9c-1.4,1.3-3.2,2-5.1,2H95.6c-4.2,0-7.7-3.4-7.7-7.7   c0-1.9,0.7-3.7,2-5.1H57.7c-6.1,0-11.1,5-11.1,11.1v197.8c0,6.1,5,11.1,11.1,11.1h140.6c6.1,0,11.1-5,11.1-11.1V44.6   C209.4,38.4,204.4,33.4,198.3,33.4z"/>
	<path class="st1" d="M198.3,43.7h-31.6c-1.5,1.6-3.5,2.6-5.7,2.6H95.6c-2.2,0-4.3-0.9-5.7-2.6H57.7c-0.5,0-0.8,0.4-0.9,0.9v197.8   c0,0.5,0.4,0.8,0.9,0.9h111.2l30.3-30.3V44.6C199.1,44.1,198.8,43.7,198.3,43.7z"/>
	<circle class="st2" cx="128.2" cy="166" r="45.5"/>
	<path class="st1" d="M148.9,152.7c-0.6-10.8-9.2-19.4-19.9-19.9c-11.6-0.5-21.4,8.4-21.9,19.9c0,0.3,0,0.7,0,1   c0,2.6,2.1,4.7,4.7,4.7c2.6,0,4.7-2.1,4.7-4.7c0,0,0,0,0,0c0-6.3,5.2-11.5,11.5-11.5c6.3,0,11.5,5.2,11.5,11.5   c0,4.8-3,9.2-7.6,10.8c-5.2,1.9-8.6,6.8-8.6,12.3c0,2.6,2.1,4.7,4.7,4.7c2.6,0,4.7-2.1,4.7-4.7c0,0,0,0,0,0c0-1.5,0.9-2.9,2.4-3.4   C143.8,170.3,149.4,161.9,148.9,152.7z"/>
	<path class="st1" d="M128.9,189.9c-2.6-0.5-5.1,1.1-5.6,3.7s1.1,5.1,3.7,5.6c2.6,0.5,5.1-1.1,5.6-3.7c0.1-0.3,0.1-0.6,0.1-0.9   C132.7,192.3,131.1,190.4,128.9,189.9z"/>
	<path class="st3" d="M169.7,213c-0.5,0-0.8,0.4-0.9,0.9v29.4l30.3-30.3L169.7,213z"/>
	<path class="st1" d="M128.3,7.9c-10.2,0-18.4,8.3-18.4,18.4v4.6h10.3v-4.6c0-4.5,3.7-8.2,8.2-8.2c4.5,0,8.2,3.7,8.2,8.2v4.6h10.3   v-4.6C146.7,16.1,138.4,7.9,128.3,7.9z"/>
	<path class="st4" d="M161,30.9H95.6c-4.2,0-7.7,3.4-7.7,7.7s3.4,7.7,7.7,7.7H161c4.2,0,7.7-3.4,7.7-7.7S165.2,30.9,161,30.9   L161,30.9L161,30.9z"/>
	<path class="st5" d="M201.5,212c-0.4-0.9-1.3-1.5-2.3-1.5h-29.4c-1.9,0-3.4,1.5-3.4,3.4v29.4c0,1.4,1.1,2.5,2.5,2.5   c0.7,0,1.3-0.3,1.8-0.7l30.3-30.3C201.6,214,201.8,212.9,201.5,212z M171.4,237.2v-21.7h21.7L171.4,237.2z"/>
	<path class="st5" d="M198.3,30.9h-31.6c-1.4,0-2.5,1.1-2.5,2.5c0,0.6,0.2,1.2,0.6,1.7c1.9,2.1,1.7,5.4-0.4,7.3   c-1,0.9-2.2,1.3-3.5,1.3H95.6c-2.9,0-5.2-2.3-5.2-5.2c0-1.3,0.5-2.5,1.3-3.5c0.9-1,0.8-2.6-0.2-3.5c-0.5-0.4-1.1-0.6-1.7-0.6H57.7   c-7.5,0-13.6,6.1-13.6,13.6v197.8c0,7.5,6.1,13.6,13.6,13.6h140.6c7.5,0,13.6-6.1,13.6-13.6V44.6C211.9,37,205.8,30.9,198.3,30.9z    M206.9,242.4c0,4.8-3.9,8.6-8.6,8.6H57.7c-4.8,0-8.6-3.9-8.6-8.6V44.6c0-4.8,3.9-8.6,8.6-8.6h28c-1.5,5.4,1.8,11,7.2,12.5   c0.9,0.2,1.8,0.3,2.6,0.3H161c5.6,0,10.2-4.6,10.2-10.2c0-0.9-0.1-1.8-0.3-2.6h27.5c4.8,0,8.6,3.9,8.6,8.6L206.9,242.4z"/>
	<path class="st5" d="M161,28.4H95.6c-5.6,0-10.2,4.6-10.2,10.2s4.6,10.2,10.2,10.2H161c5.6,0,10.2-4.6,10.2-10.2   S166.6,28.4,161,28.4L161,28.4z M161,43.8H95.6c-2.9,0-5.2-2.3-5.2-5.2s2.3-5.2,5.2-5.2H161c2.9,0,5.2,2.3,5.2,5.2   S163.8,43.8,161,43.8L161,43.8z"/>
	<path class="st5" d="M198.3,41.2h-31.6c-0.7,0-1.4,0.3-1.9,0.8c-1,1.1-2.4,1.7-3.9,1.7H95.6c-1.5,0-2.9-0.6-3.9-1.7   c-0.5-0.5-1.2-0.8-1.9-0.8H57.7c-1.9,0-3.4,1.5-3.4,3.4v197.8c0,1.9,1.5,3.4,3.4,3.4h111.2c0.7,0,1.3-0.3,1.8-0.7l30.3-30.3   c0.5-0.5,0.7-1.1,0.7-1.8V44.6C201.6,42.7,200.1,41.2,198.3,41.2z M196.7,211.9l-28.8,28.8H59.3V46.2h29.5c1.9,1.6,4.3,2.6,6.7,2.6   H161c2.5,0,4.9-0.9,6.7-2.6h29V211.9z"/>
	<path class="st5" d="M128.3,5.4c-11.6,0-20.9,9.4-20.9,20.9v4.6c0,1.4,1.1,2.5,2.5,2.5h10.3c1.4,0,2.5-1.1,2.5-2.5v-4.6   c0-3.1,2.5-5.7,5.7-5.7c3.1,0,5.7,2.5,5.7,5.7c0,0,0,0,0,0v4.6c0,1.4,1.1,2.5,2.5,2.5h10.3c1.4,0,2.5-1.1,2.5-2.5v-4.6   C149.2,14.7,139.8,5.4,128.3,5.4z M144.2,28.4h-5.3v-2.1c0-5.9-4.8-10.7-10.7-10.7s-10.7,4.8-10.7,10.7v2.1h-5.3v-2.1   c0-8.8,7.1-15.9,15.9-15.9s15.9,7.1,15.9,15.9L144.2,28.4z"/>
	<path class="st5" d="M157.5,43.8c-1.4,0-2.5,1.1-2.5,2.5v6.9c0,2.1-1.7,3.8-3.8,3.8h-45.9c-2.1,0-3.8-1.7-3.8-3.8v-6.9   c0-1.4-1.1-2.5-2.5-2.5s-2.5,1.1-2.5,2.5v6.9c0,4.8,3.9,8.8,8.8,8.8h45.9c4.8,0,8.8-3.9,8.8-8.8v-6.9   C160,44.9,158.9,43.8,157.5,43.8z"/>
	<path class="st5" d="M143.7,76.8h-31.1c-1.4,0-2.5,1.1-2.5,2.5s1.1,2.5,2.5,2.5h31.1c1.4,0,2.5-1.1,2.5-2.5S145.1,76.8,143.7,76.8z   "/>
	<path class="st5" d="M165.4,90.1H91.1c-1.4,0-2.5,1.1-2.5,2.5s1.1,2.5,2.5,2.5h74.3c1.4,0,2.5-1.1,2.5-2.5S166.8,90.1,165.4,90.1   L165.4,90.1z"/>
	<path class="st5" d="M165.4,103.3H91.1c-1.4,0-2.5,1.1-2.5,2.5s1.1,2.5,2.5,2.5h74.3c1.4,0,2.5-1.1,2.5-2.5   S166.8,103.3,165.4,103.3L165.4,103.3z"/>
	<path class="st5" d="M128.2,117.9c-26.5,0-48,21.5-48,48c0,26.5,21.5,48,48,48s48-21.5,48-48c0,0,0,0,0,0   C176.2,139.4,154.7,118,128.2,117.9z M128.2,209c-23.8,0-43-19.3-43-43s19.3-43,43-43s43,19.3,43,43c0,0,0,0,0,0   C171.2,189.7,151.9,208.9,128.2,209z"/>
	<path class="st5" d="M151.4,152.6c-0.6-12.1-10.3-21.7-22.3-22.3c-12.9-0.6-23.9,9.4-24.5,22.3c0,0.4,0,0.7,0,1.1   c0,4,3.2,7.2,7.2,7.2c4,0,7.2-3.2,7.2-7.2c0,0,0,0,0,0c0-5,4-9,9-9c0.2,0,0.3,0,0.5,0c5,0.2,8.8,4.5,8.5,9.4   c-0.2,3.6-2.5,6.8-5.9,8c-6.2,2.2-10.3,8.1-10.3,14.6c0,4,3.2,7.2,7.2,7.2c4,0,7.2-3.2,7.2-7.2c0-0.5,0.3-0.9,0.7-1   C145.7,172.3,151.9,162.9,151.4,152.6z M134.3,171.1c-2.4,0.9-4,3.2-4,5.7c0,1.2-1,2.2-2.2,2.2c-1.2,0-2.2-1-2.2-2.2c0,0,0,0,0,0   c0-4.5,2.8-8.4,7-9.9c7.3-2.6,11-10.6,8.4-17.9c-1.9-5.3-6.8-9-12.5-9.2c-0.2,0-0.4,0-0.7,0c-7.7,0-14,6.3-14,14c0,0,0,0,0,0   c0,1.2-1,2.2-2.2,2.2c-1.2,0-2.2-1-2.2-2.2c0,0,0,0,0,0c0-10.2,8.3-18.5,18.4-18.5c0.3,0,0.6,0,0.9,0c9.5,0.5,17.1,8.1,17.6,17.6   C146.8,160.9,141.9,168.4,134.3,171.1L134.3,171.1z"/>
	<path class="st5" d="M129.4,187.5c-3.9-0.8-7.7,1.7-8.5,5.7c-0.8,3.9,1.7,7.7,5.7,8.5c3.9,0.8,7.7-1.7,8.5-5.7   c0.1-0.5,0.1-0.9,0.1-1.4C135.2,191.1,132.8,188.2,129.4,187.5z M128,196.8c-1.2,0-2.2-1-2.2-2.2c0-0.7,0.3-1.3,0.8-1.7   c0.4-0.3,0.9-0.5,1.4-0.5c0.2,0,0.3,0,0.5,0c1.2,0.3,2,1.4,1.7,2.6C129.9,196.1,129,196.8,128,196.8L128,196.8z"/>
	<path class="st6" d="M94.1,0c-1.4,0-2.5,1.1-2.5,2.5c0,0.7,0.3,1.3,0.7,1.8c1,1,2.6,0.9,3.6-0.1c0.4-0.5,0.7-1.1,0.7-1.7   C96.6,1.1,95.5,0,94.1,0z"/>
	<path class="st3" d="M221,223.1c-1.4,0-2.5,1.1-2.5,2.5s1.1,2.5,2.5,2.5s2.5-1.1,2.5-2.5C223.5,224.2,222.4,223.1,221,223.1z"/>
	<path class="st7" d="M81.3,12.4c-3.8-0.7-6.8-3.7-7.5-7.5c0-0.1-0.1-0.2-0.2-0.1c-0.1,0-0.1,0.1-0.1,0.1c-0.7,3.8-3.7,6.8-7.5,7.5   c-0.1,0-0.2,0.1-0.1,0.2c0,0.1,0.1,0.1,0.1,0.1c3.8,0.7,6.8,3.7,7.5,7.5c0,0.1,0.1,0.2,0.2,0.1c0.1,0,0.1-0.1,0.1-0.1   c0.7-3.8,3.7-6.8,7.5-7.5c0.1,0,0.2-0.1,0.1-0.2C81.5,12.4,81.4,12.4,81.3,12.4z"/>
	<path class="st2" d="M237.2,198.7h-1.8v-1.8c0-1.4-1.1-2.5-2.5-2.5s-2.5,1.1-2.5,2.5v1.8h-1.8c-1.4,0-2.5,1.1-2.5,2.5   s1.1,2.5,2.5,2.5h1.8v1.8c0,1.4,1.1,2.5,2.5,2.5s2.5-1.1,2.5-2.5v-1.8h1.8c1.4,0,2.5-1.1,2.5-2.5S238.6,198.7,237.2,198.7z"/>
</g>
</svg>
